<svg width="21" height="22" viewBox="0 0 21 22" fill="none" xmlns="http://www.w3.org/2000/svg">
<path d="M5.13129 4.77815H11.4453C11.6159 4.77815 11.7866 4.64163 11.7866 4.43685V2.1843C11.7866 2.01365 11.65 1.843 11.4453 1.843H10.3873C10.2507 0.819112 9.36336 0 8.27121 0C7.21319 0 6.29169 0.819112 6.15517 1.843H5.09716C4.92651 1.843 4.75586 1.97952 4.75586 2.1843V4.43685C4.78999 4.64163 4.92651 4.77815 5.13129 4.77815ZM8.27121 0.648463C8.98794 0.648463 9.56814 1.16041 9.70466 1.80887H6.83777C6.97429 1.16041 7.55449 0.648463 8.27121 0.648463Z" fill="white"/>
<path d="M14.5512 16.4847C13.0153 15.6997 11.9573 14.0956 11.9573 12.2526C11.9573 9.72703 13.9027 7.67926 16.36 7.50861V2.73046C16.36 2.55981 16.2235 2.38916 16.0187 2.38916H12.4351V4.43694C12.4351 4.98301 11.9914 5.4267 11.4454 5.4267H5.13137C4.58529 5.4267 4.14161 4.98301 4.14161 4.43694V2.42329H0.489734C0.319086 2.42329 0.148438 2.55981 0.148438 2.76459V21.1605C0.148438 21.3311 0.284956 21.5018 0.489734 21.5018H14.8583C14.6535 21.1605 14.517 20.785 14.517 20.3414V16.4847H14.5512ZM3.11772 19.3175H2.50338C2.33274 19.3175 2.16209 19.1809 2.16209 18.9762C2.16209 18.8055 2.29861 18.6349 2.50338 18.6349H3.08359C3.25424 18.6349 3.42488 18.7714 3.42488 18.9762C3.42488 19.1809 3.28837 19.3175 3.11772 19.3175ZM3.11772 16.8601H2.50338C2.33274 16.8601 2.16209 16.7236 2.16209 16.5188C2.16209 16.3141 2.29861 16.1775 2.50338 16.1775H3.08359C3.25424 16.1775 3.42488 16.3141 3.42488 16.5188C3.42488 16.7236 3.28837 16.8601 3.11772 16.8601ZM3.11772 14.4028H2.50338C2.33274 14.4028 2.16209 14.2663 2.16209 14.0615C2.16209 13.8909 2.29861 13.7202 2.50338 13.7202H3.08359C3.25424 13.7202 3.42488 13.8567 3.42488 14.0615C3.42488 14.2663 3.28837 14.4028 3.11772 14.4028ZM3.11772 11.9455H2.50338C2.33274 11.9455 2.16209 11.8089 2.16209 11.6042C2.16209 11.4335 2.29861 11.2629 2.50338 11.2629H3.08359C3.25424 11.2629 3.42488 11.3994 3.42488 11.6042C3.42488 11.7748 3.28837 11.9455 3.11772 11.9455ZM3.11772 9.454H2.50338C2.33274 9.454 2.16209 9.31748 2.16209 9.1127C2.16209 8.94205 2.29861 8.7714 2.50338 8.7714H3.08359C3.25424 8.7714 3.42488 8.90792 3.42488 9.1127C3.42488 9.31748 3.28837 9.454 3.11772 9.454ZM5.4044 8.80553H12.0938C12.2645 8.80553 12.4351 8.94205 12.4351 9.14683C12.4351 9.31748 12.2986 9.48813 12.0938 9.48813H5.4044C5.23376 9.48813 5.06311 9.35161 5.06311 9.14683C5.06311 8.94205 5.23376 8.80553 5.4044 8.80553ZM5.4044 11.2629H10.0802C10.2508 11.2629 10.4215 11.3994 10.4215 11.6042C10.4215 11.7748 10.2849 11.9455 10.0802 11.9455H5.4044C5.23376 11.9455 5.06311 11.8089 5.06311 11.6042C5.06311 11.4335 5.23376 11.2629 5.4044 11.2629ZM5.4044 13.7202H10.0802C10.2508 13.7202 10.4215 13.8567 10.4215 14.0615C10.4215 14.2321 10.2849 14.4028 10.0802 14.4028H5.4044C5.23376 14.4028 5.06311 14.2663 5.06311 14.0615C5.06311 13.8909 5.23376 13.7202 5.4044 13.7202ZM11.1041 19.3175H5.4044C5.23376 19.3175 5.06311 19.1809 5.06311 18.9762C5.06311 18.8055 5.19963 18.6349 5.4044 18.6349H11.1041C11.2747 18.6349 11.4454 18.7714 11.4454 18.9762C11.4112 19.1809 11.2747 19.3175 11.1041 19.3175ZM11.7184 16.8601H5.4044C5.23376 16.8601 5.06311 16.7236 5.06311 16.5188C5.06311 16.3141 5.19963 16.1775 5.4044 16.1775H11.7184C11.889 16.1775 12.0597 16.3141 12.0597 16.5188C12.0597 16.7236 11.9232 16.8601 11.7184 16.8601Z" fill="white"/>
<path d="M16.7013 8.19092C14.4487 8.19092 12.6057 10.0339 12.6057 12.2865C12.6057 14.539 14.4487 16.382 16.7013 16.382C18.9538 16.382 20.7968 14.539 20.7968 12.2865C20.7968 10.0339 18.9538 8.19092 16.7013 8.19092Z" fill="#EA5858"/>
<path d="M16.7149 9.34521C15.0795 9.34521 13.7415 10.6833 13.7415 12.3187C13.7415 13.9541 15.0795 15.2922 16.7149 15.2922C18.3504 15.2922 19.6884 13.9541 19.6884 12.3187C19.6884 10.6833 18.3504 9.34521 16.7149 9.34521Z" fill="#D3D3D3"/>
<path d="M15.1997 16.7915V20.341C15.1997 21.1601 15.8823 21.8427 16.7014 21.8427C17.5205 21.8427 18.2031 21.1601 18.2031 20.341V16.7915C17.7253 16.9622 17.2134 17.0304 16.7014 17.0304C16.1895 17.0304 15.6775 16.9622 15.1997 16.7915Z" fill="#EA5858"/>
</svg>
