<svg width="15" height="22" viewBox="0 0 15 22" fill="none" xmlns="http://www.w3.org/2000/svg">
<path d="M11.3642 18.5255C11.3642 21.2057 6.6344 22.3882 4.03303 20.4963C3.24473 19.9445 2.85059 19.235 2.85059 18.5255C2.85059 17.8161 3.24473 17.1854 3.63888 16.8701C3.9542 17.2643 5.21547 19.0773 5.68844 19.6291C6.39791 20.4963 7.73801 20.4963 8.44747 19.6291C8.68396 19.3138 9.39342 18.4467 10.1029 17.5008C10.2605 17.2643 10.4182 17.1066 10.5759 16.8701C11.1277 17.2643 11.3642 17.8949 11.3642 18.5255Z" fill="#EA5858"/>
<path d="M7.10761 0C3.24497 0 0.0917969 3.15318 0.0917969 7.01581C0.0917969 9.45953 2.77199 13.7163 5.05805 16.7907C6.004 18.0519 6.63463 18.8402 6.63463 18.919C6.87112 19.2344 7.3441 19.2344 7.50176 18.919C7.50176 18.919 8.21122 18.0519 9.07834 16.7907C11.3644 13.7163 14.0446 9.45953 14.0446 7.01581C14.1234 3.15318 10.9702 0 7.10761 0ZM7.10761 3.70498C8.92068 3.70498 10.4184 5.20274 10.4184 7.01581C10.4184 8.82889 8.92068 10.3266 7.10761 10.3266C5.29453 10.3266 3.79677 8.82889 3.79677 7.01581C3.79677 5.20274 5.29453 3.70498 7.10761 3.70498Z" fill="white"/>
</svg>
