<svg width="17" height="19" viewBox="0 0 17 19" fill="none" xmlns="http://www.w3.org/2000/svg">
<path d="M8.5 8.5C10.8472 8.5 12.75 6.59721 12.75 4.25C12.75 1.90279 10.8472 0 8.5 0C6.15279 0 4.25 1.90279 4.25 4.25C4.25 6.59721 6.15279 8.5 8.5 8.5Z" fill="#EA5858"/>
<path d="M17 18.0625V13.8125C17 13.175 16.6813 12.5375 16.15 12.1125C14.9813 11.1562 13.4938 10.5188 12.0063 10.0938C10.9438 9.775 9.775 9.5625 8.5 9.5625C7.33125 9.5625 6.1625 9.775 4.99375 10.0938C3.50625 10.5188 2.01875 11.2625 0.85 12.1125C0.31875 12.5375 0 13.175 0 13.8125V18.0625H17Z" fill="white"/>
</svg>
