<svg width="308" height="732" viewBox="0 0 308 732" fill="none" xmlns="http://www.w3.org/2000/svg">
<path d="M297.459 73.3362C295.34 76.697 289.669 77.5752 287.217 77.632C288.963 78.6954 290.631 83.2672 290.078 86.6241C293.909 82.8016 299.081 82.9414 300.974 83.5469C296.647 79.1342 296.76 77.1511 297.459 73.3362Z" fill="#FFCC00"/>
<path d="M272.163 89.7191C272.489 92.5044 269.762 95.4999 268.439 96.6179C269.87 96.4283 272.812 98.2015 273.996 100.291C274.407 96.4928 277.311 94.278 278.619 93.772C274.287 93.2645 273.47 92.1248 272.163 89.7191Z" fill="#FFCC00"/>
<path fill-rule="evenodd" clip-rule="evenodd" d="M298.582 70.724C298.183 71.3807 297.747 71.9739 297.282 72.5089C296.192 74.8315 296.068 78.7755 300.43 83.9758C300.61 84.1908 300.566 84.476 300.332 84.6128C300.254 84.6581 300.165 84.6814 300.075 84.6846C299.951 84.8722 299.712 84.9542 299.494 84.8689C298.145 84.3426 296.009 83.913 294.003 84.317C292.031 84.7142 290.178 85.9129 289.279 88.6933C289.194 88.9572 288.914 89.0972 288.655 89.0059C288.531 88.9621 288.434 88.8731 288.376 88.7632C288.366 88.7596 288.356 88.7558 288.345 88.7518C288.047 88.6326 287.895 88.3801 288.007 88.1877C288.636 87.0982 289.205 85.7463 288.827 83.8789C288.459 82.0598 287.182 79.7076 284.066 76.5932C283.912 76.5498 283.767 76.5034 283.632 76.4545C283.372 76.3605 283.238 76.0738 283.332 75.8141C283.426 75.5545 283.713 75.4202 283.972 75.5142C285.279 75.9873 287.833 76.2225 290.537 75.5107C292.526 74.9871 294.575 73.9572 296.257 72.1526C296.691 71.2081 297.278 70.4783 297.857 69.9864L297.873 69.9593C298.011 69.7201 298.317 69.6382 298.556 69.7763C298.623 69.8148 298.677 69.8663 298.718 69.9258C298.724 69.9307 298.729 69.9357 298.735 69.9409C298.946 70.1351 298.948 70.4263 298.741 70.5912C298.688 70.6327 298.635 70.677 298.582 70.724ZM285.617 76.8839C288.364 79.7731 289.591 82.0623 289.968 83.9229C290.067 84.4132 290.107 84.8712 290.1 85.2998C291.154 84.1988 292.458 83.5944 293.798 83.3245C295.6 82.9617 297.462 83.2007 298.886 83.6071C295.901 79.7199 295.28 76.4687 295.681 74.0485C294.149 75.2769 292.446 76.0423 290.792 76.4777C288.915 76.9718 287.085 77.0457 285.617 76.8839Z" fill="#151B4A"/>
<path fill-rule="evenodd" clip-rule="evenodd" d="M271.211 87.9287C271.234 88.4036 271.221 88.8607 271.174 89.2998C271.433 90.9289 272.798 93.104 277.097 94.3021C277.367 94.3774 277.492 94.6375 277.376 94.883C277.349 94.9414 277.31 94.9937 277.263 95.0385C277.24 95.2368 277.098 95.407 276.891 95.4551C275.977 95.6681 274.677 96.223 273.758 97.1687C272.864 98.0897 272.321 99.3816 272.854 101.176C272.933 101.442 272.781 101.715 272.516 101.786C272.391 101.82 272.264 101.803 272.155 101.748C271.868 101.791 271.631 101.671 271.615 101.463C271.551 100.642 271.359 99.7131 270.476 98.856C269.627 98.0331 268.109 97.246 265.34 96.7149C265.239 96.7487 265.142 96.7776 265.049 96.8017C264.782 96.871 264.509 96.7105 264.44 96.4432C264.37 96.1759 264.531 95.903 264.798 95.8337C265.654 95.6119 267.112 94.8031 268.306 93.4208C269.168 92.4221 269.879 91.1405 270.127 89.5864C270.006 88.8825 270.055 88.2381 270.196 87.7279C270.188 87.4625 270.39 87.2349 270.657 87.2141C270.74 87.2077 270.82 87.2219 270.892 87.2525C271.167 87.2991 271.327 87.5342 271.25 87.7836C271.236 87.8297 271.223 87.8781 271.211 87.9287ZM266.699 96.0701C269.099 96.621 270.558 97.3908 271.441 98.2473C271.568 98.3706 271.683 98.4951 271.786 98.6204C272.007 97.7666 272.461 97.0496 273.028 96.4661C273.768 95.7043 274.697 95.1711 275.543 94.8325C272.936 93.9003 271.475 92.5702 270.728 91.2493C270.334 92.3487 269.737 93.2931 269.062 94.0744C268.324 94.9291 267.484 95.5986 266.699 96.0701Z" fill="#151B4A"/>
<path fill-rule="evenodd" clip-rule="evenodd" d="M144.837 72.5703C143.505 72.506 141.238 72.3626 137.257 72.1116C134.991 71.9688 133.178 71.867 131.422 71.7898C125.443 71.5267 121.143 71.6076 118.532 72.1568C117.071 72.4641 116.203 72.932 116.057 73.4153C115.95 73.7696 116.446 74.5373 117.743 75.5509C124.059 74.8038 130.174 75.7482 134.012 78.0514C139.454 76.881 143.535 75.2765 144.56 73.2298C144.676 72.9991 144.767 72.7795 144.837 72.5703ZM144.999 71.7128C145.093 68.4053 138.067 68.4053 130.931 68.4053H106.128C106.453 69.1086 106.175 70.3368 105.391 72.0336C103.179 76.8195 97.3945 80.7547 87.4893 85.2625C86.4657 85.7283 85.4153 86.1939 84.1835 86.7297C92.4295 84.8433 97.2123 82.1704 102.91 81.0112C104.684 79.7887 106.24 78.9163 107.927 78.1753C110.749 76.9359 113.771 76.1156 116.771 75.679C115.764 74.7266 115.37 73.8719 115.632 73.005C115.889 72.1533 116.833 71.6451 118.476 71.2994C121.117 70.7439 125.432 70.6627 131.434 70.9268C133.192 71.0042 135.007 71.106 137.274 71.2489C141.432 71.511 143.708 71.6541 144.999 71.7128ZM103.088 68.4053H82.4027C83.0872 69.9708 83.3498 71.7063 83.082 73.3504C82.7017 75.685 80.2574 76.98 74.9325 78.531C74.4666 78.6667 72.3213 79.2731 71.766 79.4367C69.2362 80.1818 67.8887 80.7516 67.3354 81.4064C67.1045 81.6797 67.0913 81.8084 67.2554 82.0985C67.5202 82.5665 68.1641 83.1286 69.205 83.7646C72.162 85.5713 77.7925 83.6005 86.3614 78.5269C87.5727 77.8097 88.843 77.0318 90.2719 76.1362C91.5266 75.3499 96.2049 72.365 97.2514 71.7105C99.7071 70.1748 101.405 69.1917 102.735 68.5667C102.856 68.5097 102.974 68.4559 103.088 68.4053ZM81.77 68.4053H73.8597C71.4261 68.4053 68.0545 68.4053 64.0834 68.4158C61.2994 70.9742 60.5854 74.1188 61.35 78.148C61.6715 79.8418 62.1888 81.5004 63.1129 84.0133C64.0376 86.528 64.5199 87.8538 64.7942 88.7779C71.0777 88.7198 76.1264 88.2228 80.3414 87.4977C81.4544 87.0186 82.795 86.4427 83.0683 86.3247C84.7513 85.5981 86.0821 85.0121 87.3701 84.4259C97.1547 79.973 102.902 76.0632 105.019 71.4839C105.781 69.8349 105.903 69.0415 105.648 68.8231C105.287 68.5138 104.34 68.7045 102.858 69.4015C101.544 70.0192 99.8554 70.9966 97.411 72.5253C96.3664 73.1786 91.6882 76.1634 90.4318 76.9508C89.0004 77.8479 87.7276 78.6274 86.5133 79.3463C77.8296 84.4879 72.1496 86.4761 69.0487 84.5814C67.9423 83.9054 67.2477 83.299 66.9157 82.7121C66.5185 82.0101 66.5973 81.2447 67.0687 80.6867C67.7061 79.9323 69.0676 79.3566 71.6874 78.5849C72.2447 78.4208 74.3905 77.8142 74.8548 77.679C79.8556 76.2224 82.324 74.9146 82.6181 73.1092C82.8672 71.5805 82.5474 69.9024 81.77 68.4053ZM63.1044 68.4186C59.8665 68.4283 56.2658 68.4453 52.4733 68.4748C49.4074 71.8207 49.1582 77.6727 51.4353 83.9304C52.0367 85.583 52.7626 87.1096 53.5714 88.4606C53.9722 88.4856 54.3743 88.5091 54.7779 88.5313C58.2142 88.7196 61.3562 88.7966 64.2414 88.7819C63.9618 87.9057 63.5026 86.645 62.7091 84.4873C61.7638 81.9166 61.2308 80.2078 60.8925 78.4253C60.1246 74.3787 60.7348 71.064 63.1044 68.4186ZM51.6088 68.4818C47.9287 68.512 44.0824 68.5543 40.2228 68.6133C39.6451 69.8179 39.6735 71.148 40.3491 72.637C41.6329 75.4664 42.355 77.3483 42.6366 78.6391C42.9579 80.1121 42.7202 81.0542 41.9511 81.328C41.3624 81.5376 40.4545 81.398 38.8686 80.9203C38.3411 80.7614 34.8607 79.6143 33.6558 79.2509C33.3932 79.1717 33.1337 79.095 32.876 79.0205C30.2301 78.2558 26.8585 76.3307 18.8821 71.3245L18.7672 71.2524C17.6368 70.5428 16.6111 69.9017 15.6751 69.3211C11.5521 69.5288 7.99699 69.7836 5.35364 70.0962C9.0146 74.839 15.5821 78.883 23.6042 81.6263C32.2489 84.5824 41.1548 85.4504 45.1303 83.7532C47.928 82.5589 49.4305 83.5779 49.4305 86.8876C49.4305 87.2746 49.409 87.6931 49.366 88.1435C50.5145 88.2452 51.6762 88.3356 52.8504 88.4141C52.1694 87.1889 51.5544 85.8411 51.0303 84.4009C48.7695 78.1879 48.8793 72.1883 51.6088 68.4818ZM39.6221 68.6226C31.6733 68.7477 23.7012 68.9447 17.0379 69.2551C17.6336 69.6268 18.2624 70.0205 18.9274 70.4379L19.0422 70.51C26.9815 75.493 30.349 77.4157 32.9531 78.1684C33.212 78.2432 33.4725 78.3202 33.7362 78.3997C34.9459 78.7645 38.4262 79.9117 38.9489 80.0691C40.4734 80.5283 41.3475 80.6627 41.8567 80.4814C42.3122 80.3193 42.4046 79.9529 42.1864 78.9526C41.9289 77.7718 41.2268 75.9421 39.9739 73.1806C39.2254 71.5311 39.1385 69.9926 39.6221 68.6226ZM4.62018 70.1876C3.01926 70.3978 1.81654 70.6328 1.10619 70.8955C-5.24883 73.246 16.4529 85.1298 48.8804 88.0997C48.9251 87.6602 48.9474 87.2561 48.9474 86.8876C48.9474 84.2995 47.7816 83.5089 45.2426 84.5928C41.1848 86.3251 32.2199 85.4514 23.5134 82.4741C15.0975 79.5962 8.26736 75.3035 4.62018 70.1876ZM104.826 80.6871C106.007 80.5285 107.243 80.4395 108.568 80.438C112.786 80.4333 117.466 80.2204 122.023 79.7965C120.025 78.2576 117.921 76.6291 117.676 76.4397C114.417 76.8295 111.106 77.668 108.042 79.0136C106.948 79.4941 105.909 80.0315 104.826 80.6871ZM123.108 79.6913C126.545 79.3446 129.885 78.8766 132.874 78.286C129.327 76.5835 124.155 75.8406 118.747 76.3274C119.797 77.1393 121.581 78.5172 123.108 79.6913Z" fill="#D6DCFF"/>
<path fill-rule="evenodd" clip-rule="evenodd" d="M84.1655 20.7239L87.342 17.535L93.3483 9.95741L91.0565 4.30339C91.725 3.81632 92.6617 3.96337 93.1488 4.63184C93.1899 4.68832 93.2271 4.7476 93.2599 4.80927L94.1779 6.53132L95.395 1.67658C95.4947 1.27889 95.8521 1 96.2621 1C96.6143 1 96.8998 1.28548 96.8998 1.63764C96.8998 1.6567 96.8989 1.67574 96.8972 1.69472L96.5396 5.67311L97.2863 4.33038C97.7768 3.44844 98.8893 3.13107 99.7712 3.62151C100.01 3.75442 100.216 3.93929 100.374 4.16247C101.393 5.60101 101.462 7.50664 100.549 9.01475L90.0041 26.4434L84.1655 20.7239Z" fill="white" stroke="#4A4A4A" stroke-linejoin="round"/>
<path d="M94.1782 6.53101L97.0123 9.18583" stroke="#4A4A4A" stroke-linecap="round"/>
<path fill-rule="evenodd" clip-rule="evenodd" d="M59.9741 23.6045L56.7977 20.4156L50.7914 12.838L53.0832 7.18401C52.4147 6.69694 51.478 6.84399 50.9909 7.51245C50.9497 7.56893 50.9126 7.62822 50.8797 7.68989L49.9617 9.41194L48.7447 4.5572C48.645 4.15951 48.2875 3.88062 47.8775 3.88062C47.5254 3.88062 47.2399 4.1661 47.2399 4.51826C47.2399 4.53731 47.2407 4.55636 47.2425 4.57534L47.6 8.55373L46.8533 7.211C46.3629 6.32906 45.2504 6.01169 44.3684 6.50212C44.1294 6.63503 43.9233 6.8199 43.7653 7.04309C42.7466 8.48162 42.678 10.3873 43.5904 11.8954L54.1356 29.324L59.9741 23.6045Z" fill="white" stroke="#4A4A4A" stroke-linejoin="round"/>
<path d="M49.9614 9.41162L47.1273 12.0664" stroke="#4A4A4A" stroke-linecap="round"/>
<path fill-rule="evenodd" clip-rule="evenodd" d="M100.255 56.2631L106.798 58.1457L124.105 61.2994L128.626 54.7232C128.242 53.341 128.508 52.6499 129.425 52.6499C130.801 52.6499 131.154 54.3805 130.713 56.2631C130.419 57.5181 129.99 60.7591 129.425 65.986C128.99 68.2342 127.548 69.1232 125.099 68.653C123.927 68.3753 123.089 68.0469 122.585 67.6676C115.084 68.4398 110.3 68.4398 108.233 67.6676C105.133 66.5093 100.504 68.2359 98.1581 67.6676C96.5945 67.2887 97.2934 63.4872 100.255 56.2631Z" fill="white" stroke="#4A4A4A" stroke-linejoin="round"/>
<path d="M124.316 65.1162C125.175 65.6301 125.947 65.6301 126.632 65.1162" stroke="#4A4A4A" stroke-linecap="round"/>
<path fill-rule="evenodd" clip-rule="evenodd" d="M45.5294 56.2631L38.986 58.1457L21.6792 61.2994L17.1586 54.7232C17.5426 53.341 17.276 52.6499 16.3589 52.6499C14.9832 52.6499 14.6301 54.3805 15.0714 56.2631C15.3655 57.5181 15.7947 60.7591 16.3589 65.986C16.7939 68.2342 18.2361 69.1232 20.6854 68.653C21.8568 68.3753 22.6947 68.0469 23.1993 67.6676C30.6999 68.4398 35.4837 68.4398 37.5507 67.6676C40.6512 66.5093 45.2806 68.2359 47.6261 67.6676C49.1897 67.2887 48.4908 63.4872 45.5294 56.2631Z" fill="white" stroke="#4A4A4A" stroke-linejoin="round"/>
<path d="M21.4697 65.1167C20.6113 65.6306 19.8394 65.6306 19.1539 65.1167" stroke="#4A4A4A" stroke-linecap="round"/>
<path fill-rule="evenodd" clip-rule="evenodd" d="M58.0988 49.7747L57.7882 52.6284L41.2349 55.7669C42.9908 56.7996 44.1535 58.4588 44.7231 60.7446C45.2926 63.0304 44.4137 65.621 42.0863 68.5164L70.9114 67.8703L100.958 68.5164C98.8383 64.4851 99.3471 60.2352 102.484 55.7669L87.7637 51.7552L86.6221 49.7747H58.0988Z" fill="#FF9B6D"/>
<path fill-rule="evenodd" clip-rule="evenodd" d="M57.9394 20.9349C55.1215 25.5254 53.4172 28.3795 52.8267 29.4972L57.9394 35.9453C57.6141 42.2881 57.6141 47.0431 57.9394 50.2101H87.5485L85.8644 32.4023L91.7743 27.2393L84.3873 19.6726L76.785 25.8678L65.2968 27.7247L57.9394 20.9349Z" fill="#FFDC84"/>
<path fill-rule="evenodd" clip-rule="evenodd" d="M78.0633 16.7969C78.4327 16.7969 80.6517 15.7912 81.4821 17.7596C82.3125 19.7279 80.2764 21.8439 77.6378 20.9302C76.9586 22.7579 76.5208 25.0744 76.3243 27.8797C73.0837 31.3923 70.2021 32.7521 67.6796 31.9588C65.1571 31.1656 64.6362 29.0988 66.1169 25.7586" fill="white"/>
<path d="M78.0633 16.7969C78.4327 16.7969 80.6517 15.7912 81.4821 17.7596C82.3125 19.7279 80.2764 21.8439 77.6378 20.9302C76.9586 22.7579 76.5208 25.0744 76.3243 27.8797C73.0837 31.3923 70.2021 32.752 67.6796 31.9588C65.1571 31.1656 64.6362 29.0988 66.1169 25.7586" stroke="#4A4A4A" stroke-linejoin="round"/>
<path fill-rule="evenodd" clip-rule="evenodd" d="M78.7891 12.5205L77.637 6.53084C74.1601 3.69357 70.6777 2.61264 67.1899 3.28807C61.9583 4.30121 61.2937 9.26398 58.9225 12.4218C56.5514 15.5797 56.5889 21.2053 62.9132 24.3837C67.1295 26.5025 71.0773 26.1717 74.7568 23.391" fill="white"/>
<path d="M78.7891 12.5205L77.637 6.53084C74.1601 3.69357 70.6777 2.61264 67.1899 3.28807C61.9583 4.30121 61.2937 9.26398 58.9225 12.4218C56.5514 15.5797 56.5889 21.2053 62.9132 24.3837C67.1295 26.5025 71.0773 26.1717 74.7568 23.391" stroke="#4A4A4A" stroke-linecap="round"/>
<path d="M68.2754 13.7217C69.7035 13.3118 70.6951 13.6791 71.2504 14.8235" stroke="#4A4A4A" stroke-linecap="round"/>
<path d="M60.9619 9.60793C62.39 9.19805 63.3816 9.56533 63.9369 10.7098" stroke="#4A4A4A" stroke-linecap="round"/>
<path d="M70.3066 11.187L71.7119 12.5211" stroke="#4A4A4A" stroke-linecap="round"/>
<path d="M64.0845 7.85645L62.0786 7.9495" stroke="#4A4A4A" stroke-linecap="round"/>
<path d="M61.3946 19.7955C63.2063 18.6321 64.5922 18.7392 65.5525 20.1168" stroke="#4A4A4A" stroke-linecap="round"/>
<path d="M63.9371 14.5242C63.0732 14.6799 62.7435 15.0782 62.9478 15.7191" stroke="#4A4A4A" stroke-linecap="round"/>
<path fill-rule="evenodd" clip-rule="evenodd" d="M69.4632 3.15181C66.9033 4.52648 65.7877 4.52648 66.1161 3.15181C66.4445 1.77713 67.5602 1.44623 69.4632 2.1591C74.1131 1.70935 77.4182 2.94582 79.3785 5.86852C81.3389 8.79121 81.3389 12.1565 79.3785 15.9643C78.5226 16.4767 77.9421 16.6687 77.6369 16.5405C75.1719 15.5047 73.5807 13.0052 72.2432 11.2769C70.6573 9.22763 69.7306 6.51926 69.4632 3.15181Z" fill="#4B4745"/>
<path d="M77.6372 18.845L79.9414 18.2688" stroke="#4A4A4A" stroke-linecap="round"/>
<path fill-rule="evenodd" clip-rule="evenodd" d="M110.877 720.004C109.877 719.957 108.172 719.853 105.179 719.67C103.476 719.566 102.113 719.492 100.793 719.436C96.2987 719.244 93.0662 719.303 91.1037 719.703C90.0054 719.926 89.3527 720.267 89.2428 720.619C89.1623 720.876 89.5352 721.435 90.5102 722.173C95.2581 721.629 99.8549 722.316 102.74 723.992C106.831 723.141 109.899 721.973 110.669 720.484C110.756 720.316 110.825 720.156 110.877 720.004ZM110.999 719.38C111.07 716.973 105.788 716.973 100.424 716.973H81.7787C82.0231 717.484 81.8145 718.378 81.225 719.613C79.5624 723.096 75.2138 725.96 67.7678 729.24C66.9983 729.579 66.2087 729.918 65.2828 730.308C71.4815 728.935 75.0769 726.99 79.36 726.146C80.6934 725.257 81.8633 724.622 83.1314 724.083C85.2528 723.181 87.5243 722.584 89.7799 722.266C89.0223 721.573 88.7263 720.951 88.9233 720.32C89.1169 719.7 89.8258 719.33 91.0612 719.079C93.0466 718.675 96.2904 718.615 100.802 718.808C102.124 718.864 103.488 718.938 105.192 719.042C108.318 719.233 110.029 719.337 110.999 719.38ZM79.4939 716.973H63.9441C64.4586 718.112 64.6561 719.375 64.4547 720.571C64.1689 722.27 62.3314 723.213 58.3286 724.341C57.9783 724.44 56.3657 724.881 55.9482 725.001C54.0466 725.543 53.0336 725.957 52.6177 726.434C52.4441 726.633 52.4342 726.726 52.5575 726.938C52.7566 727.278 53.2406 727.687 54.0231 728.15C56.2459 729.465 60.4785 728.031 66.9199 724.338C67.8305 723.817 68.7854 723.25 69.8595 722.599C70.8027 722.026 74.3196 719.854 75.1062 719.378C76.9522 718.26 78.2288 717.545 79.2282 717.09C79.3193 717.049 79.4079 717.01 79.4939 716.973ZM63.4685 716.973H57.5221C55.6927 716.973 53.1582 716.973 50.173 716.98C48.0803 718.842 47.5435 721.131 48.1183 724.063C48.3599 725.295 48.7488 726.502 49.4435 728.331C50.1386 730.161 50.5012 731.126 50.7074 731.798C55.4309 731.756 59.2261 731.394 62.3946 730.867C63.2313 730.518 64.239 730.099 64.4444 730.013C65.7096 729.484 66.71 729.058 67.6782 728.631C75.0336 725.391 79.3542 722.546 80.945 719.213C81.5179 718.013 81.6101 717.436 81.4182 717.277C81.1465 717.052 80.4352 717.19 79.3207 717.698C78.333 718.147 77.0637 718.858 75.2262 719.971C74.441 720.446 70.9243 722.618 69.9797 723.192C68.9038 723.844 67.9469 724.412 67.0341 724.935C60.5064 728.676 56.2366 730.123 53.9056 728.744C53.0739 728.253 52.5517 727.811 52.3021 727.384C52.0036 726.873 52.0628 726.316 52.4171 725.91C52.8963 725.361 53.9198 724.942 55.8892 724.381C56.3081 724.261 57.9211 723.82 58.2701 723.721C62.0294 722.661 63.885 721.71 64.1061 720.396C64.2933 719.283 64.0529 718.062 63.4685 716.973ZM49.4371 716.982C47.0031 716.989 44.2964 717.002 41.4454 717.023C39.1407 719.458 38.9534 723.717 40.6652 728.271C41.1173 729.473 41.6629 730.584 42.2709 731.568C42.5722 731.586 42.8745 731.603 43.1778 731.619C45.7611 731.756 48.123 731.812 50.2918 731.801C50.0816 731.164 49.7364 730.246 49.14 728.676C48.4293 726.805 48.0287 725.562 47.7744 724.264C47.1971 721.32 47.6559 718.908 49.4371 716.982ZM40.7956 717.028C38.0291 717.05 35.1378 717.081 32.2364 717.124C31.8022 718.001 31.8236 718.969 32.3314 720.052C33.2965 722.111 33.8393 723.481 34.0509 724.42C34.2925 725.492 34.1138 726.178 33.5357 726.377C33.0931 726.529 32.4106 726.428 31.2185 726.08C30.8219 725.965 28.2056 725.13 27.2999 724.865C27.1025 724.808 26.9074 724.752 26.7137 724.698C24.7247 724.141 22.1902 722.74 16.1942 719.097L16.1078 719.045C15.258 718.528 14.487 718.062 13.7833 717.639C10.684 717.79 8.01154 717.976 6.02447 718.203C8.7765 721.655 13.7134 724.598 19.7439 726.594C26.2423 728.745 32.937 729.377 35.9256 728.142C38.0286 727.273 39.1581 728.014 39.1581 730.423C39.1581 730.704 39.142 731.009 39.1096 731.337C39.973 731.411 40.8463 731.477 41.7289 731.534C41.217 730.642 40.7547 729.661 40.3607 728.613C38.6612 724.092 38.7438 719.726 40.7956 717.028ZM31.7849 717.131C25.8096 717.222 19.8167 717.365 14.8078 717.591C15.2556 717.862 15.7283 718.148 16.2282 718.452L16.3145 718.504C22.2826 722.131 24.8141 723.53 26.7717 724.078C26.9663 724.132 27.1621 724.188 27.3603 724.246C28.2697 724.511 30.8859 725.346 31.2789 725.461C32.4248 725.795 33.0819 725.893 33.4647 725.761C33.8071 725.643 33.8766 725.376 33.7126 724.648C33.519 723.789 32.9912 722.457 32.0493 720.448C31.4867 719.247 31.4214 718.128 31.7849 717.131ZM5.4731 718.27C4.26965 718.423 3.36555 718.594 2.83155 718.785C-1.94567 720.495 14.3681 729.144 38.7446 731.305C38.7782 730.985 38.7949 730.691 38.7949 730.423C38.7949 728.539 37.9186 727.964 36.01 728.753C32.9596 730.013 26.2205 729.378 19.6756 727.211C13.3492 725.117 8.21478 721.993 5.4731 718.27ZM80.8001 725.911C81.688 725.795 82.6172 725.73 83.6134 725.729C86.7838 725.726 90.3019 725.571 93.728 725.262C92.2257 724.142 90.6438 722.957 90.4597 722.82C88.01 723.103 85.5211 723.713 83.2181 724.693C82.3957 725.042 81.6141 725.433 80.8001 725.911ZM94.5436 725.186C97.1273 724.934 99.638 724.593 101.884 724.163C99.2183 722.924 95.3305 722.384 91.2649 722.738C92.0543 723.329 93.3952 724.331 94.5436 725.186Z" fill="#D6DCFF"/>
<path fill-rule="evenodd" clip-rule="evenodd" d="M19.0371 625.685C19.6905 627.136 28.6419 629.703 35.3776 630.864C39.868 631.639 41.1615 626.926 39.258 616.727H33.9649L33.0446 625.685C23.2708 624.718 18.6016 624.718 19.0371 625.685Z" fill="white" stroke="#4A4A4A" stroke-linecap="round"/>
<path fill-rule="evenodd" clip-rule="evenodd" d="M43.8398 690.866C47.173 701.95 48.6048 708.12 48.1353 709.375C47.431 711.259 40.8639 713.916 39.4301 714.489C37.9963 715.063 36.4775 714.628 37.3709 715.897C38.2643 717.166 40.4151 716.643 42.1275 716.643C43.8398 716.643 48.9935 716.115 51.1842 716.643C53.3749 717.171 55.8303 716.643 55.8303 714.489C55.8303 712.335 54.0009 709.949 53.3749 705.644C52.7488 701.339 53.0059 693.135 52.095 689.928C51.4878 687.79 48.7361 688.103 43.8398 690.866Z" fill="white" stroke="#4A4A4A" stroke-linecap="round"/>
<path fill-rule="evenodd" clip-rule="evenodd" d="M44.5943 715.461C43.6532 713.476 42.7092 712.484 41.7622 712.484L39.0157 714.171C40.2973 715.567 40.9381 716.454 40.9381 716.833C40.9381 717.185 39.5637 717.21 36.815 716.908L36.815 716.908C36.4916 716.872 36.2007 717.106 36.1652 717.429C36.1628 717.45 36.1616 717.472 36.1616 717.493C36.1616 717.858 36.4573 718.154 36.822 718.154H56.7086C57.0733 718.154 57.369 717.858 57.369 717.493C57.369 717.116 57.0878 716.798 56.7136 716.752L54.1804 716.44H45.0422L44.5943 715.461Z" fill="#FF9B6D"/>
<path d="M52.3032 710.033C52.3988 711.194 52.0363 712.011 51.2158 712.484" stroke="#4A4A4A" stroke-linecap="round"/>
<path fill-rule="evenodd" clip-rule="evenodd" d="M70.2195 690.773C75.7843 700.922 78.4676 706.66 78.2693 707.985C77.972 709.974 72.1008 713.938 70.8176 714.797C69.5344 715.657 67.9583 715.547 69.096 716.602C70.2338 717.658 72.229 716.7 73.9039 716.344C75.5789 715.988 80.5101 714.4 82.7627 714.461C85.0153 714.521 87.3073 713.495 86.8594 711.388C86.4116 709.281 84.1261 707.327 82.6187 703.246C81.1112 699.165 79.657 691.087 78.0993 688.14C77.0608 686.175 74.4342 687.053 70.2195 690.773Z" fill="white" stroke="#4A4A4A" stroke-linecap="round"/>
<path d="M82.4815 707.762C82.8165 708.878 82.6318 709.753 81.9276 710.386" stroke="#4A4A4A" stroke-linecap="round"/>
<path fill-rule="evenodd" clip-rule="evenodd" d="M34.9513 633.913C34.6317 642.892 34.8714 650.944 35.6705 658.068C36.4697 665.193 38.7676 681.166 42.5642 705.989H57.8027L51.2281 661.763L51.0368 653.086C55.3357 660.727 57.8271 665.541 58.5113 667.527C59.1954 669.513 64.4291 682.333 74.2123 705.989H88.7847C76.415 672.042 69.6929 653.691 68.6184 650.937C68.2738 644.127 66.5759 638.452 63.5248 633.913H34.9513Z" fill="#1D70D3"/>
<path fill-rule="evenodd" clip-rule="evenodd" d="M76.3867 713.765C74.8507 712.195 73.635 711.564 72.7396 711.872L70.692 714.362C72.358 715.264 73.2528 715.894 73.3762 716.253C72.2407 717.13 70.7243 717.443 68.827 717.189L68.827 717.189C68.5753 717.156 68.3441 717.332 68.3105 717.584C68.3043 717.63 68.3052 717.677 68.313 717.723C68.3791 718.107 68.6975 718.398 69.0863 718.428C71.5157 718.619 74.1698 718.087 77.0484 716.833C79.0855 716.132 81.4183 716.132 84.8994 715.319C85.4313 715.195 86.4466 714.841 87.9454 714.257C88.1502 714.177 88.2557 713.95 88.1846 713.742C88.1132 713.533 87.8918 713.416 87.6789 713.474L84.4252 714.362L77.0484 715.671L76.3867 713.765Z" fill="#FF9B6D"/>
<path fill-rule="evenodd" clip-rule="evenodd" d="M46.2851 594.666C40.9691 595.398 37.5515 596.984 36.0324 599.423C34.5134 601.863 32.4279 607.407 29.7759 616.057L36.0324 616.791C34.9212 627.3 34.6434 633.006 35.199 633.908C36.0324 635.261 60.1883 635.177 62.975 635.177C64.8329 635.177 65.318 628.804 64.4303 616.057H72.2992C70.706 607.407 69.1349 601.863 67.5859 599.423C66.0369 596.984 61.3457 595.398 53.5125 594.666H46.2851Z" fill="#FF9B6D"/>
<path fill-rule="evenodd" clip-rule="evenodd" d="M40.2226 579.565C40.2226 579.565 36.7627 578.804 37.916 582.403C38.6849 584.802 39.8554 585.344 41.4275 584.029L44.2436 588.358C44.825 592.423 44.6508 594.799 43.7208 595.487C44.6199 597.971 47.0148 600.965 51.0706 600.211C53.7745 599.708 55.1439 598.369 55.1789 596.194C53.6504 595.709 52.8862 594.045 52.8862 591.203" fill="white"/>
<path d="M40.2226 579.565C40.2226 579.565 36.7627 578.804 37.916 582.403C38.6849 584.802 39.8554 585.344 41.4275 584.029L44.2436 588.358C44.825 592.423 44.6508 594.799 43.7208 595.487C44.6199 597.971 47.0148 600.965 51.0706 600.211C53.7745 599.708 55.1439 598.369 55.1789 596.194C53.6504 595.709 52.8862 594.045 52.8862 591.203" stroke="#4A4A4A" stroke-linecap="round"/>
<path d="M41.0142 582.415L39.3477 581.582" stroke="#4A4A4A" stroke-linecap="round"/>
<path fill-rule="evenodd" clip-rule="evenodd" d="M40.1807 579.096L43.5643 567.684L59.762 572.416C59.762 575.953 59.762 579.219 59.762 582.213C59.762 586.704 58.9317 590.426 54.2302 591.043C51.0958 591.454 48.3569 590.817 46.0134 589.132" fill="white"/>
<path d="M40.1807 579.096L43.5643 567.684L59.762 572.416C59.762 575.953 59.762 579.219 59.762 582.213C59.762 586.704 58.9317 590.426 54.2302 591.043C51.0958 591.454 48.3569 590.817 46.0134 589.132" stroke="#4A4A4A" stroke-linecap="round"/>
<path fill-rule="evenodd" clip-rule="evenodd" d="M41.2229 565.621C38.2726 566.581 36.9714 568.642 37.3192 571.804C37.667 574.966 38.1658 577.53 38.8158 579.496L40.3768 579.563C40.7599 581.179 41.238 581.572 41.8113 580.742C42.6711 579.496 42.48 576.772 42.6711 574.944C44.4527 575.216 45.759 574.193 46.5693 571.804C48.1347 573.815 52.3489 575.105 52.3489 573.974C54.5266 574.857 59.9193 576.051 59.9193 572.468C62.1264 572.635 63.5832 569.518 60.4884 566.882C57.3937 564.245 50.392 561.384 46.1016 562.116C43.2414 562.604 41.6151 563.772 41.2229 565.621Z" fill="#4B4745"/>
<path d="M56.7675 581.209C56.4923 581.53 56.4923 581.932 56.7675 582.415C57.1803 583.138 57.9169 583.532 56.6643 583.968" stroke="#4A4A4A" stroke-linecap="round"/>
<path fill-rule="evenodd" clip-rule="evenodd" d="M56.1006 585.663C53.2619 585.529 51.3554 585.378 50.381 585.211C50.5625 587.012 51.5612 587.979 53.3769 588.114C55.1927 588.248 56.1006 587.431 56.1006 585.663Z" fill="#D6DCFF"/>
<path d="M28.5654 627.632C36.8488 627.632 43.5638 620.917 43.5638 612.634C43.5638 604.35 36.8488 597.635 28.5654 597.635C20.2819 597.635 13.5669 604.35 13.5669 612.634C13.5669 620.917 20.2819 627.632 28.5654 627.632Z" fill="#FFDC84"/>
<path fill-rule="evenodd" clip-rule="evenodd" d="M70.5794 615.998C70.1991 624.386 67.9919 628.932 63.9579 629.635C59.9238 630.339 50.7113 630.339 36.3204 629.635C32.141 629.118 29.4149 628.41 28.142 627.512C26.2327 626.166 27.7651 626.21 31.3419 626.21C33.7264 626.21 35.3859 626.21 36.3204 626.21C34.0284 624.501 33.6152 623.458 35.0809 623.08C37.2793 622.514 38.6173 625.186 40.1492 625.698C41.1704 626.039 48.7669 624.508 62.9386 621.103V615.998" fill="white"/>
<path d="M70.5794 615.998C70.1991 624.386 67.9919 628.932 63.9579 629.635C59.9238 630.339 50.7113 630.339 36.3204 629.635C32.141 629.118 29.4149 628.41 28.142 627.512C26.2327 626.166 27.7651 626.21 31.3419 626.21C33.7264 626.21 35.3859 626.21 36.3204 626.21C34.0284 624.501 33.6152 623.458 35.0809 623.08C37.2793 622.514 38.6173 625.186 40.1492 625.698C41.1704 626.039 48.7669 624.508 62.9386 621.103V615.998" stroke="#4A4A4A" stroke-linecap="round"/>
<path fill-rule="evenodd" clip-rule="evenodd" d="M282.565 680.757C282.417 681.238 282.238 681.688 282.032 682.107C281.706 683.809 282.276 686.44 286.078 689.156C286.307 689.319 286.335 689.606 286.142 689.797C286.095 689.844 286.038 689.881 285.977 689.907C285.889 690.089 285.695 690.203 285.483 690.177C284.505 690.06 283.024 690.141 281.778 690.745C280.563 691.334 279.563 692.417 279.445 694.38C279.428 694.657 279.193 694.863 278.919 694.839C278.79 694.828 278.676 694.768 278.592 694.679C278.302 694.624 278.117 694.428 278.174 694.226C278.405 693.393 278.548 692.409 277.984 691.246C277.441 690.128 276.222 688.806 273.676 687.289C273.565 687.287 273.459 687.28 273.359 687.271C273.084 687.245 272.883 687.001 272.909 686.726C272.935 686.451 273.179 686.249 273.454 686.275C274.38 686.363 276.107 686.088 277.778 685.153C278.987 684.477 280.149 683.466 280.951 682.019C281.082 681.285 281.36 680.671 281.679 680.222C281.761 679.968 282.03 679.821 282.289 679.893C282.37 679.915 282.44 679.956 282.497 680.009C282.741 680.147 282.811 680.423 282.654 680.632C282.624 680.671 282.594 680.713 282.565 680.757ZM275.183 687.152C277.368 688.559 278.535 689.843 279.099 691.004C279.188 691.187 279.262 691.367 279.322 691.543C279.845 690.764 280.555 690.211 281.332 689.835C282.349 689.342 283.475 689.152 284.438 689.128C282.156 687.25 281.19 685.391 280.94 683.809C280.154 684.766 279.22 685.492 278.266 686.026C277.217 686.612 276.133 686.972 275.183 687.152Z" fill="#151B4A"/>
</svg>
