<svg width="661" height="954" viewBox="0 0 661 954" fill="none" xmlns="http://www.w3.org/2000/svg">
<path d="M661 885.684V0H0V883.921C224.211 1007.65 534.675 937.237 661 885.684Z" fill="#FFF6CC"/>
<mask id="mask0_230_126" style="mask-type:alpha" maskUnits="userSpaceOnUse" x="11" y="709" width="234" height="237">
<path d="M233.554 817.456C235.327 878.756 291.85 980.948 125.973 933.115C9.64304 899.57 13.6607 885.187 11.888 823.887C10.1154 762.588 58.3002 711.455 119.512 709.679C180.724 707.903 231.782 756.156 233.554 817.456Z" fill="#C4C4C4"/>
</mask>
<g mask="url(#mask0_230_126)">
<path fill-rule="evenodd" clip-rule="evenodd" d="M181.651 789.653C178.649 806.411 176.736 816.136 175.911 818.829C171.654 832.702 163.111 828.154 162.837 821.381C162.655 816.866 166.555 805.58 174.539 787.523C173.834 784.414 173.526 781.714 173.616 779.423C173.692 777.48 173.741 775.696 173.764 774.072C173.77 773.607 174.163 773.246 174.643 773.264C174.648 773.264 174.654 773.264 174.661 773.264C175.186 773.295 175.634 773.66 175.756 774.158L176.869 778.679L179.217 769.387C179.333 768.927 179.787 768.632 180.275 768.699C180.737 768.763 181.067 769.177 181.013 769.624C181.013 769.629 181.012 769.635 181.012 769.64L179.89 777.474L182.372 769.137C182.511 768.672 183.008 768.406 183.495 768.536C183.988 768.667 184.301 769.143 184.212 769.626L182.642 778.152L185.233 770.882C185.419 770.359 185.996 770.078 186.549 770.24C187.085 770.396 187.4 770.941 187.252 771.457C187.251 771.462 187.251 771.467 187.249 771.471L184.724 779.763L187.3 775.426C187.599 774.924 188.255 774.744 188.798 775.016C189.334 775.285 189.557 775.916 189.301 776.432C187.203 780.663 185.896 783.463 185.378 784.832C184.823 786.299 183.581 787.906 181.651 789.653Z" fill="white" stroke="#4B4745" stroke-width="0.75" stroke-linejoin="round"/>
<path d="M176.705 778.006C176.969 779.275 177.366 780.364 177.895 781.274C178.69 782.638 181.557 783.359 182.082 785.533" stroke="#4B4745" stroke-width="0.75"/>
<path d="M184.964 780.025C185.013 779.62 183.258 777.256 179.067 777.345" stroke="#4B4745" stroke-width="0.75"/>
<path fill-rule="evenodd" clip-rule="evenodd" d="M59.5298 784.405C63.3206 800.868 65.6985 810.408 66.6633 813.028C71.6352 826.527 80.2903 821.378 80.2971 814.616C80.3016 810.109 75.8037 799.159 66.8036 781.767C67.4059 778.621 67.6139 775.911 67.4274 773.636C67.2692 771.708 67.1456 769.936 67.056 768.321C67.0305 767.859 66.6083 767.528 66.1131 767.581C66.1069 767.581 66.1006 767.582 66.0943 767.583C65.5526 767.651 65.1039 768.048 64.9974 768.552L64.0309 773.134L61.2215 764.055C61.0824 763.606 60.6005 763.345 60.098 763.448C59.6222 763.545 59.2966 763.981 59.3709 764.422C59.3719 764.427 59.3728 764.433 59.3738 764.438L60.8549 772.154L57.9447 764.036C57.7825 763.583 57.2577 763.355 56.7583 763.52C56.254 763.686 55.9493 764.183 56.0609 764.657L58.034 773.029L55.0555 765.981C54.8417 765.475 54.233 765.237 53.6664 765.438C53.1181 765.633 52.8148 766.198 52.9889 766.701C52.9904 766.706 52.9921 766.711 52.994 766.715L55.9452 774.785L53.1021 770.655C52.7725 770.177 52.0853 770.046 51.535 770.357C50.9918 770.663 50.7855 771.307 51.0714 771.803C53.4156 775.861 54.8838 778.553 55.4762 779.878C56.1108 781.298 57.462 782.807 59.5298 784.405Z" fill="white" stroke="#4B4745" stroke-width="0.75" stroke-linejoin="round"/>
<path d="M63.9647 772.384C63.748 773.658 63.3892 774.764 62.8886 775.701C62.1375 777.107 59.2588 778.022 58.8143 780.21" stroke="#4B4745" stroke-width="0.75"/>
<path d="M55.6836 774.877C55.6178 774.485 57.279 772.061 61.4844 771.857" stroke="#4B4745" stroke-width="0.75"/>
<path fill-rule="evenodd" clip-rule="evenodd" d="M43.981 807.271C60.2752 812.698 65.6216 822.634 60.0203 837.078C66.3854 829.477 77.5268 825.663 93.4442 825.634C76.0738 820.062 65.1762 815.86 60.7519 813.029C56.3274 810.197 50.7371 808.278 43.981 807.271Z" fill="#1D70D3"/>
<path fill-rule="evenodd" clip-rule="evenodd" d="M100.395 808.199L105.936 815.057L105.358 822.354C92.2852 827.332 80.7111 826.475 70.6357 819.781C60.5603 813.088 51.5802 810.653 43.6953 812.477C44.9396 808.222 43.2716 805.738 38.6911 805.026C46.9576 804.603 55.3049 806.857 63.7334 811.789C72.1617 816.72 84.3823 815.524 100.395 808.199Z" fill="white" stroke="#1D70D3" stroke-width="0.75" stroke-linecap="round" stroke-linejoin="round"/>
<path d="M116.669 813.922C108.48 818.805 100.656 820.606 93.1947 819.323" stroke="#1D70D3" stroke-width="0.75"/>
<path fill-rule="evenodd" clip-rule="evenodd" d="M97.1072 788.879L94.0687 784.551L88.6388 774.659L92.4531 768.993C91.7756 768.285 90.6571 768.211 89.9549 768.827C89.896 768.879 89.8411 768.935 89.7906 768.994L88.374 770.664L87.9506 764.993C87.9159 764.528 87.5576 764.129 87.0815 764.025C86.6726 763.936 86.2828 764.179 86.211 764.568C86.2071 764.59 86.2042 764.611 86.2022 764.632L85.8064 769.117L85.2131 767.445C84.823 766.345 83.5952 765.713 82.4707 766.033C82.1666 766.119 81.89 766.271 81.6612 766.477C80.1851 767.808 79.7168 769.897 80.4689 771.794L89.1607 793.719L97.1072 788.879Z" fill="white" stroke="#4B4745" stroke-width="0.75" stroke-linejoin="round"/>
<path d="M88.5859 770.625L84.7896 772.822" stroke="#4B4745" stroke-width="0.75" stroke-linecap="round"/>
<path fill-rule="evenodd" clip-rule="evenodd" d="M124.656 790.305L127.301 784.856L131.618 774.477L127.505 769.122C128.162 768.372 129.293 768.221 130.032 768.784C130.094 768.831 130.152 768.883 130.206 768.939L131.715 770.496L131.9 764.843C131.915 764.379 132.261 763.958 132.74 763.822C133.151 763.706 133.557 763.92 133.646 764.301C133.651 764.322 133.655 764.343 133.658 764.364L134.253 768.785L134.782 767.085C135.131 765.967 136.349 765.255 137.504 765.494C137.816 765.559 138.103 765.69 138.344 765.879C139.886 767.087 140.4 769.136 139.637 771.03L131.351 791.607L124.656 790.305Z" fill="white" stroke="#4B4745" stroke-width="0.75" stroke-linejoin="round"/>
<path d="M131.414 770.463L135.343 772.376" stroke="#4B4745" stroke-width="0.75" stroke-linecap="round"/>
<path fill-rule="evenodd" clip-rule="evenodd" d="M117.128 782.266L118.439 791.044L106.96 800.391C101.879 798.248 98.687 796.351 97.3852 794.701C96.0834 793.05 97.4417 789.01 101.46 782.582C105.15 780.876 108.103 780 110.32 779.956C112.537 779.911 114.807 780.681 117.128 782.266Z" fill="white"/>
<path fill-rule="evenodd" clip-rule="evenodd" d="M117.572 780.656C117.572 780.656 122.152 785.673 119.373 785.771C117.52 785.836 114.766 784.573 111.111 781.984C113.205 783.914 113.225 784.915 111.174 784.987C109.122 785.059 106.972 784.719 104.725 783.966C105.08 786.968 104.534 788.844 103.086 789.595C101.638 790.347 101.328 791.878 102.157 794.189C100.283 791.971 99.1053 791.73 98.6246 793.466C95.3332 791.096 95.0199 787.801 94.9894 786.33C94.9504 784.454 95.53 783.207 96.7279 782.588C95.8738 779.721 97.3446 777.893 101.14 777.106C106.833 775.924 118.443 778.383 120.112 779.852C121.781 781.321 117.572 780.656 117.572 780.656Z" fill="#4A4B50"/>
<path fill-rule="evenodd" clip-rule="evenodd" d="M100.615 795.349L97.808 791.62L89.7504 775.464C85.2409 776.933 82.2293 778.321 80.716 779.628C84.3527 789.249 86.9851 795.743 88.6132 799.109C90.2412 802.476 92.7689 806.325 96.1962 810.657L99.4113 830.731C102.015 832.264 104.098 831.878 105.66 829.57C107.222 827.263 108.689 822.407 110.061 815.001L127.11 805.957C129.33 801.332 131.319 797.713 133.077 795.1C134.836 792.486 136.801 786.778 138.973 777.976L131.103 775.23L124.333 790.689L121.847 794.604C115.489 798.58 111.198 800.607 108.974 800.685C107.376 800.741 105.503 800.454 103.324 798.593C102.755 798.107 101.853 797.026 100.615 795.349Z" fill="#FFCC00"/>
<path fill-rule="evenodd" clip-rule="evenodd" d="M117.565 785.835C118 789.134 118.47 791.384 118.975 792.587C119.733 794.39 120.934 799.571 115.31 800.975C111.561 801.911 107.531 801.143 103.219 798.671" fill="white"/>
<path d="M117.565 785.835C118 789.134 118.47 791.384 118.975 792.587C119.733 794.39 120.934 799.571 115.31 800.975C111.561 801.911 107.531 801.143 103.219 798.671" stroke="#4B4745" stroke-width="0.75" stroke-linecap="round" stroke-linejoin="round"/>
<path fill-rule="evenodd" clip-rule="evenodd" d="M116.785 795.787L113.656 796.614C114.184 797.306 114.843 797.638 115.635 797.61C116.426 797.583 116.81 796.975 116.785 795.787Z" fill="#4B4745"/>
<path d="M114.231 790.575C114.472 791.321 115.086 791.929 116.074 792.4C117.061 792.87 116.904 793.437 115.602 794.101" stroke="#4B4745" stroke-width="0.75" stroke-linecap="round" stroke-linejoin="round"/>
<path d="M114.493 789.297C115.388 788.135 116.337 787.93 117.339 788.682" stroke="#4A4A4A" stroke-width="0.75" stroke-linecap="round"/>
<path d="M107.402 790.784C108.24 789.627 109.19 789.429 110.253 790.19" stroke="#4A4A4A" stroke-width="0.75" stroke-linecap="round"/>
<path fill-rule="evenodd" clip-rule="evenodd" d="M128.704 840.317C127.271 848.627 123.82 852.514 118.351 851.978C110.147 851.174 104.246 839.321 104.232 838.767C104.223 838.398 104.936 836.909 106.372 834.302L128.704 840.317Z" fill="white"/>
<path fill-rule="evenodd" clip-rule="evenodd" d="M144.403 897.249C145.188 933.986 145.68 956.967 145.878 966.195C146.075 975.424 146.612 1000.53 147.489 1041.52L131.997 1042.05L121.595 927.816L118.343 927.928C111.9 961.402 107.296 982.744 104.531 991.955C101.766 1001.17 96.2635 1018.37 88.0239 1043.57L71.9158 1044.13C80.186 999.773 85.3485 972.256 87.4029 961.581C89.1441 952.535 88.0706 936.605 90.5089 909.522C90.8015 906.274 92.306 900.394 95.0227 891.886L144.403 897.249Z" fill="#323443"/>
<path d="M101.162 893.673C96.7529 901.577 94.6856 911.347 94.96 922.984C95.3719 940.44 91.9686 965.273 90.1054 973.97C88.8632 979.768 84.1192 1003.49 75.8735 1045.15" stroke="white" stroke-width="0.75" stroke-linecap="round" stroke-linejoin="round"/>
<path d="M120.241 927.161C122.859 926.907 124.256 930.208 124.432 937.062C124.609 943.915 127.796 979.272 133.994 1043.13" stroke="white" stroke-width="0.75" stroke-linecap="round" stroke-linejoin="round"/>
<path fill-rule="evenodd" clip-rule="evenodd" d="M96.7437 832.689L81.8689 817.503L69.9521 784.666L57.9455 792.074C63.5196 814.433 67.1221 827.239 68.7526 830.494C69.7142 832.413 72.8155 836.154 78.0564 841.717C80.4865 844.296 85.1668 849.046 92.0971 855.967C92.0369 873.756 92.8234 886.345 94.4567 893.739C110.895 900.117 127.132 901.085 143.166 896.64L144.995 857.658C157.454 847.725 166.136 840.478 171.042 835.917C175.947 831.356 180.061 817.942 183.384 795.676L172.605 792.63L159.226 822.536L137.473 837.032L127.285 841.025C126.401 846.753 124.028 850.056 120.164 850.933C116.301 851.811 112.086 848.349 107.518 840.547L96.7437 832.689Z" fill="#6B74C1"/>
<path fill-rule="evenodd" clip-rule="evenodd" d="M130.945 829.832C135.765 828.995 139.015 830.067 140.696 833.049C142.377 836.032 145.794 842.171 150.947 851.468C143.789 852.94 139.422 855.766 137.847 859.946C134.812 851.509 133.26 845.872 133.19 843.037C133.12 840.202 131.679 839.131 128.866 839.823L130.945 829.832Z" fill="#5C8B83"/>
<path fill-rule="evenodd" clip-rule="evenodd" d="M115.126 856.634C113.505 860.199 112.932 862.99 113.407 865.004C113.882 867.02 114.945 866.49 116.594 863.415C115.808 868.013 116.648 869.78 119.114 868.718C121.579 867.657 121.811 864.054 119.81 857.91C122.699 856.886 125.61 854.503 128.542 850.758C131.474 847.014 131.869 843.195 129.725 839.301L126.412 845.225C122.922 850.568 119.312 852.081 115.582 849.763C111.852 847.446 108.791 843.072 106.401 836.642C103.9 839.046 103.02 840.835 103.763 842.008C104.788 843.628 112.367 855.516 115.126 856.634Z" fill="#D37F1D"/>
<path d="M120.31 858.148C118.921 857.12 117.752 856.802 116.803 857.193" stroke="#4B4745" stroke-width="0.75" stroke-linecap="round"/>
<path d="M106.718 842.527L112.234 850.812" stroke="#4B4745" stroke-width="0.75" stroke-linecap="round"/>
<path d="M128.332 841.415C128.414 845.338 126.078 849.031 121.325 852.495" stroke="#4B4745" stroke-width="0.75" stroke-linecap="round"/>
<path fill-rule="evenodd" clip-rule="evenodd" d="M105.135 838.356C106.089 835.23 106.748 832.893 107.112 831.345C105.549 831.399 103.821 826.478 104.054 823.606C104.209 821.691 106.128 821.067 109.811 821.734L109.694 816.056L111.811 812.472L118.473 810.963L131.197 811.17L133.26 818.303C132.382 822.046 131.822 825.835 131.581 829.668C131.218 835.418 129.534 838.278 128.906 840.058C128.277 841.838 128.386 845.035 121.671 844.685C117.195 844.452 113.781 841.766 111.432 836.627" fill="white"/>
<path d="M105.135 838.356C106.089 835.23 106.748 832.893 107.112 831.345C105.549 831.399 103.821 826.478 104.054 823.606C104.209 821.691 106.128 821.067 109.811 821.734L109.694 816.056L111.811 812.472L118.473 810.963L131.197 811.17L133.26 818.303C132.382 822.046 131.822 825.835 131.581 829.668C131.218 835.418 129.534 838.278 128.906 840.058C128.277 841.838 128.386 845.035 121.671 844.685C117.195 844.452 113.781 841.766 111.432 836.627" stroke="#4B4745" stroke-width="0.75" stroke-linecap="round"/>
<path d="M127.026 822.702C127.982 821.877 128.954 821.763 129.942 822.361" stroke="#4A4A4A" stroke-width="0.75" stroke-linecap="round"/>
<path d="M119.387 823.414C118.295 822.655 117.268 822.809 116.307 823.877" stroke="#4A4A4A" stroke-width="0.75" stroke-linecap="round"/>
<path d="M125.379 821.101C124.478 823.144 124.198 824.742 124.539 825.893C125.05 827.62 126.379 830.935 124.651 830.994C123.499 831.033 122.754 830.729 122.417 830.082" stroke="#4B4745" stroke-width="0.75" stroke-linecap="round"/>
<path fill-rule="evenodd" clip-rule="evenodd" d="M105.437 829.198C100.797 827.613 97.7723 828.329 96.3637 831.347C94.2511 835.872 96.6219 843.43 96.7412 849.015C96.8206 852.738 97.9976 856.521 100.272 860.364C100.215 855.871 101.597 853.146 104.417 852.189C107.236 851.233 109.364 851.159 110.8 851.968C109.113 846.122 108.252 842.354 108.216 840.665C108.18 838.976 108.338 835.913 108.691 831.477" fill="#5C8B83"/>
<path d="M106.553 856.394C106.553 856.394 103.236 864.067 100.307 859.987" stroke="white" stroke-width="0.75" stroke-linecap="round" stroke-linejoin="round"/>
<path fill-rule="evenodd" clip-rule="evenodd" d="M109.188 822.918C108.151 820.897 105.835 820.371 104.096 823.095C102.358 825.82 105.036 828.409 105.282 829.666C105.529 830.923 107.603 831.899 108.779 830.702" fill="white"/>
<path d="M109.188 822.918C108.151 820.897 105.835 820.371 104.096 823.095C102.358 825.82 105.036 828.409 105.282 829.666C105.529 830.923 107.603 831.899 108.779 830.702" stroke="#4B4745" stroke-width="0.75" stroke-linecap="round"/>
<path d="M122.606 845.221C122.271 846.286 121.813 846.973 121.232 847.283" stroke="#4B4745" stroke-width="0.75" stroke-linecap="round"/>
<path fill-rule="evenodd" clip-rule="evenodd" d="M109.036 824.719C109.513 827.394 109.76 829.164 109.778 830.028C109.805 831.324 108.896 836.291 110.753 839.155C112.609 842.018 116.034 845.102 121.222 845.342C126.41 845.581 127.685 844.427 128.566 842.111C129.153 840.566 129.782 838.042 130.451 834.538C129.583 835.752 129.003 836.205 128.714 835.897C128.281 835.437 128.791 833.581 125.967 832.789C123.143 831.998 119.337 831.54 117.422 832.453C116.145 833.061 115.265 833.795 114.784 834.655C114.821 831.612 114.459 829.858 113.696 829.392C112.552 828.693 110.971 829.189 110.899 825.731C110.851 823.426 110.875 821.243 110.97 819.182C113.124 818.816 115.354 817.745 117.661 815.969C116.86 817.66 116.875 818.421 117.709 818.251C118.542 818.08 120.682 817.036 124.13 815.118C122.033 817.576 121.932 818.549 123.828 818.037C125.724 817.525 128.071 816.353 130.869 814.521C131.933 816.757 132.614 817.963 132.913 818.137C132.827 818.462 132.617 819.445 132.283 821.087C133.256 820.356 134.431 818.439 135.806 815.335C137.868 810.678 137.646 809.041 135.662 808.42C136.811 805.582 134.525 804.567 128.803 805.375C120.22 806.588 113.103 802.001 109.317 807.853C105.328 807.149 104.46 812.104 106.714 822.717C107.339 823.028 107.791 823.305 108.071 823.546C108.351 823.788 108.673 824.178 109.036 824.719Z" fill="#4B4745"/>
<path fill-rule="evenodd" clip-rule="evenodd" d="M125.815 834.801L119.885 833.888C120.289 836.183 121.176 837.4 122.545 837.541C123.915 837.683 125.004 836.769 125.815 834.801Z" fill="white"/>
<path fill-rule="evenodd" clip-rule="evenodd" d="M107.461 845.331C104.753 847.144 102.972 849.834 102.118 853.399C101.468 854.053 100.891 855.339 100.838 856.628C100.757 858.623 101.75 861.597 103.524 862.523C105.47 863.538 107.058 860.539 108.288 853.525L107.461 845.331Z" fill="#4B4745"/>
<path fill-rule="evenodd" clip-rule="evenodd" d="M103.01 853.943C103.329 853.587 103.507 845.414 109.013 845.907C114.518 846.399 109.452 855.871 108.732 858.29C108.012 860.71 108.506 863.862 104.383 863.113C100.259 862.363 102.692 854.299 103.01 853.943Z" fill="white"/>
<path d="M111.429 849.607L105.751 848.178" stroke="#D6DCFF" stroke-width="0.75"/>
<path d="M110.966 852.992L105.289 851.563" stroke="#D6DCFF" stroke-width="0.75"/>
<path d="M109.38 856.408L103.702 854.979" stroke="#D6DCFF" stroke-width="0.75"/>
<path d="M108.358 859.808L102.68 858.379" stroke="#D6DCFF" stroke-width="0.75"/>
<path fill-rule="evenodd" clip-rule="evenodd" d="M151.375 848.672C149.2 848.286 146.689 849.55 143.843 852.462C139.575 856.831 139.177 857.017 138.483 859.172C138.796 861.312 139.895 864.47 140.801 864.44C141.405 864.42 144.93 859.164 151.375 848.672Z" fill="#4B4745"/>
<path fill-rule="evenodd" clip-rule="evenodd" d="M141.994 857.574C145.438 853.868 148.539 847.128 152.063 848.894C153.817 849.772 153.03 852.365 152.209 854.814C151.388 857.262 148.969 859.075 148.121 859.775C146.432 861.167 145.11 864.86 142.176 864.957C139.241 865.056 138.55 861.28 141.994 857.574Z" fill="white"/>
<path d="M152 854.389L147.083 851.243" stroke="#D6DCFF" stroke-width="0.75"/>
<path d="M150.512 857.214L145.596 854.068" stroke="#D6DCFF" stroke-width="0.75"/>
<path d="M148.026 859.71L143.11 856.564" stroke="#D6DCFF" stroke-width="0.75"/>
<path d="M145.399 862.746L140.959 859.723" stroke="#D6DCFF" stroke-width="0.75"/>
<path d="M116.31 865.231L117.354 859.603" stroke="#4B4745" stroke-width="0.75" stroke-linecap="round"/>
</g>
<path fill-rule="evenodd" clip-rule="evenodd" d="M532.871 799.726L533.665 803.546C532.175 802.488 530.894 802.428 529.822 803.365C528.214 804.772 529.498 808.42 531.743 809.524C533.24 810.261 534.433 810.629 535.323 810.629C537.036 816.433 538.662 820.312 540.203 822.268C541.744 824.223 544.582 826.145 548.715 828.033H561.604V818.97C563.405 815.28 564.306 812.123 564.306 809.499C566.451 808.86 570.326 806.548 569.685 801.731C568.554 799.443 566.898 799.443 564.717 801.731L565.156 788.72L551.268 782.829L532.871 799.726Z" fill="white"/>
<path d="M532.873 799.005C534.512 808.558 536.344 815.168 538.369 818.835C539.795 821.419 541.595 823.662 543.711 825.2M559.581 822.084C561.1 820.124 562.195 817.958 562.923 816.222C564.001 813.65 564.745 807.214 565.157 796.914" stroke="#4A4A4A"/>
<path d="M555.782 784.463C563.107 784.463 569.046 778.539 569.046 771.231C569.046 763.924 563.107 758 555.782 758C548.456 758 542.518 763.924 542.518 771.231C542.518 778.539 548.456 784.463 555.782 784.463Z" fill="#4B4745"/>
<path d="M564.903 801.693C566.422 799.81 567.806 799.516 569.055 800.811C570.929 802.753 568.401 809.524 564.337 809.524" stroke="#4A4A4A" stroke-linecap="round"/>
<path fill-rule="evenodd" clip-rule="evenodd" d="M533.281 802.186C543.791 799.304 550.497 794.508 553.398 787.8C556.986 792.929 560.905 796.426 565.155 798.291C566.221 794.553 566.454 790.561 565.854 786.313C564.953 779.941 560.311 775.516 554.856 774.628C549.148 770.154 540.199 772.733 534.451 782.627C530.618 789.223 530.229 795.743 533.281 802.186Z" fill="#4B4745"/>
<path d="M533.515 803.59C531.994 802.273 530.558 802.273 529.206 803.59C527.178 805.565 532.137 811.134 535.323 810.591" stroke="#4A4A4A" stroke-linecap="round"/>
<path d="M534.277 806.615L530.86 805.477" stroke="#4A4A4A" stroke-linecap="round"/>
<path d="M564.719 804.964L566.948 803.546" stroke="#4A4A4A" stroke-linecap="round"/>
<path fill-rule="evenodd" clip-rule="evenodd" d="M602.882 882.974C604.041 890.292 603.2 896.497 600.358 901.589C596.096 909.226 565.46 923.768 555.778 925.756C546.096 927.746 528.733 923.245 528.733 921.262C528.733 919.279 544.602 919.781 546.096 918.253C540.406 912.044 539.96 908.174 544.598 910.367C549.237 912.559 550.793 915.344 555.778 915.344L587.213 898.297L585.715 884.9L602.882 882.974Z" fill="white" stroke="#4A4A4A" stroke-linejoin="round"/>
<path d="M531.146 795.704C539.257 790.339 544.74 785.017 547.592 779.738" stroke="white"/>
<path fill-rule="evenodd" clip-rule="evenodd" d="M561.605 833.309C576.164 838.342 585.63 842.596 590.001 846.072C594.372 849.548 599.41 862.271 605.114 884.242L584.337 885.643L581.75 875.758V893.618L585.556 912.559L524.944 926.869L527.286 889.221L522.342 884.242L513.931 898.972L498.313 888.555C503.469 866.296 507.796 856.629 513.243 851.251C518.691 845.873 527.974 840.348 541.095 834.675C540.237 838.355 540.711 841.378 542.516 843.743C547.253 849.949 560.473 853.093 563.715 842.353C564.676 839.171 563.973 836.156 561.605 833.309Z" fill="#D37F1D"/>
<path d="M532.094 799.484C540.973 794.72 546.974 789.995 550.095 785.307" stroke="white"/>
<path d="M561.606 818.988C561.606 826.37 561.606 831.144 561.606 833.31C561.606 835.476 562.31 837.522 563.717 839.448" stroke="#4A4A4A" stroke-linecap="round"/>
<path d="M547.252 797.695C547.943 799.751 548.289 802.111 548.289 804.777C548.289 808.776 547.252 813.638 547.77 814.477C548.116 815.036 549.282 815.036 551.268 814.477" stroke="#4A4A4A" stroke-linecap="round"/>
<path d="M541.095 774.51C548.297 771.496 553.192 771.255 555.78 773.787C560.264 774.553 563.39 777.337 565.157 782.139" stroke="white"/>
<path d="M557.675 809.036C561.338 809.036 564.307 806.074 564.307 802.42C564.307 798.766 561.338 795.804 557.675 795.804C554.013 795.804 551.043 798.766 551.043 802.42C551.043 806.074 554.013 809.036 557.675 809.036Z" stroke="#1D70D3"/>
<path d="M540.62 809.981C544.283 809.981 547.252 807.019 547.252 803.365C547.252 799.712 544.283 796.75 540.62 796.75C536.958 796.75 533.988 799.712 533.988 803.365C533.988 807.019 536.958 809.981 540.62 809.981Z" stroke="#1D70D3"/>
<path d="M546.854 801.121C548.116 799.395 549.512 799.271 551.043 800.748" stroke="#1D70D3" stroke-linecap="round"/>
<path d="M523.631 863.773C520.651 870.904 519.658 876.098 520.651 879.356C521.645 882.614 523.857 885.902 527.287 889.222L524.578 926.869" stroke="#4A4A4A" stroke-linecap="round"/>
<path d="M554.972 801.73C556.681 800.019 558.39 799.845 560.1 801.208" stroke="#4A4A4A" stroke-linecap="round"/>
<path d="M547.113 819.149C548.554 819.913 550.437 819.647 552.762 818.35" stroke="#4A4A4A" stroke-linecap="round"/>
<path d="M542.816 802.254C541.064 800.953 539.386 801.155 537.784 802.86" stroke="#4A4A4A" stroke-linecap="round"/>
<path fill-rule="evenodd" clip-rule="evenodd" d="M488.799 843.691C492.001 867.451 494.156 881.197 495.265 884.929C500.981 904.161 516.299 895.4 517.577 885.43C518.429 878.783 513.022 863.246 501.355 838.819C502.944 834.099 503.797 830.075 503.914 826.747C504.013 823.925 504.14 821.33 504.294 818.96C504.338 818.283 503.7 817.851 502.869 817.996C502.858 817.998 502.848 817.999 502.837 818.002C501.926 818.175 501.108 818.821 500.837 819.579L498.375 826.464L495.417 813.458C495.271 812.814 494.521 812.495 493.668 812.714C492.861 812.922 492.239 813.609 492.28 814.249C492.28 814.257 492.281 814.265 492.282 814.273L493.292 825.449L489.987 813.873C489.803 813.227 488.975 812.961 488.116 813.272C487.249 813.586 486.65 814.359 486.747 815.042L488.45 827.12L484.831 817.131C484.571 816.413 483.607 816.145 482.629 816.518C481.684 816.879 481.075 817.754 481.269 818.471C481.271 818.478 481.273 818.485 481.275 818.492L484.657 829.99L480.716 824.287C480.259 823.625 479.144 823.525 478.173 824.057C477.215 824.583 476.752 825.56 477.134 826.252C480.26 831.92 482.191 835.69 482.925 837.563C483.711 839.571 485.669 841.613 488.799 843.691Z" fill="white" stroke="#4B4745" stroke-linejoin="round"/>
<path d="M497.052 823.655C496.504 825.469 495.765 827.064 494.836 828.438C493.443 830.499 488.856 832.117 487.803 835.242" stroke="#4A4A4A"/>
<path d="M484.19 827.187C484.157 826.756 487.143 823.843 493.66 823.115" stroke="#4A4A4A"/>
<path fill-rule="evenodd" clip-rule="evenodd" d="M581.467 899.636C585.71 901.186 593.66 902.584 596.31 914.568C598.076 922.557 600 930.867 602.082 939.497C604.658 941.733 606.508 943.167 607.631 943.799C610.512 945.418 612.942 945.585 612.733 946.627C612.235 949.105 601.676 947.238 597.06 947.238C593.983 947.238 592.584 944.824 592.864 939.998C589.269 932.022 586.18 923.801 583.596 915.334L579.426 915.224C576.593 909.104 577.273 903.908 581.467 899.636Z" fill="white" stroke="#4A4A4A" stroke-linejoin="round"/>
<path fill-rule="evenodd" clip-rule="evenodd" d="M569.765 915.53H580.372C575.697 907.617 581.313 899.677 582.341 899.677C583.026 899.677 578.834 898.392 569.765 895.823L567.149 890.927C546.985 892.257 536.61 892.923 536.024 892.923C535.144 892.923 532.459 918.715 542.283 920.908C548.832 922.37 553.28 921.557 555.628 918.469L569.765 915.53Z" fill="#5C8B83"/>
<path d="M546.768 900.322L557.769 902.855" stroke="white"/>
<path fill-rule="evenodd" clip-rule="evenodd" d="M561.973 904.076C566.217 905.657 568.333 907.864 570.594 917.266C572.101 923.534 573.812 931.236 575.728 940.372C577.693 942.362 579.38 945.195 580.789 948.868C582.258 952.697 579.113 953.697 577.711 950.32C578.012 953.686 575.029 952.914 573.621 952.914C570.543 952.914 568.386 949.674 567.148 943.193C563.553 935.062 560.464 926.68 557.88 918.047L553.761 918.871C550.451 911.751 551.424 906.462 556.681 903.006C558.791 903.191 560.555 903.548 561.973 904.076Z" fill="white" stroke="#4A4A4A" stroke-linejoin="round"/>
<path d="M595.654 940.073C595.686 942.049 596.505 943.038 598.112 943.038" stroke="#4A4A4A" stroke-linecap="round"/>
<path d="M576.149 952.634C575.887 952.307 575.571 951.538 575.201 950.33" stroke="#4A4A4A" stroke-linecap="round"/>
<path d="M573.68 952.634L573.093 950.469" stroke="#4A4A4A" stroke-linecap="round"/>
<path d="M571.412 952.22V950.33" stroke="#4A4A4A" stroke-linecap="round"/>
<path fill-rule="evenodd" clip-rule="evenodd" d="M546.099 857.207C542.094 857.926 539.423 858.629 538.086 859.316C534.314 861.252 532.529 864.341 531.709 868.17C531.066 871.174 531.152 875.761 533.668 879.067C533.978 882.776 534.429 889.632 535.018 899.636L569.766 895.822C567.912 884.026 566.602 876.132 565.834 872.141L575.314 872.934L576.154 862.849C570.831 861.208 566.544 859.743 563.294 858.452C561.669 857.807 555.937 857.392 546.099 857.207Z" fill="#FFCC00"/>
<path d="M565.835 872.142L567.136 864.745" stroke="#626366"/>
<path fill-rule="evenodd" clip-rule="evenodd" d="M576.583 863.964L581.407 864.718L593.245 842.354C593.245 840.357 593.245 838.508 593.245 836.806C593.245 835.348 593.461 833.681 593.894 831.807C594.022 831.25 594.518 830.855 595.089 830.855C595.635 830.855 596.094 831.268 596.153 831.813L596.739 837.254L600.667 829.235C600.91 828.739 601.508 828.534 602.003 828.777C602.01 828.781 602.017 828.784 602.024 828.788C602.551 829.063 602.81 829.673 602.644 830.244L601.117 835.469L604.405 830.199C604.741 829.661 605.421 829.453 606 829.712C606.559 829.962 606.813 830.616 606.57 831.179L603.951 837.254L608.023 833.175C608.43 832.767 609.085 832.75 609.513 833.136C609.941 833.522 609.993 834.176 609.631 834.626L604.991 840.393L609.516 837.705C609.942 837.452 610.492 837.577 610.767 837.989C611.051 838.413 610.983 838.981 610.607 839.325C606.631 842.969 603.468 845.474 601.117 846.84C598.522 852.215 590.913 873.742 586.408 874.889C583.405 875.654 579.245 875.317 573.927 873.879L576.583 863.964Z" fill="white" stroke="#4A4A4A" stroke-linejoin="round"/>
<path d="M550.398 859.316C551.892 863.717 554.047 865.717 556.864 865.318C559.682 864.918 560.912 863.223 560.556 860.233" stroke="#626366"/>
<path d="M540.562 839.447L546.099 841.371" stroke="#4A4A4A" stroke-linecap="round"/>
<path fill-rule="evenodd" clip-rule="evenodd" d="M546.304 857.151C542.393 853.392 542.569 848.626 542.17 845.785C539.678 845.365 537.993 841.109 539.333 837.871C540.226 835.712 541.525 835.323 543.231 836.704C542.925 830.386 546.418 827.228 553.711 827.228C564.651 827.228 567.373 833.516 566.012 841.731C564.651 849.945 566.733 849.191 566.012 854.129C565.291 859.068 558.298 863.658 550.28 859.833" fill="white"/>
<path d="M546.304 857.151C542.393 853.392 542.569 848.626 542.17 845.785C539.678 845.365 537.993 841.109 539.333 837.871C540.226 835.712 541.525 835.323 543.231 836.704C542.925 830.386 546.418 827.228 553.711 827.228C564.651 827.228 567.373 833.516 566.012 841.731C564.651 849.945 566.733 849.191 566.012 854.129C565.291 859.068 558.298 863.658 550.28 859.833" stroke="#4A4A4A" stroke-linecap="round" stroke-linejoin="round"/>
<path fill-rule="evenodd" clip-rule="evenodd" d="M543.337 838.295C544.697 840.18 544.295 845.591 545.415 845.887C546.536 846.184 545.896 837.402 546.639 836.932C547.381 836.462 549.785 835.268 550.765 832.341C553.702 835.05 557.783 838.057 567.07 836.932C567.532 832.688 565.986 828.92 562.434 825.63C557.105 820.694 548.013 821.452 543.926 826.208C539.529 826.554 537.921 831.145 539.101 839.98C540.543 837.53 541.954 836.968 543.337 838.295Z" fill="#4A4A4A"/>
<path d="M565.274 837.546C562.196 836.316 560.027 834.302 558.77 831.502" stroke="white"/>
<path d="M559.347 837.779C556.442 836.184 554.536 833.921 553.63 830.99" stroke="white"/>
<path d="M559.83 845.895C560.073 847.738 560.544 848.96 561.245 849.56C561.945 850.16 561.698 850.755 560.503 851.344" stroke="#4A4A4A" stroke-linecap="round"/>
<path d="M562.314 842.604C563.556 841.859 564.644 841.854 565.576 842.587" stroke="#4A4A4A" stroke-linecap="round"/>
<path d="M551.99 842.789C553.304 841.932 554.517 841.932 555.628 842.789" stroke="#4A4A4A" stroke-linecap="round"/>
<path d="M542.283 842.115L540.524 840.704" stroke="#4A4A4A" stroke-linecap="round"/>
<path fill-rule="evenodd" clip-rule="evenodd" d="M561.634 854.2C559.518 854.293 557.917 854.112 556.83 853.658C557.225 855.3 557.929 856.121 558.943 856.121C559.957 856.121 560.854 855.48 561.634 854.2Z" fill="#FF9B6D"/>
<path d="M581.834 896.931C590.467 896.931 597.466 889.949 597.466 881.337C597.466 872.724 590.467 865.742 581.834 865.742C573.2 865.742 566.201 872.724 566.201 881.337C566.201 889.949 573.2 896.931 581.834 896.931Z" fill="#0ACC94"/>
<path fill-rule="evenodd" clip-rule="evenodd" d="M549.014 878.412L550.737 882.283L575.268 893.877C577.408 892.783 579.17 892.046 580.553 891.666C581.688 891.354 582.81 890.989 583.919 890.573C584.341 890.415 584.815 890.587 585.038 890.979C585.262 891.372 585.16 891.87 584.8 892.142L582.738 893.702H592.232C588.514 898.115 585.067 900.322 581.891 900.322C578.715 900.322 576.197 899.97 574.336 899.266C559.021 896.431 549.671 893.898 546.287 891.666C542.903 889.434 540.382 887.019 538.726 884.42" fill="white"/>
<path d="M549.014 878.412L550.737 882.283L575.268 893.877C577.408 892.783 579.17 892.046 580.553 891.666C581.688 891.354 582.81 890.989 583.919 890.573C584.341 890.415 584.815 890.587 585.038 890.979C585.262 891.372 585.16 891.87 584.8 892.142L582.738 893.702H592.232C588.514 898.115 585.067 900.322 581.891 900.322C578.715 900.322 576.197 899.97 574.336 899.266C559.021 896.431 549.671 893.898 546.287 891.666C542.903 889.434 540.382 887.019 538.726 884.42" stroke="#4A4A4A" stroke-linejoin="round"/>
<path d="M540.524 862.342C543.048 865.221 545.474 869.006 547.8 873.698L549.989 877.866L538.726 884.421L535.018 879.593" stroke="#626366"/>
<path fill-rule="evenodd" clip-rule="evenodd" d="M557.771 921.612C550.289 915.577 545.635 912.559 543.809 912.559C541.984 912.559 542.971 914.529 546.77 918.468C535.317 919.829 530.877 920.877 533.45 921.612C536.023 922.347 538.531 922.515 540.974 922.115" fill="white"/>
<path d="M557.771 921.612C550.289 915.577 545.635 912.559 543.809 912.559C541.984 912.559 542.971 914.529 546.77 918.468C535.317 919.829 530.877 920.877 533.45 921.612C536.023 922.347 538.531 922.515 540.974 922.115" stroke="#4A4A4A" stroke-linejoin="round"/>
<path d="M596.74 837.254L599.214 842.115" stroke="#4A4A4A" stroke-linecap="round"/>
</svg>
