<svg width="661" height="1124" viewBox="0 0 661 1124" fill="none" xmlns="http://www.w3.org/2000/svg">
<path d="M661 1043.81V0H0V1041.73C224.211 1187.54 534.675 1104.56 661 1043.81Z" fill="#FFF6CC"/>
<mask id="mask0_230_126" style="mask-type:alpha" maskUnits="userSpaceOnUse" x="11" y="879" width="234" height="237">
<path d="M233.554 987.456C235.327 1048.76 291.85 1150.95 125.973 1103.11C9.64304 1069.57 13.6607 1055.19 11.888 993.887C10.1154 932.588 58.3002 881.455 119.512 879.679C180.724 877.903 231.782 926.156 233.554 987.456Z" fill="#C4C4C4"/>
</mask>
<g mask="url(#mask0_230_126)">
<path fill-rule="evenodd" clip-rule="evenodd" d="M181.651 959.653C178.649 976.411 176.736 986.136 175.911 988.829C171.654 1002.7 163.111 998.154 162.837 991.381C162.655 986.866 166.555 975.58 174.539 957.523C173.834 954.414 173.526 951.714 173.616 949.423C173.692 947.48 173.741 945.696 173.764 944.072C173.77 943.607 174.163 943.246 174.643 943.264C174.648 943.264 174.654 943.264 174.661 943.264C175.186 943.295 175.634 943.66 175.756 944.158L176.869 948.679L179.217 939.387C179.333 938.927 179.787 938.632 180.275 938.699C180.737 938.763 181.067 939.177 181.013 939.624C181.013 939.629 181.012 939.635 181.012 939.64L179.89 947.474L182.372 939.137C182.511 938.672 183.008 938.406 183.495 938.536C183.988 938.667 184.301 939.143 184.212 939.626L182.642 948.152L185.233 940.882C185.419 940.359 185.996 940.078 186.549 940.24C187.085 940.396 187.4 940.941 187.252 941.457C187.251 941.462 187.251 941.467 187.249 941.471L184.724 949.763L187.3 945.426C187.599 944.924 188.255 944.744 188.798 945.016C189.334 945.285 189.557 945.916 189.301 946.432C187.203 950.663 185.896 953.463 185.378 954.832C184.823 956.299 183.581 957.906 181.651 959.653Z" fill="white" stroke="#4B4745" stroke-width="0.75" stroke-linejoin="round"/>
<path d="M176.705 948.006C176.969 949.275 177.366 950.364 177.895 951.274C178.69 952.638 181.557 953.359 182.082 955.533" stroke="#4B4745" stroke-width="0.75"/>
<path d="M184.964 950.025C185.013 949.62 183.258 947.256 179.067 947.345" stroke="#4B4745" stroke-width="0.75"/>
<path fill-rule="evenodd" clip-rule="evenodd" d="M59.5298 954.405C63.3206 970.868 65.6985 980.408 66.6633 983.028C71.6352 996.527 80.2903 991.378 80.2971 984.616C80.3016 980.109 75.8037 969.159 66.8036 951.767C67.4059 948.621 67.6139 945.911 67.4274 943.636C67.2692 941.708 67.1456 939.936 67.056 938.321C67.0305 937.859 66.6083 937.528 66.1131 937.581C66.1069 937.581 66.1006 937.582 66.0943 937.583C65.5526 937.651 65.1039 938.048 64.9974 938.552L64.0309 943.134L61.2215 934.055C61.0824 933.606 60.6005 933.345 60.098 933.448C59.6222 933.545 59.2966 933.981 59.3709 934.422C59.3719 934.427 59.3728 934.433 59.3738 934.438L60.8549 942.154L57.9447 934.036C57.7825 933.583 57.2577 933.355 56.7583 933.52C56.254 933.686 55.9493 934.183 56.0609 934.657L58.034 943.029L55.0555 935.981C54.8417 935.475 54.233 935.237 53.6664 935.438C53.1181 935.633 52.8148 936.198 52.9889 936.701C52.9904 936.706 52.9921 936.711 52.994 936.715L55.9452 944.785L53.1021 940.655C52.7725 940.177 52.0853 940.046 51.535 940.357C50.9918 940.663 50.7855 941.307 51.0714 941.803C53.4156 945.861 54.8838 948.553 55.4762 949.878C56.1108 951.298 57.462 952.807 59.5298 954.405Z" fill="white" stroke="#4B4745" stroke-width="0.75" stroke-linejoin="round"/>
<path d="M63.9647 942.384C63.748 943.658 63.3892 944.764 62.8886 945.701C62.1375 947.107 59.2588 948.022 58.8143 950.21" stroke="#4B4745" stroke-width="0.75"/>
<path d="M55.6836 944.877C55.6178 944.485 57.279 942.061 61.4844 941.857" stroke="#4B4745" stroke-width="0.75"/>
<path fill-rule="evenodd" clip-rule="evenodd" d="M43.981 977.271C60.2752 982.698 65.6216 992.634 60.0203 1007.08C66.3854 999.477 77.5268 995.663 93.4442 995.634C76.0738 990.062 65.1762 985.86 60.7519 983.029C56.3274 980.197 50.7371 978.278 43.981 977.271Z" fill="#1D70D3"/>
<path fill-rule="evenodd" clip-rule="evenodd" d="M100.395 978.199L105.936 985.057L105.358 992.354C92.2852 997.332 80.7111 996.475 70.6357 989.781C60.5603 983.088 51.5802 980.653 43.6953 982.477C44.9396 978.222 43.2716 975.738 38.6911 975.026C46.9576 974.603 55.3049 976.857 63.7334 981.789C72.1617 986.72 84.3823 985.524 100.395 978.199Z" fill="white" stroke="#1D70D3" stroke-width="0.75" stroke-linecap="round" stroke-linejoin="round"/>
<path d="M116.669 983.922C108.48 988.805 100.656 990.606 93.1947 989.323" stroke="#1D70D3" stroke-width="0.75"/>
<path fill-rule="evenodd" clip-rule="evenodd" d="M97.1072 958.879L94.0687 954.551L88.6388 944.659L92.4531 938.993C91.7756 938.285 90.6571 938.211 89.9549 938.827C89.896 938.879 89.8411 938.935 89.7906 938.994L88.374 940.664L87.9506 934.993C87.9159 934.528 87.5576 934.129 87.0815 934.025C86.6726 933.936 86.2828 934.179 86.211 934.568C86.2071 934.59 86.2042 934.611 86.2022 934.632L85.8064 939.117L85.2131 937.445C84.823 936.345 83.5952 935.713 82.4707 936.033C82.1666 936.119 81.89 936.271 81.6612 936.477C80.1851 937.808 79.7168 939.897 80.4689 941.794L89.1607 963.719L97.1072 958.879Z" fill="white" stroke="#4B4745" stroke-width="0.75" stroke-linejoin="round"/>
<path d="M88.5859 940.625L84.7896 942.822" stroke="#4B4745" stroke-width="0.75" stroke-linecap="round"/>
<path fill-rule="evenodd" clip-rule="evenodd" d="M124.656 960.305L127.301 954.856L131.618 944.477L127.505 939.122C128.162 938.372 129.293 938.221 130.032 938.784C130.094 938.831 130.152 938.883 130.206 938.939L131.715 940.496L131.9 934.843C131.915 934.379 132.261 933.958 132.74 933.822C133.151 933.706 133.557 933.92 133.646 934.301C133.651 934.322 133.655 934.343 133.658 934.364L134.253 938.785L134.782 937.085C135.131 935.967 136.349 935.255 137.504 935.494C137.816 935.559 138.103 935.69 138.344 935.879C139.886 937.087 140.4 939.136 139.637 941.03L131.351 961.607L124.656 960.305Z" fill="white" stroke="#4B4745" stroke-width="0.75" stroke-linejoin="round"/>
<path d="M131.414 940.463L135.343 942.376" stroke="#4B4745" stroke-width="0.75" stroke-linecap="round"/>
<path fill-rule="evenodd" clip-rule="evenodd" d="M117.128 952.266L118.439 961.044L106.96 970.391C101.879 968.248 98.687 966.351 97.3852 964.701C96.0834 963.05 97.4417 959.01 101.46 952.582C105.15 950.876 108.103 950 110.32 949.956C112.537 949.911 114.807 950.681 117.128 952.266Z" fill="white"/>
<path fill-rule="evenodd" clip-rule="evenodd" d="M117.572 950.656C117.572 950.656 122.152 955.673 119.373 955.771C117.52 955.836 114.766 954.573 111.111 951.984C113.205 953.914 113.225 954.915 111.174 954.987C109.122 955.059 106.972 954.719 104.725 953.966C105.08 956.968 104.534 958.844 103.086 959.595C101.638 960.347 101.328 961.878 102.157 964.189C100.283 961.971 99.1053 961.73 98.6246 963.466C95.3332 961.096 95.0199 957.801 94.9894 956.33C94.9504 954.454 95.53 953.207 96.7279 952.588C95.8738 949.721 97.3446 947.893 101.14 947.106C106.833 945.924 118.443 948.383 120.112 949.852C121.781 951.321 117.572 950.656 117.572 950.656Z" fill="#4A4B50"/>
<path fill-rule="evenodd" clip-rule="evenodd" d="M100.615 965.349L97.808 961.62L89.7504 945.464C85.2409 946.933 82.2293 948.321 80.716 949.628C84.3527 959.249 86.9851 965.743 88.6132 969.109C90.2412 972.476 92.7689 976.325 96.1962 980.657L99.4113 1000.73C102.015 1002.26 104.098 1001.88 105.66 999.57C107.222 997.263 108.689 992.407 110.061 985.001L127.11 975.957C129.33 971.332 131.319 967.713 133.077 965.1C134.836 962.486 136.801 956.778 138.973 947.976L131.103 945.23L124.333 960.689L121.847 964.604C115.489 968.58 111.198 970.607 108.974 970.685C107.376 970.741 105.503 970.454 103.324 968.593C102.755 968.107 101.853 967.026 100.615 965.349Z" fill="#FFCC00"/>
<path fill-rule="evenodd" clip-rule="evenodd" d="M117.565 955.835C118 959.134 118.47 961.384 118.975 962.587C119.733 964.39 120.934 969.571 115.31 970.975C111.561 971.911 107.531 971.143 103.219 968.671" fill="white"/>
<path d="M117.565 955.835C118 959.134 118.47 961.384 118.975 962.587C119.733 964.39 120.934 969.571 115.31 970.975C111.561 971.911 107.531 971.143 103.219 968.671" stroke="#4B4745" stroke-width="0.75" stroke-linecap="round" stroke-linejoin="round"/>
<path fill-rule="evenodd" clip-rule="evenodd" d="M116.785 965.787L113.656 966.614C114.184 967.306 114.843 967.638 115.635 967.61C116.426 967.583 116.81 966.975 116.785 965.787Z" fill="#4B4745"/>
<path d="M114.231 960.575C114.472 961.321 115.086 961.929 116.074 962.4C117.061 962.87 116.904 963.437 115.602 964.101" stroke="#4B4745" stroke-width="0.75" stroke-linecap="round" stroke-linejoin="round"/>
<path d="M114.493 959.297C115.388 958.135 116.337 957.93 117.339 958.682" stroke="#4A4A4A" stroke-width="0.75" stroke-linecap="round"/>
<path d="M107.402 960.784C108.24 959.627 109.19 959.429 110.253 960.19" stroke="#4A4A4A" stroke-width="0.75" stroke-linecap="round"/>
<path fill-rule="evenodd" clip-rule="evenodd" d="M128.704 1010.32C127.271 1018.63 123.82 1022.51 118.351 1021.98C110.147 1021.17 104.246 1009.32 104.232 1008.77C104.223 1008.4 104.936 1006.91 106.372 1004.3L128.704 1010.32Z" fill="white"/>
<path fill-rule="evenodd" clip-rule="evenodd" d="M144.403 1067.25C145.188 1103.99 145.68 1126.97 145.878 1136.2C146.075 1145.42 146.612 1170.53 147.489 1211.52L131.997 1212.05L121.595 1097.82L118.343 1097.93C111.9 1131.4 107.296 1152.74 104.531 1161.96C101.766 1171.17 96.2635 1188.37 88.0239 1213.57L71.9158 1214.13C80.186 1169.77 85.3485 1142.26 87.4029 1131.58C89.1441 1122.53 88.0706 1106.61 90.5089 1079.52C90.8015 1076.27 92.306 1070.39 95.0227 1061.89L144.403 1067.25Z" fill="#323443"/>
<path d="M101.162 1063.67C96.7529 1071.58 94.6856 1081.35 94.96 1092.98C95.3719 1110.44 91.9686 1135.27 90.1054 1143.97C88.8632 1149.77 84.1192 1173.49 75.8735 1215.15" stroke="white" stroke-width="0.75" stroke-linecap="round" stroke-linejoin="round"/>
<path d="M120.241 1097.16C122.859 1096.91 124.256 1100.21 124.432 1107.06C124.609 1113.92 127.796 1149.27 133.994 1213.13" stroke="white" stroke-width="0.75" stroke-linecap="round" stroke-linejoin="round"/>
<path fill-rule="evenodd" clip-rule="evenodd" d="M96.7437 1002.69L81.8689 987.503L69.9521 954.666L57.9455 962.074C63.5196 984.433 67.1221 997.239 68.7526 1000.49C69.7142 1002.41 72.8155 1006.15 78.0564 1011.72C80.4865 1014.3 85.1668 1019.05 92.0971 1025.97C92.0369 1043.76 92.8234 1056.34 94.4567 1063.74C110.895 1070.12 127.132 1071.09 143.166 1066.64L144.995 1027.66C157.454 1017.73 166.136 1010.48 171.042 1005.92C175.947 1001.36 180.061 987.942 183.384 965.676L172.605 962.63L159.226 992.536L137.473 1007.03L127.285 1011.02C126.401 1016.75 124.028 1020.06 120.164 1020.93C116.301 1021.81 112.086 1018.35 107.518 1010.55L96.7437 1002.69Z" fill="#6B74C1"/>
<path fill-rule="evenodd" clip-rule="evenodd" d="M130.945 999.832C135.765 998.995 139.015 1000.07 140.696 1003.05C142.377 1006.03 145.794 1012.17 150.947 1021.47C143.789 1022.94 139.422 1025.77 137.847 1029.95C134.812 1021.51 133.26 1015.87 133.19 1013.04C133.12 1010.2 131.679 1009.13 128.866 1009.82L130.945 999.832Z" fill="#5C8B83"/>
<path fill-rule="evenodd" clip-rule="evenodd" d="M115.126 1026.63C113.505 1030.2 112.932 1032.99 113.407 1035C113.882 1037.02 114.945 1036.49 116.594 1033.41C115.808 1038.01 116.648 1039.78 119.114 1038.72C121.579 1037.66 121.811 1034.05 119.81 1027.91C122.699 1026.89 125.61 1024.5 128.542 1020.76C131.474 1017.01 131.869 1013.2 129.725 1009.3L126.412 1015.23C122.922 1020.57 119.312 1022.08 115.582 1019.76C111.852 1017.45 108.791 1013.07 106.401 1006.64C103.9 1009.05 103.02 1010.83 103.763 1012.01C104.788 1013.63 112.367 1025.52 115.126 1026.63Z" fill="#D37F1D"/>
<path d="M120.31 1028.15C118.921 1027.12 117.752 1026.8 116.803 1027.19" stroke="#4B4745" stroke-width="0.75" stroke-linecap="round"/>
<path d="M106.718 1012.53L112.234 1020.81" stroke="#4B4745" stroke-width="0.75" stroke-linecap="round"/>
<path d="M128.332 1011.41C128.414 1015.34 126.078 1019.03 121.325 1022.49" stroke="#4B4745" stroke-width="0.75" stroke-linecap="round"/>
<path fill-rule="evenodd" clip-rule="evenodd" d="M105.135 1008.36C106.089 1005.23 106.748 1002.89 107.112 1001.34C105.549 1001.4 103.821 996.478 104.054 993.606C104.209 991.691 106.128 991.067 109.811 991.734L109.694 986.056L111.811 982.472L118.473 980.963L131.197 981.17L133.26 988.303C132.382 992.046 131.822 995.835 131.581 999.668C131.218 1005.42 129.534 1008.28 128.906 1010.06C128.277 1011.84 128.386 1015.04 121.671 1014.69C117.195 1014.45 113.781 1011.77 111.432 1006.63" fill="white"/>
<path d="M105.135 1008.36C106.089 1005.23 106.748 1002.89 107.112 1001.34C105.549 1001.4 103.821 996.478 104.054 993.606C104.209 991.691 106.128 991.067 109.811 991.734L109.694 986.056L111.811 982.472L118.473 980.963L131.197 981.17L133.26 988.303C132.382 992.046 131.822 995.835 131.581 999.668C131.218 1005.42 129.534 1008.28 128.906 1010.06C128.277 1011.84 128.386 1015.04 121.671 1014.69C117.195 1014.45 113.781 1011.77 111.432 1006.63" stroke="#4B4745" stroke-width="0.75" stroke-linecap="round"/>
<path d="M127.026 992.702C127.982 991.877 128.954 991.763 129.942 992.361" stroke="#4A4A4A" stroke-width="0.75" stroke-linecap="round"/>
<path d="M119.387 993.414C118.295 992.655 117.268 992.809 116.307 993.877" stroke="#4A4A4A" stroke-width="0.75" stroke-linecap="round"/>
<path d="M125.379 991.101C124.478 993.144 124.198 994.742 124.539 995.893C125.05 997.62 126.379 1000.93 124.651 1000.99C123.499 1001.03 122.754 1000.73 122.417 1000.08" stroke="#4B4745" stroke-width="0.75" stroke-linecap="round"/>
<path fill-rule="evenodd" clip-rule="evenodd" d="M105.437 999.198C100.797 997.613 97.7723 998.329 96.3637 1001.35C94.2511 1005.87 96.6219 1013.43 96.7412 1019.02C96.8206 1022.74 97.9976 1026.52 100.272 1030.36C100.215 1025.87 101.597 1023.15 104.417 1022.19C107.236 1021.23 109.364 1021.16 110.8 1021.97C109.113 1016.12 108.252 1012.35 108.216 1010.67C108.18 1008.98 108.338 1005.91 108.691 1001.48" fill="#5C8B83"/>
<path d="M106.553 1026.39C106.553 1026.39 103.236 1034.07 100.307 1029.99" stroke="white" stroke-width="0.75" stroke-linecap="round" stroke-linejoin="round"/>
<path fill-rule="evenodd" clip-rule="evenodd" d="M109.188 992.918C108.151 990.897 105.835 990.371 104.096 993.095C102.358 995.82 105.036 998.409 105.282 999.666C105.529 1000.92 107.603 1001.9 108.779 1000.7" fill="white"/>
<path d="M109.188 992.918C108.151 990.897 105.835 990.371 104.096 993.095C102.358 995.82 105.036 998.409 105.282 999.666C105.529 1000.92 107.603 1001.9 108.779 1000.7" stroke="#4B4745" stroke-width="0.75" stroke-linecap="round"/>
<path d="M122.606 1015.22C122.271 1016.29 121.813 1016.97 121.232 1017.28" stroke="#4B4745" stroke-width="0.75" stroke-linecap="round"/>
<path fill-rule="evenodd" clip-rule="evenodd" d="M109.036 994.719C109.513 997.394 109.76 999.164 109.778 1000.03C109.805 1001.32 108.896 1006.29 110.753 1009.15C112.609 1012.02 116.034 1015.1 121.222 1015.34C126.41 1015.58 127.685 1014.43 128.566 1012.11C129.153 1010.57 129.782 1008.04 130.451 1004.54C129.583 1005.75 129.003 1006.2 128.714 1005.9C128.281 1005.44 128.791 1003.58 125.967 1002.79C123.143 1002 119.337 1001.54 117.422 1002.45C116.145 1003.06 115.265 1003.8 114.784 1004.65C114.821 1001.61 114.459 999.858 113.696 999.392C112.552 998.693 110.971 999.189 110.899 995.731C110.851 993.426 110.875 991.243 110.97 989.182C113.124 988.816 115.354 987.745 117.661 985.969C116.86 987.66 116.875 988.421 117.709 988.251C118.542 988.08 120.682 987.036 124.13 985.118C122.033 987.576 121.932 988.549 123.828 988.037C125.724 987.525 128.071 986.353 130.869 984.521C131.933 986.757 132.614 987.963 132.913 988.137C132.827 988.462 132.617 989.445 132.283 991.087C133.256 990.356 134.431 988.439 135.806 985.335C137.868 980.678 137.646 979.041 135.662 978.42C136.811 975.582 134.525 974.567 128.803 975.375C120.22 976.588 113.103 972.001 109.317 977.853C105.328 977.149 104.46 982.104 106.714 992.717C107.339 993.028 107.791 993.305 108.071 993.546C108.351 993.788 108.673 994.178 109.036 994.719Z" fill="#4B4745"/>
<path fill-rule="evenodd" clip-rule="evenodd" d="M125.815 1004.8L119.885 1003.89C120.289 1006.18 121.176 1007.4 122.545 1007.54C123.915 1007.68 125.004 1006.77 125.815 1004.8Z" fill="white"/>
<path fill-rule="evenodd" clip-rule="evenodd" d="M107.461 1015.33C104.753 1017.14 102.972 1019.83 102.118 1023.4C101.468 1024.05 100.891 1025.34 100.838 1026.63C100.757 1028.62 101.75 1031.6 103.524 1032.52C105.47 1033.54 107.058 1030.54 108.288 1023.52L107.461 1015.33Z" fill="#4B4745"/>
<path fill-rule="evenodd" clip-rule="evenodd" d="M103.01 1023.94C103.329 1023.59 103.507 1015.41 109.013 1015.91C114.518 1016.4 109.452 1025.87 108.732 1028.29C108.012 1030.71 108.506 1033.86 104.383 1033.11C100.259 1032.36 102.692 1024.3 103.01 1023.94Z" fill="white"/>
<path d="M111.429 1019.61L105.751 1018.18" stroke="#D6DCFF" stroke-width="0.75"/>
<path d="M110.966 1022.99L105.289 1021.56" stroke="#D6DCFF" stroke-width="0.75"/>
<path d="M109.38 1026.41L103.702 1024.98" stroke="#D6DCFF" stroke-width="0.75"/>
<path d="M108.358 1029.81L102.68 1028.38" stroke="#D6DCFF" stroke-width="0.75"/>
<path fill-rule="evenodd" clip-rule="evenodd" d="M151.375 1018.67C149.2 1018.29 146.689 1019.55 143.843 1022.46C139.575 1026.83 139.177 1027.02 138.483 1029.17C138.796 1031.31 139.895 1034.47 140.801 1034.44C141.405 1034.42 144.93 1029.16 151.375 1018.67Z" fill="#4B4745"/>
<path fill-rule="evenodd" clip-rule="evenodd" d="M141.994 1027.57C145.438 1023.87 148.539 1017.13 152.063 1018.89C153.817 1019.77 153.03 1022.37 152.209 1024.81C151.388 1027.26 148.969 1029.08 148.121 1029.77C146.432 1031.17 145.11 1034.86 142.176 1034.96C139.241 1035.06 138.55 1031.28 141.994 1027.57Z" fill="white"/>
<path d="M152 1024.39L147.083 1021.24" stroke="#D6DCFF" stroke-width="0.75"/>
<path d="M150.512 1027.21L145.596 1024.07" stroke="#D6DCFF" stroke-width="0.75"/>
<path d="M148.026 1029.71L143.11 1026.56" stroke="#D6DCFF" stroke-width="0.75"/>
<path d="M145.399 1032.75L140.959 1029.72" stroke="#D6DCFF" stroke-width="0.75"/>
<path d="M116.31 1035.23L117.354 1029.6" stroke="#4B4745" stroke-width="0.75" stroke-linecap="round"/>
</g>
<path fill-rule="evenodd" clip-rule="evenodd" d="M532.871 969.726L533.665 973.546C532.175 972.488 530.894 972.428 529.822 973.365C528.214 974.772 529.498 978.42 531.743 979.524C533.24 980.261 534.433 980.629 535.323 980.629C537.036 986.433 538.662 990.312 540.203 992.268C541.744 994.223 544.582 996.145 548.715 998.033H561.604V988.97C563.405 985.28 564.306 982.123 564.306 979.499C566.451 978.86 570.326 976.548 569.685 971.731C568.554 969.443 566.898 969.443 564.717 971.731L565.156 958.72L551.268 952.829L532.871 969.726Z" fill="white"/>
<path d="M532.873 969.005C534.512 978.558 536.344 985.168 538.369 988.835C539.795 991.419 541.595 993.662 543.711 995.2M559.581 992.084C561.1 990.124 562.195 987.958 562.923 986.222C564.001 983.65 564.745 977.214 565.157 966.914" stroke="#4A4A4A"/>
<path d="M555.782 954.463C563.107 954.463 569.046 948.539 569.046 941.231C569.046 933.924 563.107 928 555.782 928C548.456 928 542.518 933.924 542.518 941.231C542.518 948.539 548.456 954.463 555.782 954.463Z" fill="#4B4745"/>
<path d="M564.903 971.693C566.422 969.81 567.806 969.516 569.055 970.811C570.929 972.753 568.401 979.524 564.337 979.524" stroke="#4A4A4A" stroke-linecap="round"/>
<path fill-rule="evenodd" clip-rule="evenodd" d="M533.281 972.186C543.791 969.304 550.497 964.508 553.398 957.8C556.986 962.929 560.905 966.426 565.155 968.291C566.221 964.553 566.454 960.561 565.854 956.313C564.953 949.941 560.311 945.516 554.856 944.628C549.148 940.154 540.199 942.733 534.451 952.627C530.618 959.223 530.229 965.743 533.281 972.186Z" fill="#4B4745"/>
<path d="M533.515 973.59C531.994 972.273 530.558 972.273 529.206 973.59C527.178 975.565 532.137 981.134 535.323 980.591" stroke="#4A4A4A" stroke-linecap="round"/>
<path d="M534.277 976.615L530.86 975.477" stroke="#4A4A4A" stroke-linecap="round"/>
<path d="M564.719 974.964L566.948 973.546" stroke="#4A4A4A" stroke-linecap="round"/>
<path fill-rule="evenodd" clip-rule="evenodd" d="M602.882 1052.97C604.041 1060.29 603.2 1066.5 600.358 1071.59C596.096 1079.23 565.46 1093.77 555.778 1095.76C546.096 1097.75 528.733 1093.24 528.733 1091.26C528.733 1089.28 544.602 1089.78 546.096 1088.25C540.406 1082.04 539.96 1078.17 544.598 1080.37C549.237 1082.56 550.793 1085.34 555.778 1085.34L587.213 1068.3L585.715 1054.9L602.882 1052.97Z" fill="white" stroke="#4A4A4A" stroke-linejoin="round"/>
<path d="M531.146 965.704C539.257 960.339 544.74 955.017 547.592 949.738" stroke="white"/>
<path fill-rule="evenodd" clip-rule="evenodd" d="M561.605 1003.31C576.164 1008.34 585.63 1012.6 590.001 1016.07C594.372 1019.55 599.41 1032.27 605.114 1054.24L584.337 1055.64L581.75 1045.76V1063.62L585.556 1082.56L524.944 1096.87L527.286 1059.22L522.342 1054.24L513.931 1068.97L498.313 1058.56C503.469 1036.3 507.796 1026.63 513.243 1021.25C518.691 1015.87 527.974 1010.35 541.095 1004.68C540.237 1008.36 540.711 1011.38 542.516 1013.74C547.253 1019.95 560.473 1023.09 563.715 1012.35C564.676 1009.17 563.973 1006.16 561.605 1003.31Z" fill="#D37F1D"/>
<path d="M532.094 969.484C540.973 964.72 546.974 959.995 550.095 955.307" stroke="white"/>
<path d="M561.606 988.988C561.606 996.37 561.606 1001.14 561.606 1003.31C561.606 1005.48 562.31 1007.52 563.717 1009.45" stroke="#4A4A4A" stroke-linecap="round"/>
<path d="M547.252 967.695C547.943 969.751 548.289 972.111 548.289 974.777C548.289 978.776 547.252 983.638 547.77 984.477C548.116 985.036 549.282 985.036 551.268 984.477" stroke="#4A4A4A" stroke-linecap="round"/>
<path d="M541.095 944.51C548.297 941.496 553.192 941.255 555.78 943.787C560.264 944.553 563.39 947.337 565.157 952.139" stroke="white"/>
<path d="M557.675 979.036C561.338 979.036 564.307 976.074 564.307 972.42C564.307 968.766 561.338 965.804 557.675 965.804C554.013 965.804 551.043 968.766 551.043 972.42C551.043 976.074 554.013 979.036 557.675 979.036Z" stroke="#1D70D3"/>
<path d="M540.62 979.981C544.283 979.981 547.252 977.019 547.252 973.365C547.252 969.712 544.283 966.75 540.62 966.75C536.958 966.75 533.988 969.712 533.988 973.365C533.988 977.019 536.958 979.981 540.62 979.981Z" stroke="#1D70D3"/>
<path d="M546.854 971.121C548.116 969.395 549.512 969.271 551.043 970.748" stroke="#1D70D3" stroke-linecap="round"/>
<path d="M523.631 1033.77C520.651 1040.9 519.658 1046.1 520.651 1049.36C521.645 1052.61 523.857 1055.9 527.287 1059.22L524.578 1096.87" stroke="#4A4A4A" stroke-linecap="round"/>
<path d="M554.972 971.73C556.681 970.019 558.39 969.845 560.1 971.208" stroke="#4A4A4A" stroke-linecap="round"/>
<path d="M547.113 989.149C548.554 989.913 550.437 989.647 552.762 988.35" stroke="#4A4A4A" stroke-linecap="round"/>
<path d="M542.816 972.254C541.064 970.953 539.386 971.155 537.784 972.86" stroke="#4A4A4A" stroke-linecap="round"/>
<path fill-rule="evenodd" clip-rule="evenodd" d="M488.799 1013.69C492.001 1037.45 494.156 1051.2 495.265 1054.93C500.981 1074.16 516.299 1065.4 517.577 1055.43C518.429 1048.78 513.022 1033.25 501.355 1008.82C502.944 1004.1 503.797 1000.08 503.914 996.747C504.013 993.925 504.14 991.33 504.294 988.96C504.338 988.283 503.7 987.851 502.869 987.996C502.858 987.998 502.848 987.999 502.837 988.002C501.926 988.175 501.108 988.821 500.837 989.579L498.375 996.464L495.417 983.458C495.271 982.814 494.521 982.495 493.668 982.714C492.861 982.922 492.239 983.609 492.28 984.249C492.28 984.257 492.281 984.265 492.282 984.273L493.292 995.449L489.987 983.873C489.803 983.227 488.975 982.961 488.116 983.272C487.249 983.586 486.65 984.359 486.747 985.042L488.45 997.12L484.831 987.131C484.571 986.413 483.607 986.145 482.629 986.518C481.684 986.879 481.075 987.754 481.269 988.471C481.271 988.478 481.273 988.485 481.275 988.492L484.657 999.99L480.716 994.287C480.259 993.625 479.144 993.525 478.173 994.057C477.215 994.583 476.752 995.56 477.134 996.252C480.26 1001.92 482.191 1005.69 482.925 1007.56C483.711 1009.57 485.669 1011.61 488.799 1013.69Z" fill="white" stroke="#4B4745" stroke-linejoin="round"/>
<path d="M497.052 993.655C496.504 995.469 495.765 997.064 494.836 998.438C493.443 1000.5 488.856 1002.12 487.803 1005.24" stroke="#4A4A4A"/>
<path d="M484.19 997.187C484.157 996.756 487.143 993.843 493.66 993.115" stroke="#4A4A4A"/>
<path fill-rule="evenodd" clip-rule="evenodd" d="M581.467 1069.64C585.71 1071.19 593.66 1072.58 596.31 1084.57C598.076 1092.56 600 1100.87 602.082 1109.5C604.658 1111.73 606.508 1113.17 607.631 1113.8C610.512 1115.42 612.942 1115.59 612.733 1116.63C612.235 1119.1 601.676 1117.24 597.06 1117.24C593.983 1117.24 592.584 1114.82 592.864 1110C589.269 1102.02 586.18 1093.8 583.596 1085.33L579.426 1085.22C576.593 1079.1 577.273 1073.91 581.467 1069.64Z" fill="white" stroke="#4A4A4A" stroke-linejoin="round"/>
<path fill-rule="evenodd" clip-rule="evenodd" d="M569.765 1085.53H580.372C575.697 1077.62 581.313 1069.68 582.341 1069.68C583.026 1069.68 578.834 1068.39 569.765 1065.82L567.149 1060.93C546.985 1062.26 536.61 1062.92 536.024 1062.92C535.144 1062.92 532.459 1088.72 542.283 1090.91C548.832 1092.37 553.28 1091.56 555.628 1088.47L569.765 1085.53Z" fill="#5C8B83"/>
<path d="M546.768 1070.32L557.769 1072.86" stroke="white"/>
<path fill-rule="evenodd" clip-rule="evenodd" d="M561.973 1074.08C566.217 1075.66 568.333 1077.86 570.594 1087.27C572.101 1093.53 573.812 1101.24 575.728 1110.37C577.693 1112.36 579.38 1115.19 580.789 1118.87C582.258 1122.7 579.113 1123.7 577.711 1120.32C578.012 1123.69 575.029 1122.91 573.621 1122.91C570.543 1122.91 568.386 1119.67 567.148 1113.19C563.553 1105.06 560.464 1096.68 557.88 1088.05L553.761 1088.87C550.451 1081.75 551.424 1076.46 556.681 1073.01C558.791 1073.19 560.555 1073.55 561.973 1074.08Z" fill="white" stroke="#4A4A4A" stroke-linejoin="round"/>
<path d="M595.654 1110.07C595.686 1112.05 596.505 1113.04 598.112 1113.04" stroke="#4A4A4A" stroke-linecap="round"/>
<path d="M576.149 1122.63C575.887 1122.31 575.571 1121.54 575.201 1120.33" stroke="#4A4A4A" stroke-linecap="round"/>
<path d="M573.68 1122.63L573.093 1120.47" stroke="#4A4A4A" stroke-linecap="round"/>
<path d="M571.412 1122.22V1120.33" stroke="#4A4A4A" stroke-linecap="round"/>
<path fill-rule="evenodd" clip-rule="evenodd" d="M546.099 1027.21C542.094 1027.93 539.423 1028.63 538.086 1029.32C534.314 1031.25 532.529 1034.34 531.709 1038.17C531.066 1041.17 531.152 1045.76 533.668 1049.07C533.978 1052.78 534.429 1059.63 535.018 1069.64L569.766 1065.82C567.912 1054.03 566.602 1046.13 565.834 1042.14L575.314 1042.93L576.154 1032.85C570.831 1031.21 566.544 1029.74 563.294 1028.45C561.669 1027.81 555.937 1027.39 546.099 1027.21Z" fill="#FFCC00"/>
<path d="M565.835 1042.14L567.136 1034.74" stroke="#626366"/>
<path fill-rule="evenodd" clip-rule="evenodd" d="M576.583 1033.96L581.407 1034.72L593.245 1012.35C593.245 1010.36 593.245 1008.51 593.245 1006.81C593.245 1005.35 593.461 1003.68 593.894 1001.81C594.022 1001.25 594.518 1000.85 595.089 1000.85C595.635 1000.85 596.094 1001.27 596.153 1001.81L596.739 1007.25L600.667 999.235C600.91 998.739 601.508 998.534 602.003 998.777C602.01 998.781 602.017 998.784 602.024 998.788C602.551 999.063 602.81 999.673 602.644 1000.24L601.117 1005.47L604.405 1000.2C604.741 999.661 605.421 999.453 606 999.712C606.559 999.962 606.813 1000.62 606.57 1001.18L603.951 1007.25L608.023 1003.17C608.43 1002.77 609.085 1002.75 609.513 1003.14C609.941 1003.52 609.993 1004.18 609.631 1004.63L604.991 1010.39L609.516 1007.71C609.942 1007.45 610.492 1007.58 610.767 1007.99C611.051 1008.41 610.983 1008.98 610.607 1009.33C606.631 1012.97 603.468 1015.47 601.117 1016.84C598.522 1022.21 590.913 1043.74 586.408 1044.89C583.405 1045.65 579.245 1045.32 573.927 1043.88L576.583 1033.96Z" fill="white" stroke="#4A4A4A" stroke-linejoin="round"/>
<path d="M550.398 1029.32C551.892 1033.72 554.047 1035.72 556.864 1035.32C559.682 1034.92 560.912 1033.22 560.556 1030.23" stroke="#626366"/>
<path d="M540.562 1009.45L546.099 1011.37" stroke="#4A4A4A" stroke-linecap="round"/>
<path fill-rule="evenodd" clip-rule="evenodd" d="M546.304 1027.15C542.393 1023.39 542.569 1018.63 542.17 1015.78C539.678 1015.37 537.993 1011.11 539.333 1007.87C540.226 1005.71 541.525 1005.32 543.231 1006.7C542.925 1000.39 546.418 997.228 553.711 997.228C564.651 997.228 567.373 1003.52 566.012 1011.73C564.651 1019.95 566.733 1019.19 566.012 1024.13C565.291 1029.07 558.298 1033.66 550.28 1029.83" fill="white"/>
<path d="M546.304 1027.15C542.393 1023.39 542.569 1018.63 542.17 1015.78C539.678 1015.37 537.993 1011.11 539.333 1007.87C540.226 1005.71 541.525 1005.32 543.231 1006.7C542.925 1000.39 546.418 997.228 553.711 997.228C564.651 997.228 567.373 1003.52 566.012 1011.73C564.651 1019.95 566.733 1019.19 566.012 1024.13C565.291 1029.07 558.298 1033.66 550.28 1029.83" stroke="#4A4A4A" stroke-linecap="round" stroke-linejoin="round"/>
<path fill-rule="evenodd" clip-rule="evenodd" d="M543.337 1008.3C544.697 1010.18 544.295 1015.59 545.415 1015.89C546.536 1016.18 545.896 1007.4 546.639 1006.93C547.381 1006.46 549.785 1005.27 550.765 1002.34C553.702 1005.05 557.783 1008.06 567.07 1006.93C567.532 1002.69 565.986 998.92 562.434 995.63C557.105 990.694 548.013 991.452 543.926 996.208C539.529 996.554 537.921 1001.15 539.101 1009.98C540.543 1007.53 541.954 1006.97 543.337 1008.3Z" fill="#4A4A4A"/>
<path d="M565.274 1007.55C562.196 1006.32 560.027 1004.3 558.77 1001.5" stroke="white"/>
<path d="M559.347 1007.78C556.442 1006.18 554.536 1003.92 553.63 1000.99" stroke="white"/>
<path d="M559.83 1015.89C560.073 1017.74 560.544 1018.96 561.245 1019.56C561.945 1020.16 561.698 1020.76 560.503 1021.34" stroke="#4A4A4A" stroke-linecap="round"/>
<path d="M562.314 1012.6C563.556 1011.86 564.644 1011.85 565.576 1012.59" stroke="#4A4A4A" stroke-linecap="round"/>
<path d="M551.99 1012.79C553.304 1011.93 554.517 1011.93 555.628 1012.79" stroke="#4A4A4A" stroke-linecap="round"/>
<path d="M542.283 1012.11L540.524 1010.7" stroke="#4A4A4A" stroke-linecap="round"/>
<path fill-rule="evenodd" clip-rule="evenodd" d="M561.634 1024.2C559.518 1024.29 557.917 1024.11 556.83 1023.66C557.225 1025.3 557.929 1026.12 558.943 1026.12C559.957 1026.12 560.854 1025.48 561.634 1024.2Z" fill="#FF9B6D"/>
<path d="M581.834 1066.93C590.467 1066.93 597.466 1059.95 597.466 1051.34C597.466 1042.72 590.467 1035.74 581.834 1035.74C573.2 1035.74 566.201 1042.72 566.201 1051.34C566.201 1059.95 573.2 1066.93 581.834 1066.93Z" fill="#0ACC94"/>
<path fill-rule="evenodd" clip-rule="evenodd" d="M549.014 1048.41L550.737 1052.28L575.268 1063.88C577.408 1062.78 579.17 1062.05 580.553 1061.67C581.688 1061.35 582.81 1060.99 583.919 1060.57C584.341 1060.42 584.815 1060.59 585.038 1060.98C585.262 1061.37 585.16 1061.87 584.8 1062.14L582.738 1063.7H592.232C588.514 1068.11 585.067 1070.32 581.891 1070.32C578.715 1070.32 576.197 1069.97 574.336 1069.27C559.021 1066.43 549.671 1063.9 546.287 1061.67C542.903 1059.43 540.382 1057.02 538.726 1054.42" fill="white"/>
<path d="M549.014 1048.41L550.737 1052.28L575.268 1063.88C577.408 1062.78 579.17 1062.05 580.553 1061.67C581.688 1061.35 582.81 1060.99 583.919 1060.57C584.341 1060.42 584.815 1060.59 585.038 1060.98C585.262 1061.37 585.16 1061.87 584.8 1062.14L582.738 1063.7H592.232C588.514 1068.11 585.067 1070.32 581.891 1070.32C578.715 1070.32 576.197 1069.97 574.336 1069.27C559.021 1066.43 549.671 1063.9 546.287 1061.67C542.903 1059.43 540.382 1057.02 538.726 1054.42" stroke="#4A4A4A" stroke-linejoin="round"/>
<path d="M540.524 1032.34C543.048 1035.22 545.474 1039.01 547.8 1043.7L549.989 1047.87L538.726 1054.42L535.018 1049.59" stroke="#626366"/>
<path fill-rule="evenodd" clip-rule="evenodd" d="M557.771 1091.61C550.289 1085.58 545.635 1082.56 543.809 1082.56C541.984 1082.56 542.971 1084.53 546.77 1088.47C535.317 1089.83 530.877 1090.88 533.45 1091.61C536.023 1092.35 538.531 1092.51 540.974 1092.11" fill="white"/>
<path d="M557.771 1091.61C550.289 1085.58 545.635 1082.56 543.809 1082.56C541.984 1082.56 542.971 1084.53 546.77 1088.47C535.317 1089.83 530.877 1090.88 533.45 1091.61C536.023 1092.35 538.531 1092.51 540.974 1092.11" stroke="#4A4A4A" stroke-linejoin="round"/>
<path d="M596.74 1007.25L599.214 1012.11" stroke="#4A4A4A" stroke-linecap="round"/>
</svg>
