<svg width="648" height="1147" viewBox="0 0 648 1147" fill="none" xmlns="http://www.w3.org/2000/svg">
<path d="M648 1064.25V0H17V1062.13C231.035 1210.81 527.408 1126.2 648 1064.25Z" fill="#FFF6CC"/>
<mask id="mask0_230_123" style="mask-type:alpha" maskUnits="userSpaceOnUse" x="11" y="890" width="227" height="244">
<path d="M234.212 1009.5C229.782 1070.66 275.689 1178.04 115.494 1113.69C3.14963 1068.56 8.60015 1054.66 13.0309 993.495C17.4617 932.329 70.5668 886.327 131.644 890.746C192.723 895.164 238.644 948.33 234.212 1009.5Z" fill="#C4C4C4"/>
</mask>
<g mask="url(#mask0_230_123)">
<path fill-rule="evenodd" clip-rule="evenodd" d="M185.384 976.59C180.704 992.959 177.818 1002.44 176.725 1005.04C171.088 1018.41 163.049 1013.02 163.461 1006.25C163.735 1001.74 168.756 990.91 178.524 973.753C178.137 970.588 178.103 967.871 178.424 965.6C178.696 963.675 178.925 961.905 179.112 960.292C179.165 959.83 179.593 959.51 180.069 959.576C180.073 959.577 180.08 959.578 180.086 959.579C180.606 959.662 181.014 960.071 181.086 960.579L181.736 965.189L185.01 956.182C185.173 955.736 185.654 955.488 186.132 955.605C186.586 955.715 186.873 956.16 186.774 956.599C186.773 956.604 186.771 956.61 186.771 956.615L184.863 964.296L188.175 956.252C188.36 955.803 188.881 955.589 189.353 955.768C189.83 955.948 190.094 956.453 189.956 956.924L187.532 965.248L190.845 958.277C191.083 957.776 191.685 957.554 192.219 957.771C192.737 957.981 192.995 958.555 192.796 959.053C192.793 959.058 192.793 959.063 192.791 959.067L189.441 967.061L192.442 963.007C192.79 962.537 193.461 962.425 193.974 962.751C194.479 963.072 194.638 963.722 194.332 964.21C191.817 968.207 190.233 970.861 189.579 972.17C188.879 973.574 187.481 975.047 185.384 976.59Z" fill="white" stroke="#4B4745" stroke-width="0.75" stroke-linejoin="round"/>
<path d="M181.64 964.503C181.775 965.792 182.06 966.916 182.494 967.874C183.147 969.312 185.927 970.318 186.229 972.535" stroke="#4B4745" stroke-width="0.75"/>
<path d="M189.653 967.346C189.743 966.948 188.236 964.419 184.058 964.084" stroke="#4B4745" stroke-width="0.75"/>
<path fill-rule="evenodd" clip-rule="evenodd" d="M64.4184 959.029C66.5262 975.79 67.9278 985.522 68.623 988.226C72.2054 1002.16 81.3365 997.91 82.0266 991.184C82.4865 986.7 79.1181 975.352 71.9215 957.139C72.8387 954.07 73.3194 951.395 73.3637 949.113C73.4013 947.179 73.4572 945.403 73.5314 943.787C73.5527 943.325 73.1661 942.953 72.6681 942.955C72.6618 942.956 72.6555 942.956 72.6492 942.956C72.1034 942.969 71.6168 943.318 71.4599 943.809L70.0355 948.27L68.1578 938.953C68.0648 938.492 67.6117 938.185 67.1015 938.236C66.6183 938.284 66.2502 938.685 66.2797 939.131C66.28 939.137 66.2804 939.143 66.2809 939.148L66.9746 946.975L64.8997 938.604C64.7841 938.137 64.285 937.857 63.7715 937.97C63.2529 938.085 62.8996 938.548 62.9628 939.031L64.0798 947.56L61.8287 940.247C61.6672 939.722 61.0856 939.424 60.5015 939.567C59.9364 939.705 59.5776 940.237 59.7 940.754C59.701 940.759 59.7022 940.764 59.7036 940.769L61.8243 949.095L59.413 944.7C59.1334 944.191 58.463 943.991 57.884 944.244C57.3127 944.495 57.0423 945.114 57.2768 945.636C59.1988 949.911 60.3875 952.737 60.843 954.115C61.3309 955.592 62.5227 957.23 64.4184 959.029Z" fill="white" stroke="#4B4745" stroke-width="0.75" stroke-linejoin="round"/>
<path d="M70.0454 947.517C69.7011 948.763 69.2324 949.826 68.6396 950.708C67.7503 952.031 64.7939 952.651 64.1305 954.783" stroke="#4B4745" stroke-width="0.75"/>
<path d="M61.555 949.16C61.529 948.764 63.4267 946.52 67.6311 946.743" stroke="#4B4745" stroke-width="0.75"/>
<path fill-rule="evenodd" clip-rule="evenodd" d="M46.6387 980.206C62.3011 987.252 66.6161 997.677 59.5839 1011.48C66.6845 1004.56 78.1543 1001.89 93.9932 1003.47C77.2746 996.175 66.8575 990.894 62.7419 987.629C58.6262 984.365 53.2585 981.89 46.6387 980.206Z" fill="#1D70D3"/>
<path fill-rule="evenodd" clip-rule="evenodd" d="M102.67 986.83L107.49 994.213L106.177 1001.41C92.6682 1005.05 81.2401 1003.02 71.8926 995.346C62.5452 987.669 53.857 984.339 45.8282 985.357C47.4962 981.249 46.0876 978.61 41.6025 977.439C49.8695 977.853 57.9463 980.939 65.8333 986.697C73.7202 992.455 85.9991 992.499 102.67 986.83Z" fill="white" stroke="#1D70D3" stroke-width="0.75" stroke-linecap="round" stroke-linejoin="round"/>
<path d="M118.283 994.168C109.643 998.199 101.676 999.2 94.3828 997.169" stroke="#1D70D3" stroke-width="0.75"/>
<path fill-rule="evenodd" clip-rule="evenodd" d="M101.352 967.277L98.766 962.664L94.3635 952.274L98.7309 947.022C98.1284 946.249 97.0231 946.062 96.2621 946.605C96.1983 946.65 96.138 946.7 96.0818 946.754L94.5038 948.272L94.6555 942.588C94.668 942.121 94.3519 941.688 93.8887 941.537C93.491 941.407 93.0785 941.61 92.9678 941.99C92.9618 942.01 92.9567 942.031 92.9526 942.052L92.1055 946.474L91.6843 944.751C91.4074 943.617 90.2497 942.864 89.0987 943.068C88.7874 943.124 88.4969 943.247 88.2484 943.429C86.6454 944.604 85.9684 946.635 86.5249 948.598L92.9567 971.289L101.352 967.277Z" fill="white" stroke="#4B4745" stroke-width="0.75" stroke-linejoin="round"/>
<path d="M94.7185 948.256L90.7196 950.058" stroke="#4B4745" stroke-width="0.75" stroke-linecap="round"/>
<path fill-rule="evenodd" clip-rule="evenodd" d="M128.615 971.479L131.797 966.326L137.141 956.436L133.59 950.692C134.319 950.013 135.46 949.977 136.138 950.612C136.195 950.665 136.248 950.722 136.296 950.783L137.64 952.485L138.395 946.879C138.457 946.419 138.844 946.036 139.334 945.949C139.754 945.875 140.137 946.129 140.187 946.517C140.19 946.538 140.192 946.56 140.193 946.581L140.338 951.039L141.036 949.402C141.496 948.325 142.78 947.739 143.904 948.094C144.208 948.19 144.481 948.35 144.701 948.562C146.113 949.919 146.418 952.01 145.468 953.817L135.144 973.451L128.615 971.479Z" fill="white" stroke="#4B4745" stroke-width="0.75" stroke-linejoin="round"/>
<path d="M137.344 952.421L141.059 954.722" stroke="#4B4745" stroke-width="0.75" stroke-linecap="round"/>
<path fill-rule="evenodd" clip-rule="evenodd" d="M121.938 962.721L122.356 971.587L109.99 979.725C105.152 977.08 102.168 974.87 101.04 973.097C99.9115 971.323 101.671 967.441 106.319 961.451C110.162 960.127 113.189 959.555 115.399 959.734C117.609 959.914 119.789 960.909 121.938 962.721Z" fill="white"/>
<path fill-rule="evenodd" clip-rule="evenodd" d="M122.542 961.164C122.542 961.164 126.592 966.618 123.817 966.435C121.967 966.312 119.355 964.778 115.98 961.832C117.868 963.964 117.787 964.962 115.739 964.826C113.69 964.691 111.586 964.135 109.426 963.159C109.477 966.181 108.744 967.993 107.227 968.594C105.71 969.195 105.247 970.687 105.838 973.07C104.198 970.674 103.051 970.315 102.397 971.994C99.3622 969.304 99.3835 965.993 99.5017 964.527C99.6525 962.657 100.355 961.474 101.609 960.98C101.049 958.041 102.697 956.371 106.553 955.971C112.336 955.371 123.638 958.99 125.15 960.621C126.663 962.251 122.542 961.164 122.542 961.164Z" fill="#4A4B50"/>
<path fill-rule="evenodd" clip-rule="evenodd" d="M104.188 974.069L101.772 970.075L95.388 953.187C90.7532 954.193 87.6168 955.269 85.9791 956.416C88.625 966.356 90.5877 973.083 91.8673 976.596C93.1468 980.11 95.2725 984.195 98.2445 988.852L99.4148 1009.15C101.85 1010.94 103.962 1010.76 105.749 1008.62C107.536 1006.49 109.486 1001.8 111.599 994.574L129.475 987.3C132.151 982.923 134.496 979.523 136.509 977.1C138.522 974.678 141.054 969.198 144.105 960.66L136.552 957.133L128.255 971.829L125.386 975.473C118.659 978.786 114.186 980.369 111.965 980.222C110.369 980.116 108.535 979.641 106.555 977.569C106.038 977.028 105.249 975.862 104.188 974.069Z" fill="#FFCC00"/>
<path fill-rule="evenodd" clip-rule="evenodd" d="M122.012 966.315C122.111 969.641 122.351 971.928 122.733 973.175C123.304 975.045 123.975 980.322 118.239 981.15C114.414 981.702 110.482 980.531 106.443 977.636" fill="white"/>
<path d="M122.012 966.315C122.111 969.641 122.351 971.928 122.733 973.175C123.304 975.045 123.975 980.322 118.239 981.15C114.414 981.702 110.482 980.531 106.443 977.636" stroke="#4B4745" stroke-width="0.75" stroke-linecap="round" stroke-linejoin="round"/>
<path fill-rule="evenodd" clip-rule="evenodd" d="M120.23 976.138L117.034 976.644C117.489 977.386 118.111 977.783 118.902 977.836C119.692 977.888 120.135 977.322 120.23 976.138Z" fill="#4B4745"/>
<path d="M118.216 970.695C118.381 971.461 118.93 972.128 119.865 972.696C120.8 973.264 120.586 973.812 119.224 974.341" stroke="#4B4745" stroke-width="0.75" stroke-linecap="round" stroke-linejoin="round"/>
<path d="M118.606 969.45C119.614 968.384 120.578 968.276 121.5 969.126" stroke="#4A4A4A" stroke-width="0.75" stroke-linecap="round"/>
<path d="M111.401 970.213C112.352 969.146 113.317 969.045 114.297 969.91" stroke="#4A4A4A" stroke-width="0.75" stroke-linecap="round"/>
<path fill-rule="evenodd" clip-rule="evenodd" d="M127.588 1021.64C125.323 1029.77 121.497 1033.29 116.11 1032.2C108.03 1030.57 103.356 1018.18 103.399 1017.63C103.427 1017.26 104.287 1015.85 105.979 1013.4L127.588 1021.64Z" fill="white"/>
<path fill-rule="evenodd" clip-rule="evenodd" d="M137.454 1079.87C134.524 1116.5 132.69 1139.41 131.954 1148.61C131.218 1157.81 129.215 1182.85 125.946 1223.71L110.48 1222.68L111.674 1107.98L108.427 1107.76C98.6348 1140.41 91.8979 1161.18 88.2163 1170.06C84.5346 1178.95 77.3218 1195.51 66.5778 1219.75L50.4959 1218.68C63.2061 1175.38 71.1227 1148.53 74.2453 1138.11C76.8917 1129.29 77.4334 1113.33 82.596 1086.64C83.2153 1083.43 85.3063 1077.74 88.8687 1069.55L137.454 1079.87Z" fill="#323443"/>
<path d="M94.7961 1071.94C89.6108 1079.36 86.5668 1088.87 85.6639 1100.48C84.3097 1117.89 78.4146 1142.25 75.682 1150.71C73.8603 1156.36 66.743 1179.48 54.3303 1220.09" stroke="white" stroke-width="0.75" stroke-linecap="round" stroke-linejoin="round"/>
<path d="M110.393 1107.19C113.024 1107.2 114.08 1110.63 113.563 1117.46C113.046 1124.3 112.644 1159.8 112.357 1223.96" stroke="white" stroke-width="0.75" stroke-linecap="round" stroke-linejoin="round"/>
<path fill-rule="evenodd" clip-rule="evenodd" d="M96.563 1010.83L83.2989 994.214L74.7612 960.342L62.0676 966.498C65.3538 989.306 67.6437 1002.41 68.937 1005.81C69.6998 1007.82 72.4071 1011.86 77.0591 1017.92C79.2162 1020.73 83.3925 1025.93 89.588 1033.52C87.7305 1051.21 87.2409 1063.81 88.1186 1071.33C103.829 1079.34 119.884 1081.94 136.285 1079.14L142.045 1040.54C155.443 1031.92 164.813 1025.59 170.154 1021.55C175.496 1017.5 180.944 1004.57 186.5 982.757L176.084 978.637L159.751 1007.04L136.645 1019.26L126.105 1022.2C124.647 1027.81 121.952 1030.86 118.02 1031.34C114.088 1031.83 110.244 1027.96 106.488 1019.73L96.563 1010.83Z" fill="#6B74C1"/>
<path fill-rule="evenodd" clip-rule="evenodd" d="M130.877 1011.44C135.757 1011.09 138.882 1012.49 140.253 1015.63C141.625 1018.76 144.404 1025.22 148.591 1034.99C141.321 1035.73 136.691 1038.1 134.701 1042.1C132.535 1033.4 131.56 1027.63 131.777 1024.8C131.994 1021.98 130.668 1020.76 127.8 1021.17L130.877 1011.44Z" fill="#5C8B83"/>
<path fill-rule="evenodd" clip-rule="evenodd" d="M112.432 1036.51C110.459 1039.89 109.606 1042.61 109.875 1044.66C110.144 1046.71 111.255 1046.29 113.207 1043.4C111.961 1047.9 112.618 1049.74 115.178 1048.93C117.737 1048.12 118.332 1044.56 116.963 1038.25C119.94 1037.52 123.077 1035.44 126.373 1032.02C129.668 1028.59 130.446 1024.83 128.707 1020.74L124.813 1026.3C120.801 1031.26 117.056 1032.4 113.579 1029.72C110.102 1027.03 107.5 1022.37 105.772 1015.73C103.04 1017.87 101.984 1019.56 102.604 1020.81C103.461 1022.52 109.8 1035.11 112.432 1036.51Z" fill="#D37F1D"/>
<path d="M117.435 1038.54C116.157 1037.37 115.027 1036.94 114.043 1037.23" stroke="#4B4745" stroke-width="0.75" stroke-linecap="round"/>
<path d="M105.492 1021.62L110.143 1030.42" stroke="#4B4745" stroke-width="0.75" stroke-linecap="round"/>
<path d="M127.107 1022.7C126.793 1026.61 124.096 1030.05 119.017 1033.01" stroke="#4B4745" stroke-width="0.75" stroke-linecap="round"/>
<path fill-rule="evenodd" clip-rule="evenodd" d="M104.338 1017.31C105.603 1014.3 106.495 1012.04 107.014 1010.54C105.453 1010.43 104.231 1005.36 104.753 1002.53C105.101 1000.64 107.073 1000.21 110.67 1001.25L111.127 995.587L113.596 992.235L120.376 991.407L133.014 992.898L134.346 1000.2C133.094 1003.84 132.154 1007.55 131.527 1011.34C130.585 1017.02 128.62 1019.7 127.815 1021.41C127.01 1023.11 126.795 1026.31 120.15 1025.28C115.72 1024.6 112.596 1021.58 110.777 1016.23" fill="white"/>
<path d="M104.338 1017.31C105.603 1014.3 106.495 1012.04 107.014 1010.54C105.453 1010.43 104.231 1005.36 104.753 1002.53C105.101 1000.64 107.073 1000.21 110.67 1001.25L111.127 995.587L113.596 992.235L120.376 991.407L133.014 992.898L134.346 1000.2C133.094 1003.84 132.154 1007.55 131.527 1011.34C130.585 1017.02 128.62 1019.7 127.815 1021.41C127.01 1023.11 126.795 1026.31 120.15 1025.28C115.72 1024.6 112.596 1021.58 110.777 1016.23" stroke="#4B4745" stroke-width="0.75" stroke-linecap="round"/>
<path d="M127.699 1003.95C128.734 1003.23 129.712 1003.21 130.635 1003.9" stroke="#4A4A4A" stroke-width="0.75" stroke-linecap="round"/>
<path d="M120.027 1003.89C119.017 1003.02 117.981 1003.07 116.917 1004.04" stroke="#4A4A4A" stroke-width="0.75" stroke-linecap="round"/>
<path d="M126.222 1002.19C125.12 1004.13 124.68 1005.69 124.902 1006.87C125.236 1008.64 126.224 1012.08 124.499 1011.96C123.349 1011.88 122.639 1011.5 122.368 1010.83" stroke="#4B4745" stroke-width="0.75" stroke-linecap="round"/>
<path fill-rule="evenodd" clip-rule="evenodd" d="M105.565 1008.23C101.108 1006.19 98.027 1006.59 96.3207 1009.45C93.7616 1013.74 95.3565 1021.5 94.9109 1027.07C94.6136 1030.78 95.4024 1034.66 97.2766 1038.72C97.6743 1034.24 99.3241 1031.67 102.226 1031C105.128 1030.33 107.253 1030.48 108.599 1031.43C107.512 1025.44 107.036 1021.6 107.17 1019.92C107.305 1018.24 107.772 1015.2 108.572 1010.83" fill="#5C8B83"/>
<path d="M103.927 1035.4C103.927 1035.4 99.851 1042.7 97.3499 1038.34" stroke="white" stroke-width="0.75" stroke-linecap="round" stroke-linejoin="round"/>
<path fill-rule="evenodd" clip-rule="evenodd" d="M109.931 1002.36C109.103 1000.25 106.852 999.49 104.847 1002.02C102.843 1004.56 105.245 1007.41 105.363 1008.68C105.481 1009.96 107.446 1011.14 108.737 1010.06" fill="white"/>
<path d="M109.931 1002.36C109.103 1000.25 106.852 999.49 104.847 1002.02C102.843 1004.56 105.245 1007.41 105.363 1008.68C105.481 1009.96 107.446 1011.14 108.737 1010.06" stroke="#4B4745" stroke-width="0.75" stroke-linecap="round"/>
<path d="M121.027 1025.91C120.586 1026.93 120.061 1027.57 119.451 1027.82" stroke="#4B4745" stroke-width="0.75" stroke-linecap="round"/>
<path fill-rule="evenodd" clip-rule="evenodd" d="M109.598 1004.14C109.802 1006.85 109.869 1008.63 109.8 1009.5C109.696 1010.79 108.289 1015.64 109.847 1018.67C111.405 1021.71 114.501 1025.12 119.638 1025.89C124.775 1026.65 126.159 1025.63 127.27 1023.41C128.01 1021.94 128.891 1019.49 129.911 1016.07C128.924 1017.19 128.302 1017.58 128.046 1017.25C127.661 1016.75 128.356 1014.95 125.626 1013.88C122.897 1012.81 119.157 1011.97 117.159 1012.68C115.827 1013.16 114.878 1013.8 114.312 1014.6C114.657 1011.58 114.474 1009.8 113.762 1009.26C112.694 1008.45 111.071 1008.78 111.349 1005.33C111.534 1003.04 111.778 1000.87 112.081 998.825C114.261 998.679 116.588 997.839 119.063 996.305C118.095 997.907 118.034 998.665 118.88 998.58C119.726 998.495 121.961 997.672 125.585 996.112C123.25 998.345 123.051 999.303 124.989 998.986C126.927 998.668 129.381 997.739 132.349 996.199C133.182 998.531 133.738 999.8 134.018 1000C133.899 1000.32 133.591 1001.27 133.093 1002.87C134.135 1002.25 135.497 1000.46 137.179 997.508C139.701 993.084 139.646 991.432 137.734 990.614C139.165 987.906 136.993 986.666 131.218 986.892C122.557 987.231 115.94 981.948 111.582 987.387C107.684 986.284 106.32 991.126 107.49 1001.91C108.08 1002.29 108.502 1002.61 108.757 1002.87C109.011 1003.14 109.291 1003.56 109.598 1004.14Z" fill="#4B4745"/>
<path fill-rule="evenodd" clip-rule="evenodd" d="M125.271 1015.86L119.464 1014.36C119.634 1016.68 120.393 1017.98 121.742 1018.26C123.09 1018.54 124.266 1017.74 125.271 1015.86Z" fill="white"/>
<path fill-rule="evenodd" clip-rule="evenodd" d="M105.948 1024.49C103.07 1026.02 101.026 1028.51 99.817 1031.97C99.1042 1032.56 98.4002 1033.78 98.2175 1035.06C97.9346 1037.03 98.622 1040.09 100.294 1041.19C102.127 1042.4 104.01 1039.58 105.943 1032.72L105.948 1024.49Z" fill="#4B4745"/>
<path fill-rule="evenodd" clip-rule="evenodd" d="M100.65 1032.6C101.002 1032.28 102.006 1024.17 107.434 1025.22C112.861 1026.26 106.864 1035.17 105.903 1037.51C104.942 1039.84 105.115 1043.03 101.088 1041.87C97.0619 1040.7 100.297 1032.93 100.65 1032.6Z" fill="white"/>
<path d="M109.464 1029.14L103.959 1027.15" stroke="#D6DCFF" stroke-width="0.75"/>
<path d="M108.661 1032.46L103.156 1030.47" stroke="#D6DCFF" stroke-width="0.75"/>
<path d="M106.737 1035.7L101.233 1033.7" stroke="#D6DCFF" stroke-width="0.75"/>
<path d="M105.377 1038.98L99.8728 1036.98" stroke="#D6DCFF" stroke-width="0.75"/>
<path fill-rule="evenodd" clip-rule="evenodd" d="M149.299 1032.25C147.174 1031.64 144.549 1032.65 141.423 1035.26C136.735 1039.17 136.321 1039.32 135.413 1041.39C135.508 1043.55 136.282 1046.8 137.186 1046.87C137.789 1046.91 141.827 1042.03 149.299 1032.25Z" fill="#4B4745"/>
<path fill-rule="evenodd" clip-rule="evenodd" d="M139.066 1040.16C142.868 1036.82 146.633 1030.43 149.962 1032.54C151.618 1033.59 150.572 1036.09 149.508 1038.44C148.444 1040.8 145.854 1042.35 144.94 1042.96C143.119 1044.18 141.431 1047.72 138.501 1047.52C135.571 1047.32 135.265 1043.49 139.066 1040.16Z" fill="white"/>
<path d="M149.343 1038L144.77 1034.37" stroke="#D6DCFF" stroke-width="0.75"/>
<path d="M147.578 1040.66L143.005 1037.03" stroke="#D6DCFF" stroke-width="0.75"/>
<path d="M144.852 1042.89L140.279 1039.26" stroke="#D6DCFF" stroke-width="0.75"/>
<path d="M141.932 1045.65L137.82 1042.19" stroke="#D6DCFF" stroke-width="0.75"/>
<path d="M112.74 1045.18L114.347 1039.68" stroke="#4B4745" stroke-width="0.75" stroke-linecap="round"/>
</g>
<path fill-rule="evenodd" clip-rule="evenodd" d="M502.871 992.726L503.665 996.546C502.175 995.488 500.894 995.428 499.822 996.365C498.214 997.772 499.498 1001.42 501.743 1002.52C503.24 1003.26 504.433 1003.63 505.323 1003.63C507.036 1009.43 508.662 1013.31 510.203 1015.27C511.744 1017.22 514.582 1019.14 518.715 1021.03H531.604V1011.97C533.405 1008.28 534.306 1005.12 534.306 1002.5C536.451 1001.86 540.326 999.548 539.685 994.731C538.554 992.443 536.898 992.443 534.717 994.731L535.156 981.72L521.268 975.829L502.871 992.726Z" fill="white"/>
<path d="M502.873 992.005C504.512 1001.56 506.344 1008.17 508.369 1011.84C509.795 1014.42 511.595 1016.66 513.711 1018.2M529.581 1015.08C531.1 1013.12 532.195 1010.96 532.923 1009.22C534.001 1006.65 534.745 1000.21 535.157 989.914" stroke="#4A4A4A"/>
<path d="M525.782 977.463C533.107 977.463 539.046 971.539 539.046 964.231C539.046 956.924 533.107 951 525.782 951C518.456 951 512.518 956.924 512.518 964.231C512.518 971.539 518.456 977.463 525.782 977.463Z" fill="#4B4745"/>
<path d="M534.903 994.693C536.422 992.81 537.806 992.516 539.055 993.811C540.929 995.753 538.401 1002.52 534.337 1002.52" stroke="#4A4A4A" stroke-linecap="round"/>
<path fill-rule="evenodd" clip-rule="evenodd" d="M503.281 995.186C513.791 992.304 520.497 987.508 523.398 980.8C526.986 985.929 530.905 989.426 535.155 991.291C536.221 987.553 536.454 983.561 535.854 979.313C534.953 972.941 530.311 968.516 524.856 967.628C519.148 963.154 510.199 965.733 504.451 975.627C500.618 982.223 500.229 988.743 503.281 995.186Z" fill="#4B4745"/>
<path d="M503.515 996.59C501.994 995.273 500.558 995.273 499.206 996.59C497.178 998.565 502.137 1004.13 505.323 1003.59" stroke="#4A4A4A" stroke-linecap="round"/>
<path d="M504.277 999.615L500.86 998.477" stroke="#4A4A4A" stroke-linecap="round"/>
<path d="M534.719 997.964L536.948 996.546" stroke="#4A4A4A" stroke-linecap="round"/>
<path fill-rule="evenodd" clip-rule="evenodd" d="M572.882 1075.97C574.041 1083.29 573.2 1089.5 570.358 1094.59C566.096 1102.23 535.46 1116.77 525.778 1118.76C516.096 1120.75 498.733 1116.24 498.733 1114.26C498.733 1112.28 514.602 1112.78 516.096 1111.25C510.406 1105.04 509.96 1101.17 514.598 1103.37C519.237 1105.56 520.793 1108.34 525.778 1108.34L557.213 1091.3L555.715 1077.9L572.882 1075.97Z" fill="white" stroke="#4A4A4A" stroke-linejoin="round"/>
<path d="M501.146 988.704C509.257 983.339 514.74 978.017 517.592 972.738" stroke="white"/>
<path fill-rule="evenodd" clip-rule="evenodd" d="M531.605 1026.31C546.164 1031.34 555.63 1035.6 560.001 1039.07C564.372 1042.55 569.41 1055.27 575.114 1077.24L554.337 1078.64L551.75 1068.76V1086.62L555.556 1105.56L494.944 1119.87L497.286 1082.22L492.342 1077.24L483.931 1091.97L468.313 1081.56C473.469 1059.3 477.796 1049.63 483.243 1044.25C488.691 1038.87 497.974 1033.35 511.095 1027.68C510.237 1031.36 510.711 1034.38 512.516 1036.74C517.253 1042.95 530.473 1046.09 533.715 1035.35C534.676 1032.17 533.973 1029.16 531.605 1026.31Z" fill="#D37F1D"/>
<path d="M502.094 992.484C510.973 987.72 516.974 982.995 520.095 978.307" stroke="white"/>
<path d="M531.606 1011.99C531.606 1019.37 531.606 1024.14 531.606 1026.31C531.606 1028.48 532.31 1030.52 533.717 1032.45" stroke="#4A4A4A" stroke-linecap="round"/>
<path d="M517.252 990.695C517.943 992.751 518.289 995.111 518.289 997.777C518.289 1001.78 517.252 1006.64 517.77 1007.48C518.116 1008.04 519.282 1008.04 521.268 1007.48" stroke="#4A4A4A" stroke-linecap="round"/>
<path d="M511.095 967.51C518.297 964.496 523.192 964.255 525.78 966.787C530.264 967.553 533.39 970.337 535.157 975.139" stroke="white"/>
<path d="M527.675 1002.04C531.338 1002.04 534.307 999.074 534.307 995.42C534.307 991.766 531.338 988.804 527.675 988.804C524.013 988.804 521.043 991.766 521.043 995.42C521.043 999.074 524.013 1002.04 527.675 1002.04Z" stroke="#1D70D3"/>
<path d="M510.62 1002.98C514.283 1002.98 517.252 1000.02 517.252 996.365C517.252 992.712 514.283 989.75 510.62 989.75C506.958 989.75 503.988 992.712 503.988 996.365C503.988 1000.02 506.958 1002.98 510.62 1002.98Z" stroke="#1D70D3"/>
<path d="M516.854 994.121C518.116 992.395 519.512 992.271 521.043 993.748" stroke="#1D70D3" stroke-linecap="round"/>
<path d="M493.631 1056.77C490.651 1063.9 489.658 1069.1 490.651 1072.36C491.645 1075.61 493.857 1078.9 497.287 1082.22L494.578 1119.87" stroke="#4A4A4A" stroke-linecap="round"/>
<path d="M524.972 994.73C526.681 993.019 528.39 992.845 530.1 994.208" stroke="#4A4A4A" stroke-linecap="round"/>
<path d="M517.113 1012.15C518.554 1012.91 520.437 1012.65 522.762 1011.35" stroke="#4A4A4A" stroke-linecap="round"/>
<path d="M512.816 995.254C511.064 993.953 509.386 994.155 507.784 995.86" stroke="#4A4A4A" stroke-linecap="round"/>
<path fill-rule="evenodd" clip-rule="evenodd" d="M458.799 1036.69C462.001 1060.45 464.156 1074.2 465.265 1077.93C470.981 1097.16 486.299 1088.4 487.577 1078.43C488.429 1071.78 483.022 1056.25 471.355 1031.82C472.944 1027.1 473.797 1023.08 473.914 1019.75C474.013 1016.93 474.14 1014.33 474.294 1011.96C474.338 1011.28 473.7 1010.85 472.869 1011C472.858 1011 472.848 1011 472.837 1011C471.926 1011.18 471.108 1011.82 470.837 1012.58L468.375 1019.46L465.417 1006.46C465.271 1005.81 464.521 1005.5 463.668 1005.71C462.861 1005.92 462.239 1006.61 462.28 1007.25C462.28 1007.26 462.281 1007.27 462.282 1007.27L463.292 1018.45L459.987 1006.87C459.803 1006.23 458.975 1005.96 458.116 1006.27C457.249 1006.59 456.65 1007.36 456.747 1008.04L458.45 1020.12L454.831 1010.13C454.571 1009.41 453.607 1009.14 452.629 1009.52C451.684 1009.88 451.075 1010.75 451.269 1011.47C451.271 1011.48 451.273 1011.48 451.275 1011.49L454.657 1022.99L450.716 1017.29C450.259 1016.63 449.144 1016.52 448.173 1017.06C447.215 1017.58 446.752 1018.56 447.134 1019.25C450.26 1024.92 452.191 1028.69 452.925 1030.56C453.711 1032.57 455.669 1034.61 458.799 1036.69Z" fill="white" stroke="#4B4745" stroke-linejoin="round"/>
<path d="M467.052 1016.65C466.504 1018.47 465.765 1020.06 464.836 1021.44C463.443 1023.5 458.856 1025.12 457.803 1028.24" stroke="#4A4A4A"/>
<path d="M454.19 1020.19C454.157 1019.76 457.143 1016.84 463.66 1016.11" stroke="#4A4A4A"/>
<path fill-rule="evenodd" clip-rule="evenodd" d="M551.467 1092.64C555.71 1094.19 563.66 1095.58 566.31 1107.57C568.076 1115.56 570 1123.87 572.082 1132.5C574.658 1134.73 576.508 1136.17 577.631 1136.8C580.512 1138.42 582.942 1138.59 582.733 1139.63C582.235 1142.1 571.676 1140.24 567.06 1140.24C563.983 1140.24 562.584 1137.82 562.864 1133C559.269 1125.02 556.18 1116.8 553.596 1108.33L549.426 1108.22C546.593 1102.1 547.273 1096.91 551.467 1092.64Z" fill="white" stroke="#4A4A4A" stroke-linejoin="round"/>
<path fill-rule="evenodd" clip-rule="evenodd" d="M539.765 1108.53H550.372C545.697 1100.62 551.313 1092.68 552.341 1092.68C553.026 1092.68 548.834 1091.39 539.765 1088.82L537.149 1083.93C516.985 1085.26 506.61 1085.92 506.024 1085.92C505.144 1085.92 502.459 1111.72 512.283 1113.91C518.832 1115.37 523.28 1114.56 525.628 1111.47L539.765 1108.53Z" fill="#5C8B83"/>
<path d="M516.768 1093.32L527.769 1095.86" stroke="white"/>
<path fill-rule="evenodd" clip-rule="evenodd" d="M531.973 1097.08C536.217 1098.66 538.333 1100.86 540.594 1110.27C542.101 1116.53 543.812 1124.24 545.728 1133.37C547.693 1135.36 549.38 1138.19 550.789 1141.87C552.258 1145.7 549.113 1146.7 547.711 1143.32C548.012 1146.69 545.029 1145.91 543.621 1145.91C540.543 1145.91 538.386 1142.67 537.148 1136.19C533.553 1128.06 530.464 1119.68 527.88 1111.05L523.761 1111.87C520.451 1104.75 521.424 1099.46 526.681 1096.01C528.791 1096.19 530.555 1096.55 531.973 1097.08Z" fill="white" stroke="#4A4A4A" stroke-linejoin="round"/>
<path d="M565.654 1133.07C565.686 1135.05 566.505 1136.04 568.112 1136.04" stroke="#4A4A4A" stroke-linecap="round"/>
<path d="M546.149 1145.63C545.887 1145.31 545.571 1144.54 545.201 1143.33" stroke="#4A4A4A" stroke-linecap="round"/>
<path d="M543.68 1145.63L543.093 1143.47" stroke="#4A4A4A" stroke-linecap="round"/>
<path d="M541.412 1145.22V1143.33" stroke="#4A4A4A" stroke-linecap="round"/>
<path fill-rule="evenodd" clip-rule="evenodd" d="M516.099 1050.21C512.094 1050.93 509.423 1051.63 508.086 1052.32C504.314 1054.25 502.529 1057.34 501.709 1061.17C501.066 1064.17 501.152 1068.76 503.668 1072.07C503.978 1075.78 504.429 1082.63 505.018 1092.64L539.766 1088.82C537.912 1077.03 536.602 1069.13 535.834 1065.14L545.314 1065.93L546.154 1055.85C540.831 1054.21 536.544 1052.74 533.294 1051.45C531.669 1050.81 525.937 1050.39 516.099 1050.21Z" fill="#FFCC00"/>
<path d="M535.835 1065.14L537.136 1057.74" stroke="#626366"/>
<path fill-rule="evenodd" clip-rule="evenodd" d="M546.583 1056.96L551.407 1057.72L563.245 1035.35C563.245 1033.36 563.245 1031.51 563.245 1029.81C563.245 1028.35 563.461 1026.68 563.894 1024.81C564.022 1024.25 564.518 1023.85 565.089 1023.85C565.635 1023.85 566.094 1024.27 566.153 1024.81L566.739 1030.25L570.667 1022.23C570.91 1021.74 571.508 1021.53 572.003 1021.78C572.01 1021.78 572.017 1021.78 572.024 1021.79C572.551 1022.06 572.81 1022.67 572.644 1023.24L571.117 1028.47L574.405 1023.2C574.741 1022.66 575.421 1022.45 576 1022.71C576.559 1022.96 576.813 1023.62 576.57 1024.18L573.951 1030.25L578.023 1026.17C578.43 1025.77 579.085 1025.75 579.513 1026.14C579.941 1026.52 579.993 1027.18 579.631 1027.63L574.991 1033.39L579.516 1030.71C579.942 1030.45 580.492 1030.58 580.767 1030.99C581.051 1031.41 580.983 1031.98 580.607 1032.33C576.631 1035.97 573.468 1038.47 571.117 1039.84C568.522 1045.21 560.913 1066.74 556.408 1067.89C553.405 1068.65 549.245 1068.32 543.927 1066.88L546.583 1056.96Z" fill="white" stroke="#4A4A4A" stroke-linejoin="round"/>
<path d="M520.398 1052.32C521.892 1056.72 524.047 1058.72 526.864 1058.32C529.682 1057.92 530.912 1056.22 530.556 1053.23" stroke="#626366"/>
<path d="M510.562 1032.45L516.099 1034.37" stroke="#4A4A4A" stroke-linecap="round"/>
<path fill-rule="evenodd" clip-rule="evenodd" d="M516.304 1050.15C512.393 1046.39 512.569 1041.63 512.17 1038.78C509.678 1038.37 507.993 1034.11 509.333 1030.87C510.226 1028.71 511.525 1028.32 513.231 1029.7C512.925 1023.39 516.418 1020.23 523.711 1020.23C534.651 1020.23 537.373 1026.52 536.012 1034.73C534.651 1042.95 536.733 1042.19 536.012 1047.13C535.291 1052.07 528.298 1056.66 520.28 1052.83" fill="white"/>
<path d="M516.304 1050.15C512.393 1046.39 512.569 1041.63 512.17 1038.78C509.678 1038.37 507.993 1034.11 509.333 1030.87C510.226 1028.71 511.525 1028.32 513.231 1029.7C512.925 1023.39 516.418 1020.23 523.711 1020.23C534.651 1020.23 537.373 1026.52 536.012 1034.73C534.651 1042.95 536.733 1042.19 536.012 1047.13C535.291 1052.07 528.298 1056.66 520.28 1052.83" stroke="#4A4A4A" stroke-linecap="round" stroke-linejoin="round"/>
<path fill-rule="evenodd" clip-rule="evenodd" d="M513.337 1031.3C514.697 1033.18 514.295 1038.59 515.415 1038.89C516.536 1039.18 515.896 1030.4 516.639 1029.93C517.381 1029.46 519.785 1028.27 520.765 1025.34C523.702 1028.05 527.783 1031.06 537.07 1029.93C537.532 1025.69 535.986 1021.92 532.434 1018.63C527.105 1013.69 518.013 1014.45 513.926 1019.21C509.529 1019.55 507.921 1024.15 509.101 1032.98C510.543 1030.53 511.954 1029.97 513.337 1031.3Z" fill="#4A4A4A"/>
<path d="M535.274 1030.55C532.196 1029.32 530.027 1027.3 528.77 1024.5" stroke="white"/>
<path d="M529.347 1030.78C526.442 1029.18 524.536 1026.92 523.63 1023.99" stroke="white"/>
<path d="M529.83 1038.89C530.073 1040.74 530.544 1041.96 531.245 1042.56C531.945 1043.16 531.698 1043.76 530.503 1044.34" stroke="#4A4A4A" stroke-linecap="round"/>
<path d="M532.314 1035.6C533.556 1034.86 534.644 1034.85 535.576 1035.59" stroke="#4A4A4A" stroke-linecap="round"/>
<path d="M521.99 1035.79C523.304 1034.93 524.517 1034.93 525.628 1035.79" stroke="#4A4A4A" stroke-linecap="round"/>
<path d="M512.283 1035.11L510.524 1033.7" stroke="#4A4A4A" stroke-linecap="round"/>
<path fill-rule="evenodd" clip-rule="evenodd" d="M531.634 1047.2C529.518 1047.29 527.917 1047.11 526.83 1046.66C527.225 1048.3 527.929 1049.12 528.943 1049.12C529.957 1049.12 530.854 1048.48 531.634 1047.2Z" fill="#FF9B6D"/>
<path d="M551.834 1089.93C560.467 1089.93 567.466 1082.95 567.466 1074.34C567.466 1065.72 560.467 1058.74 551.834 1058.74C543.2 1058.74 536.201 1065.72 536.201 1074.34C536.201 1082.95 543.2 1089.93 551.834 1089.93Z" fill="#0ACC94"/>
<path fill-rule="evenodd" clip-rule="evenodd" d="M519.014 1071.41L520.737 1075.28L545.268 1086.88C547.408 1085.78 549.17 1085.05 550.553 1084.67C551.688 1084.35 552.81 1083.99 553.919 1083.57C554.341 1083.42 554.815 1083.59 555.038 1083.98C555.262 1084.37 555.16 1084.87 554.8 1085.14L552.738 1086.7H562.232C558.514 1091.11 555.067 1093.32 551.891 1093.32C548.715 1093.32 546.197 1092.97 544.336 1092.27C529.021 1089.43 519.671 1086.9 516.287 1084.67C512.903 1082.43 510.382 1080.02 508.726 1077.42" fill="white"/>
<path d="M519.014 1071.41L520.737 1075.28L545.268 1086.88C547.408 1085.78 549.17 1085.05 550.553 1084.67C551.688 1084.35 552.81 1083.99 553.919 1083.57C554.341 1083.42 554.815 1083.59 555.038 1083.98C555.262 1084.37 555.16 1084.87 554.8 1085.14L552.738 1086.7H562.232C558.514 1091.11 555.067 1093.32 551.891 1093.32C548.715 1093.32 546.197 1092.97 544.336 1092.27C529.021 1089.43 519.671 1086.9 516.287 1084.67C512.903 1082.43 510.382 1080.02 508.726 1077.42" stroke="#4A4A4A" stroke-linejoin="round"/>
<path d="M510.524 1055.34C513.048 1058.22 515.474 1062.01 517.8 1066.7L519.989 1070.87L508.726 1077.42L505.018 1072.59" stroke="#626366"/>
<path fill-rule="evenodd" clip-rule="evenodd" d="M527.771 1114.61C520.289 1108.58 515.635 1105.56 513.809 1105.56C511.984 1105.56 512.971 1107.53 516.77 1111.47C505.317 1112.83 500.877 1113.88 503.45 1114.61C506.023 1115.35 508.531 1115.51 510.974 1115.12" fill="white"/>
<path d="M527.771 1114.61C520.289 1108.58 515.635 1105.56 513.809 1105.56C511.984 1105.56 512.971 1107.53 516.77 1111.47C505.317 1112.83 500.877 1113.88 503.45 1114.61C506.023 1115.35 508.531 1115.51 510.974 1115.12" stroke="#4A4A4A" stroke-linejoin="round"/>
<path d="M566.74 1030.25L569.214 1035.11" stroke="#4A4A4A" stroke-linecap="round"/>
</svg>
