<svg width="661" height="830" viewBox="0 0 661 830" fill="none" xmlns="http://www.w3.org/2000/svg">
<path d="M661 766.82V0H0V765.294C224.211 872.416 534.675 811.455 661 766.82Z" fill="#FFF6CC"/>
<mask id="mask0_230_126" style="mask-type:alpha" maskUnits="userSpaceOnUse" x="7" y="584" width="237" height="234">
<path d="M228.988 687.635C233.57 748.79 294.719 848.283 126.823 808.106C9.07763 779.931 12.4315 765.378 7.84986 704.225C3.26824 643.071 49.0577 589.782 110.123 585.201C171.189 580.62 224.407 626.481 228.988 687.635Z" fill="#C4C4C4"/>
</mask>
<g mask="url(#mask0_230_126)">
<path fill-rule="evenodd" clip-rule="evenodd" d="M175.864 662.242C173.634 679.12 172.169 688.923 171.468 691.65C167.852 705.704 159.11 701.552 158.525 694.799C158.136 690.297 161.515 678.844 168.662 660.44C167.815 657.367 167.384 654.684 167.369 652.391C167.356 650.446 167.323 648.662 167.271 647.038C167.256 646.574 167.632 646.195 168.113 646.191C168.118 646.191 168.124 646.191 168.13 646.191C168.656 646.197 169.12 646.542 169.266 647.033L170.584 651.499L172.504 642.108C172.599 641.644 173.038 641.328 173.529 641.373C173.994 641.415 174.342 641.814 174.309 642.263C174.309 642.268 174.308 642.274 174.308 642.28L173.547 650.157L175.644 641.714C175.761 641.243 176.246 640.955 176.739 641.062C177.236 641.171 177.572 641.632 177.504 642.118L176.327 650.707L178.582 643.326C178.744 642.795 179.308 642.488 179.867 642.624C180.41 642.756 180.75 643.286 180.625 643.808C180.624 643.813 180.624 643.818 180.623 643.823L178.481 652.221L180.856 647.771C181.13 647.255 181.778 647.045 182.333 647.293C182.88 647.537 183.133 648.157 182.901 648.684C180.999 653.007 179.821 655.864 179.366 657.255C178.879 658.746 177.712 660.408 175.864 662.242Z" fill="white" stroke="#4B4745" stroke-width="0.75" stroke-linejoin="round"/>
<path d="M170.389 650.834C170.712 652.089 171.158 653.159 171.728 654.043C172.585 655.37 175.482 655.958 176.106 658.106" stroke="#4B4745" stroke-width="0.75"/>
<path d="M178.733 652.472C178.763 652.065 176.901 649.784 172.719 650.065" stroke="#4B4745" stroke-width="0.75"/>
<path fill-rule="evenodd" clip-rule="evenodd" d="M53.6309 662.599C58.1725 678.87 60.9854 688.292 62.0693 690.865C67.6551 704.122 76.0649 698.581 75.7617 691.826C75.5595 687.323 70.5642 676.591 60.776 659.63C61.2335 656.46 61.317 653.743 61.0264 651.48C60.78 649.56 60.5752 647.796 60.4116 646.187C60.365 645.727 59.928 645.415 59.4358 645.49C59.4296 645.491 59.4234 645.492 59.4171 645.493C58.8791 645.587 58.449 646.003 58.3658 646.512L57.6104 651.133L54.3876 642.193C54.2281 641.75 53.7347 641.512 53.2375 641.638C52.7667 641.757 52.4613 642.207 52.5559 642.644C52.557 642.649 52.5582 642.655 52.5595 642.66L54.3928 650.301L51.1135 642.324C50.9306 641.879 50.3959 641.675 49.9046 641.863C49.4084 642.053 49.1269 642.563 49.2601 643.03L51.615 651.304L48.3165 644.4C48.0797 643.904 47.4607 643.694 46.9039 643.921C46.3652 644.141 46.0881 644.72 46.285 645.214C46.2868 645.218 46.2887 645.223 46.2908 645.228L49.6089 653.153L46.5794 649.159C46.2283 648.696 45.5358 648.597 45.0003 648.932C44.4718 649.263 44.2952 649.916 44.6035 650.398C47.1314 654.345 48.7214 656.966 49.3739 658.263C50.073 659.652 51.492 661.097 53.6309 662.599Z" fill="white" stroke="#4B4745" stroke-width="0.75" stroke-linejoin="round"/>
<path d="M57.5103 650.387C57.3522 651.67 57.0445 652.791 56.5873 653.75C55.9015 655.189 53.0679 656.235 52.7241 658.441" stroke="#4B4745" stroke-width="0.75"/>
<path d="M49.3522 653.257C49.2684 652.869 50.8168 650.371 55.0084 649.975" stroke="#4B4745" stroke-width="0.75"/>
<path fill-rule="evenodd" clip-rule="evenodd" d="M39.147 686.154C55.6729 690.828 61.4693 700.508 56.5363 715.195C62.5461 707.31 73.5009 702.988 89.4003 702.23C71.7926 697.46 60.7138 693.763 56.1643 691.137C51.6146 688.511 45.9422 686.85 39.147 686.154Z" fill="#1D70D3"/>
<path fill-rule="evenodd" clip-rule="evenodd" d="M95.544 684.494L101.394 691.091L101.151 698.407C88.3203 703.979 76.7191 703.653 66.3473 697.429C55.9756 691.204 46.8933 689.184 39.1004 691.368C40.1483 687.06 38.3681 684.656 33.7598 684.154C41.9982 683.352 50.4401 685.221 59.0858 689.761C67.7314 694.301 79.8843 692.545 95.544 684.494Z" fill="white" stroke="#1D70D3" stroke-width="0.75" stroke-linecap="round" stroke-linejoin="round"/>
<path d="M112.064 689.465C104.108 694.719 96.374 696.876 88.862 695.936" stroke="#1D70D3" stroke-width="0.75"/>
<path fill-rule="evenodd" clip-rule="evenodd" d="M91.3744 665.345L88.1407 661.161L82.2629 651.528L85.8134 645.693C85.1041 645.017 83.9834 644.994 83.3102 645.642C83.2537 645.697 83.2014 645.755 83.1537 645.817L81.8152 647.549L81.1321 641.904C81.0762 641.441 80.7 641.059 80.2196 640.977C79.8071 640.907 79.4288 641.168 79.3749 641.56C79.3721 641.581 79.3701 641.603 79.3691 641.624L79.1794 646.123L78.5101 644.479C78.0699 643.399 76.8144 642.823 75.7057 643.194C75.4059 643.294 75.1366 643.459 74.9175 643.675C73.504 645.073 73.1319 647.181 73.9702 649.041L83.6583 670.544L91.3744 665.345Z" fill="white" stroke="#4B4745" stroke-width="0.75" stroke-linejoin="round"/>
<path d="M82.0251 647.501L78.3336 649.87" stroke="#4B4745" stroke-width="0.75" stroke-linecap="round"/>
<path fill-rule="evenodd" clip-rule="evenodd" d="M118.959 665.506L121.352 659.942L125.188 649.376L120.834 644.215C121.456 643.436 122.579 643.234 123.343 643.762C123.407 643.806 123.467 643.855 123.524 643.908L125.102 645.395L125.028 639.739C125.022 639.275 125.348 638.839 125.82 638.681C126.225 638.546 126.641 638.741 126.748 639.118C126.754 639.138 126.758 639.159 126.762 639.18L127.559 643.569L128.01 641.847C128.307 640.714 129.491 639.947 130.656 640.133C130.97 640.183 131.263 640.301 131.513 640.479C133.108 641.615 133.716 643.638 133.041 645.565L125.706 666.5L118.959 665.506Z" fill="white" stroke="#4B4745" stroke-width="0.75" stroke-linejoin="round"/>
<path d="M124.801 645.375L128.813 647.106" stroke="#4B4745" stroke-width="0.75" stroke-linecap="round"/>
<path fill-rule="evenodd" clip-rule="evenodd" d="M111.071 657.821L112.783 666.53L101.744 676.393C96.5702 674.486 93.2951 672.737 91.9189 671.148C90.5428 669.558 91.7144 665.461 95.434 658.855C99.0416 656.982 101.952 655.972 104.164 655.825C106.377 655.679 108.679 656.344 111.071 657.821Z" fill="white"/>
<path fill-rule="evenodd" clip-rule="evenodd" d="M111.44 656.193C111.44 656.193 116.245 660.995 113.474 661.219C111.626 661.369 108.817 660.234 105.047 657.815C107.226 659.647 107.293 660.647 105.247 660.813C103.201 660.979 101.038 660.737 98.7581 660.089C99.2509 663.071 98.7912 664.97 97.3791 665.787C95.967 666.603 95.7277 668.147 96.6616 670.418C94.6878 668.289 93.5005 668.102 93.0999 669.858C89.7033 667.642 89.2391 664.364 89.1413 662.896C89.0163 661.024 89.538 659.751 90.7063 659.079C89.7216 656.253 91.1071 654.36 94.8625 653.399C100.496 651.958 112.205 653.882 113.941 655.273C115.675 656.664 111.44 656.193 111.44 656.193Z" fill="#4A4B50"/>
<path fill-rule="evenodd" clip-rule="evenodd" d="M95.1752 671.648L92.1997 668.051L83.4097 652.282C78.9723 653.956 76.0276 655.48 74.5757 656.855C78.6498 666.3 81.5772 672.666 83.3579 675.954C85.1387 679.242 87.8401 682.972 91.4625 687.143L95.5947 707.047C98.266 708.46 100.329 707.978 101.784 705.602C103.239 703.225 104.481 698.306 105.512 690.846L122.128 681.03C124.134 676.308 125.955 672.601 127.592 669.91C129.228 667.219 130.929 661.427 132.696 652.534L124.708 650.152L118.654 665.905L116.35 669.93C110.181 674.193 105.988 676.415 103.77 676.595C102.176 676.724 100.292 676.524 98.0299 674.764C97.4394 674.305 96.4879 673.266 95.1752 671.648Z" fill="#FFCC00"/>
<path fill-rule="evenodd" clip-rule="evenodd" d="M111.671 661.366C112.257 664.642 112.829 666.868 113.389 668.046C114.229 669.813 115.666 674.934 110.113 676.594C106.41 677.7 102.349 677.118 97.9286 674.846" fill="white"/>
<path d="M111.671 661.366C112.257 664.642 112.829 666.868 113.389 668.046C114.229 669.813 115.666 674.934 110.113 676.594C106.41 677.7 102.349 677.118 97.9286 674.846" stroke="#4B4745" stroke-width="0.75" stroke-linecap="round" stroke-linejoin="round"/>
<path fill-rule="evenodd" clip-rule="evenodd" d="M111.348 671.344L108.26 672.313C108.819 672.98 109.493 673.282 110.282 673.218C111.072 673.154 111.427 672.529 111.348 671.344Z" fill="#4B4745"/>
<path d="M108.558 666.255C108.833 666.989 109.474 667.568 110.482 667.993C111.49 668.417 111.359 668.991 110.089 669.714" stroke="#4B4745" stroke-width="0.75" stroke-linecap="round" stroke-linejoin="round"/>
<path d="M108.761 664.966C109.602 663.764 110.54 663.516 111.576 664.221" stroke="#4A4A4A" stroke-width="0.75" stroke-linecap="round"/>
<path d="M101.745 666.776C102.529 665.582 103.47 665.34 104.566 666.052" stroke="#4A4A4A" stroke-width="0.75" stroke-linecap="round"/>
<path fill-rule="evenodd" clip-rule="evenodd" d="M125.296 715.281C124.246 723.648 120.977 727.689 115.489 727.404C107.257 726.977 100.818 715.406 100.779 714.854C100.753 714.486 101.397 712.966 102.712 710.296L125.296 715.281Z" fill="white"/>
<path fill-rule="evenodd" clip-rule="evenodd" d="M143.589 771.433C146.058 808.095 147.603 831.029 148.224 840.239C148.844 849.448 150.532 874.506 153.287 915.409L137.837 916.654L122.207 803.014L118.963 803.274C114.062 837.008 110.441 858.539 108.102 867.867C105.762 877.196 101.054 894.636 93.979 920.189L77.9132 921.482C84.1409 876.793 88.0361 849.069 89.5989 838.311C90.9234 829.194 89.1206 813.33 90.3145 786.164C90.4578 782.906 91.6911 776.963 94.0148 768.34L143.589 771.433Z" fill="#323443"/>
<path d="M100.23 769.843C96.1879 777.941 94.5708 787.796 95.3786 799.408C96.5904 816.826 94.3295 841.789 92.867 850.562C91.8919 856.411 88.2409 880.33 81.914 922.32" stroke="white" stroke-width="0.75" stroke-linecap="round" stroke-linejoin="round"/>
<path d="M120.824 802.421C123.428 802.048 124.975 805.28 125.466 812.12C125.956 818.957 130.761 854.131 139.881 917.64" stroke="white" stroke-width="0.75" stroke-linecap="round" stroke-linejoin="round"/>
<path fill-rule="evenodd" clip-rule="evenodd" d="M93.0199 709.125L77.4644 694.638L64.0545 662.382L52.4002 670.333C58.9937 692.412 63.1795 705.04 64.9576 708.216C66.0062 710.089 69.2757 713.684 74.7662 719.001C77.3121 721.466 82.2053 725.997 89.4457 732.593C90.2011 750.365 91.5641 762.905 93.5347 770.216C110.248 775.834 126.512 776.057 142.325 770.881L142.366 731.856C154.355 721.362 162.696 713.725 167.388 708.944C172.079 704.163 175.573 690.574 177.871 668.179L166.965 665.63L154.971 696.119L133.905 711.596L123.911 716.052C123.291 721.815 121.071 725.223 117.252 726.277C113.433 727.331 109.064 724.066 104.144 716.482L93.0199 709.125Z" fill="#6B74C1"/>
<path fill-rule="evenodd" clip-rule="evenodd" d="M127.054 704.704C131.83 703.646 135.126 704.569 136.943 707.471C138.759 710.373 142.454 716.349 148.027 725.4C140.944 727.198 136.712 730.221 135.33 734.469C131.911 726.18 130.102 720.621 129.902 717.792C129.703 714.963 128.214 713.959 125.436 714.78L127.054 704.704Z" fill="#5C8B83"/>
<path fill-rule="evenodd" clip-rule="evenodd" d="M112.481 732.202C111.025 735.839 110.581 738.652 111.147 740.643C111.714 742.635 112.752 742.057 114.259 738.909C113.684 743.538 114.604 745.265 117.018 744.092C119.432 742.918 119.499 739.309 117.219 733.262C120.058 732.107 122.856 729.593 125.614 725.718C128.371 721.843 128.59 718.01 126.27 714.219L123.232 720.289C119.991 725.786 116.454 727.463 112.621 725.319C108.789 723.174 105.531 718.945 102.849 712.632C100.46 715.148 99.6633 716.975 100.459 718.113C101.557 719.685 109.674 731.212 112.481 732.202Z" fill="#D37F1D"/>
<path d="M117.728 733.477C116.294 732.515 115.112 732.25 114.182 732.685" stroke="#4B4745" stroke-width="0.75" stroke-linecap="round"/>
<path d="M103.435 718.496L109.325 726.519" stroke="#4B4745" stroke-width="0.75" stroke-linecap="round"/>
<path d="M124.975 716.394C125.236 720.309 123.073 724.106 118.483 727.784" stroke="#4B4745" stroke-width="0.75" stroke-linecap="round"/>
<path fill-rule="evenodd" clip-rule="evenodd" d="M101.662 714.402C102.472 711.236 103.023 708.871 103.316 707.307C101.757 707.434 99.8045 702.597 99.9057 699.717C99.9731 697.797 101.862 697.086 105.571 697.583L105.194 691.917L107.145 688.239L113.73 686.426L126.45 686.049L128.839 693.081C128.133 696.86 127.747 700.67 127.682 704.511C127.583 710.271 126.032 713.206 125.486 715.013C124.94 716.82 125.195 720.008 118.471 719.967C113.989 719.939 110.456 717.412 107.873 712.386" fill="white"/>
<path d="M101.662 714.402C102.472 711.236 103.023 708.871 103.316 707.307C101.757 707.434 99.8045 702.597 99.9057 699.717C99.9731 697.797 101.862 697.086 105.571 697.583L105.194 691.917L107.145 688.239L113.73 686.426L126.45 686.049L128.839 693.081C128.133 696.86 127.747 700.67 127.682 704.511C127.583 710.271 126.032 713.206 125.486 715.013C124.94 716.82 125.195 720.008 118.471 719.967C113.989 719.939 110.456 717.412 107.873 712.386" stroke="#4B4745" stroke-width="0.75" stroke-linecap="round"/>
<path d="M122.812 697.76C123.729 696.892 124.695 696.734 125.71 697.286" stroke="#4A4A4A" stroke-width="0.75" stroke-linecap="round"/>
<path d="M115.214 698.822C114.088 698.114 113.07 698.315 112.159 699.426" stroke="#4A4A4A" stroke-width="0.75" stroke-linecap="round"/>
<path d="M121.094 696.237C120.287 698.319 120.081 699.928 120.474 701.063C121.064 702.765 122.544 706.014 120.821 706.153C119.672 706.245 118.914 705.975 118.546 705.344" stroke="#4B4745" stroke-width="0.75" stroke-linecap="round"/>
<path fill-rule="evenodd" clip-rule="evenodd" d="M101.544 705.24C96.836 703.869 93.8475 704.723 92.5787 707.802C90.6759 712.42 93.3908 719.861 93.766 725.435C94.0161 729.15 95.3653 732.875 97.8133 736.61C97.5507 732.124 98.8059 729.339 101.579 728.254C104.352 727.169 106.474 726.998 107.945 727.74C105.992 721.978 104.959 718.253 104.846 716.567C104.732 714.881 104.75 711.815 104.899 707.367" fill="#5C8B83"/>
<path d="M103.906 732.356C103.906 732.356 100.944 740.173 97.8318 736.232" stroke="white" stroke-width="0.75" stroke-linecap="round" stroke-linejoin="round"/>
<path fill-rule="evenodd" clip-rule="evenodd" d="M105.003 698.795C103.875 696.823 101.536 696.404 99.9251 699.205C98.3137 702.006 101.107 704.47 101.411 705.715C101.715 706.959 103.832 707.839 104.951 706.589" fill="white"/>
<path d="M105.003 698.795C103.875 696.823 101.536 696.404 99.9251 699.205C98.3137 702.006 101.107 704.47 101.411 705.715C101.715 706.959 103.832 707.839 104.951 706.589" stroke="#4B4745" stroke-width="0.75" stroke-linecap="round"/>
<path d="M119.43 720.459C119.144 721.538 118.718 722.246 118.152 722.582" stroke="#4B4745" stroke-width="0.75" stroke-linecap="round"/>
<path fill-rule="evenodd" clip-rule="evenodd" d="M104.935 700.6C105.534 703.251 105.862 705.007 105.919 705.87C106.006 707.163 105.325 712.167 107.311 714.942C109.297 717.718 112.86 720.641 118.053 720.643C123.246 720.644 124.467 719.433 125.241 717.078C125.757 715.509 126.269 712.959 126.777 709.428C125.965 710.679 125.407 711.159 125.105 710.865C124.65 710.425 125.074 708.547 122.217 707.886C119.36 707.225 115.537 706.942 113.666 707.942C112.418 708.608 111.573 709.382 111.131 710.262C111.029 707.221 110.587 705.485 109.804 705.055C108.629 704.41 107.072 704.978 106.842 701.526C106.688 699.226 106.612 697.044 106.612 694.98C108.747 694.516 110.926 693.344 113.149 691.464C112.426 693.191 112.477 693.95 113.301 693.741C114.125 693.533 116.216 692.392 119.572 690.318C117.59 692.869 117.534 693.845 119.404 693.247C121.275 692.649 123.565 691.371 126.276 689.412C127.442 691.597 128.178 692.77 128.484 692.931C128.413 693.259 128.249 694.251 127.991 695.906C128.929 695.132 130.014 693.163 131.245 689.999C133.092 685.253 132.796 683.627 130.785 683.098C131.803 680.21 129.472 679.301 123.794 680.371C115.275 681.976 107.956 677.72 104.442 683.739C100.424 683.219 99.7842 688.209 102.523 698.707C103.161 698.99 103.626 699.245 103.917 699.473C104.208 699.702 104.547 700.077 104.935 700.6Z" fill="#4B4745"/>
<path fill-rule="evenodd" clip-rule="evenodd" d="M122.157 709.903L116.191 709.262C116.7 711.536 117.642 712.712 119.016 712.79C120.391 712.868 121.438 711.906 122.157 709.903Z" fill="white"/>
<path fill-rule="evenodd" clip-rule="evenodd" d="M104.306 721.263C101.683 723.199 100.027 725.967 99.3382 729.567C98.719 730.251 98.2016 731.562 98.2079 732.852C98.2177 734.848 99.3462 737.774 101.161 738.618C103.152 739.543 104.601 736.474 105.508 729.41L104.306 721.263Z" fill="#4B4745"/>
<path fill-rule="evenodd" clip-rule="evenodd" d="M100.254 730.07C100.556 729.7 100.36 721.527 105.882 721.767C111.404 722.007 106.778 731.701 106.169 734.151C105.561 736.601 106.199 739.726 102.046 739.168C97.8923 738.608 99.9526 730.441 100.254 730.07Z" fill="white"/>
<path d="M108.466 725.353L102.729 724.185" stroke="#D6DCFF" stroke-width="0.75"/>
<path d="M108.158 728.755L102.421 727.588" stroke="#D6DCFF" stroke-width="0.75"/>
<path d="M106.73 732.24L100.993 731.073" stroke="#D6DCFF" stroke-width="0.75"/>
<path d="M105.865 735.684L100.128 734.517" stroke="#D6DCFF" stroke-width="0.75"/>
<path fill-rule="evenodd" clip-rule="evenodd" d="M148.326 722.587C146.136 722.301 143.686 723.678 140.977 726.718C136.913 731.279 136.525 731.483 135.93 733.667C136.341 735.791 137.584 738.895 138.487 738.823C139.089 738.775 142.369 733.363 148.326 722.587Z" fill="#4B4745"/>
<path fill-rule="evenodd" clip-rule="evenodd" d="M139.363 731.91C142.634 728.05 145.422 721.175 149.024 722.777C150.816 723.574 150.149 726.201 149.441 728.684C148.733 731.168 146.4 733.089 145.585 733.827C143.962 735.296 142.81 739.046 139.883 739.277C136.956 739.51 136.093 735.769 139.363 731.91Z" fill="white"/>
<path d="M149.213 728.27L144.158 725.352" stroke="#D6DCFF" stroke-width="0.75"/>
<path d="M147.856 731.16L142.801 728.243" stroke="#D6DCFF" stroke-width="0.75"/>
<path d="M145.487 733.766L140.432 730.849" stroke="#D6DCFF" stroke-width="0.75"/>
<path d="M143.003 736.921L138.428 734.104" stroke="#D6DCFF" stroke-width="0.75"/>
<path d="M114.057 740.736L114.842 735.067" stroke="#4B4745" stroke-width="0.75" stroke-linecap="round"/>
</g>
<path fill-rule="evenodd" clip-rule="evenodd" d="M532.873 675.726L533.667 679.546C532.177 678.488 530.896 678.428 529.824 679.365C528.215 680.772 529.5 684.42 531.745 685.524C533.242 686.261 534.435 686.629 535.325 686.629C537.038 692.433 538.664 696.312 540.205 698.268C541.746 700.223 544.584 702.145 548.717 704.033H561.606V694.97C563.407 691.28 564.308 688.123 564.308 685.499C566.453 684.86 570.328 682.548 569.687 677.731C568.556 675.443 566.9 675.443 564.719 677.731L565.158 664.72L551.27 658.829L532.873 675.726Z" fill="white"/>
<path d="M532.875 675.005C534.514 684.558 536.346 691.168 538.371 694.835C539.797 697.419 541.597 699.662 543.713 701.2M559.583 698.084C561.102 696.124 562.197 693.958 562.925 692.222C564.003 689.65 564.747 683.214 565.159 672.914" stroke="#4A4A4A"/>
<path d="M555.784 660.463C563.109 660.463 569.048 654.539 569.048 647.231C569.048 639.924 563.109 634 555.784 634C548.458 634 542.52 639.924 542.52 647.231C542.52 654.539 548.458 660.463 555.784 660.463Z" fill="#4B4745"/>
<path d="M564.905 677.693C566.424 675.81 567.808 675.516 569.057 676.811C570.931 678.753 568.403 685.524 564.339 685.524" stroke="#4A4A4A" stroke-linecap="round"/>
<path fill-rule="evenodd" clip-rule="evenodd" d="M533.283 678.186C543.793 675.304 550.499 670.508 553.4 663.8C556.988 668.929 560.907 672.426 565.157 674.291C566.223 670.553 566.456 666.561 565.856 662.313C564.955 655.941 560.313 651.516 554.858 650.628C549.15 646.154 540.201 648.733 534.452 658.627C530.62 665.223 530.231 671.743 533.283 678.186Z" fill="#4B4745"/>
<path d="M533.517 679.59C531.996 678.273 530.56 678.273 529.208 679.59C527.18 681.565 532.139 687.134 535.324 686.591" stroke="#4A4A4A" stroke-linecap="round"/>
<path d="M534.279 682.615L530.862 681.477" stroke="#4A4A4A" stroke-linecap="round"/>
<path d="M564.721 680.964L566.949 679.546" stroke="#4A4A4A" stroke-linecap="round"/>
<path fill-rule="evenodd" clip-rule="evenodd" d="M602.884 758.974C604.043 766.292 603.202 772.497 600.36 777.589C596.098 785.226 565.462 799.768 555.78 801.756C546.098 803.746 528.735 799.245 528.735 797.262C528.735 795.279 544.604 795.781 546.098 794.253C540.408 788.044 539.962 784.174 544.6 786.367C549.239 788.559 550.795 791.344 555.78 791.344L587.214 774.297L585.717 760.9L602.884 758.974Z" fill="white" stroke="#4A4A4A" stroke-linejoin="round"/>
<path d="M531.147 671.704C539.259 666.339 544.741 661.017 547.594 655.738" stroke="white"/>
<path fill-rule="evenodd" clip-rule="evenodd" d="M561.607 709.309C576.166 714.342 585.632 718.596 590.003 722.072C594.374 725.548 599.411 738.271 605.116 760.242L584.339 761.643L581.752 751.758V769.618L585.558 788.559L524.946 802.869L527.288 765.221L522.344 760.242L513.933 774.972L498.315 764.555C503.471 742.296 507.798 732.629 513.245 727.251C518.693 721.873 527.976 716.348 541.096 710.675C540.239 714.355 540.713 717.378 542.518 719.743C547.255 725.949 560.475 729.093 563.717 718.353C564.678 715.171 563.975 712.156 561.607 709.309Z" fill="#D37F1D"/>
<path d="M532.096 675.484C540.975 670.72 546.975 665.995 550.097 661.307" stroke="white"/>
<path d="M561.608 694.988C561.608 702.37 561.608 707.144 561.608 709.31C561.608 711.476 562.312 713.522 563.719 715.448" stroke="#4A4A4A" stroke-linecap="round"/>
<path d="M547.254 673.695C547.945 675.751 548.291 678.111 548.291 680.777C548.291 684.776 547.254 689.638 547.772 690.477C548.118 691.036 549.284 691.036 551.27 690.477" stroke="#4A4A4A" stroke-linecap="round"/>
<path d="M541.097 650.51C548.299 647.496 553.194 647.255 555.782 649.787C560.266 650.553 563.392 653.337 565.159 658.139" stroke="white"/>
<path d="M557.677 685.036C561.34 685.036 564.309 682.074 564.309 678.42C564.309 674.766 561.34 671.804 557.677 671.804C554.015 671.804 551.045 674.766 551.045 678.42C551.045 682.074 554.015 685.036 557.677 685.036Z" stroke="#1D70D3"/>
<path d="M540.622 685.981C544.285 685.981 547.254 683.019 547.254 679.365C547.254 675.712 544.285 672.75 540.622 672.75C536.96 672.75 533.99 675.712 533.99 679.365C533.99 683.019 536.96 685.981 540.622 685.981Z" stroke="#1D70D3"/>
<path d="M546.856 677.121C548.118 675.395 549.514 675.271 551.045 676.748" stroke="#1D70D3" stroke-linecap="round"/>
<path d="M523.633 739.773C520.653 746.904 519.66 752.098 520.653 755.356C521.647 758.614 523.859 761.902 527.289 765.222L524.58 802.869" stroke="#4A4A4A" stroke-linecap="round"/>
<path d="M554.974 677.73C556.683 676.019 558.392 675.845 560.102 677.208" stroke="#4A4A4A" stroke-linecap="round"/>
<path d="M547.115 695.149C548.556 695.913 550.439 695.647 552.764 694.35" stroke="#4A4A4A" stroke-linecap="round"/>
<path d="M542.818 678.254C541.066 676.953 539.388 677.155 537.786 678.86" stroke="#4A4A4A" stroke-linecap="round"/>
<path fill-rule="evenodd" clip-rule="evenodd" d="M488.801 719.691C492.003 743.451 494.158 757.197 495.267 760.929C500.983 780.161 516.301 771.4 517.579 761.43C518.431 754.783 513.024 739.246 501.357 714.819C502.946 710.099 503.799 706.075 503.916 702.747C504.015 699.925 504.142 697.33 504.296 694.96C504.34 694.283 503.702 693.851 502.871 693.996C502.86 693.998 502.85 693.999 502.839 694.002C501.928 694.175 501.11 694.821 500.838 695.579L498.377 702.464L495.419 689.458C495.273 688.814 494.523 688.495 493.67 688.714C492.863 688.922 492.241 689.609 492.282 690.249C492.282 690.257 492.283 690.265 492.284 690.273L493.294 701.449L489.989 689.873C489.805 689.227 488.977 688.961 488.118 689.272C487.251 689.586 486.652 690.359 486.749 691.042L488.452 703.12L484.833 693.131C484.573 692.413 483.608 692.145 482.631 692.518C481.686 692.879 481.077 693.754 481.271 694.471C481.273 694.478 481.275 694.485 481.277 694.492L484.659 705.99L480.718 700.287C480.261 699.625 479.146 699.525 478.175 700.057C477.217 700.583 476.754 701.56 477.136 702.252C480.262 707.92 482.193 711.69 482.927 713.563C483.713 715.571 485.671 717.613 488.801 719.691Z" fill="white" stroke="#4B4745" stroke-linejoin="round"/>
<path d="M497.054 699.655C496.506 701.469 495.767 703.064 494.838 704.438C493.445 706.499 488.858 708.117 487.805 711.242" stroke="#4A4A4A"/>
<path d="M484.192 703.187C484.159 702.756 487.145 699.843 493.661 699.115" stroke="#4A4A4A"/>
<path fill-rule="evenodd" clip-rule="evenodd" d="M581.469 775.636C585.712 777.186 593.662 778.584 596.312 790.568C598.078 798.557 600.002 806.867 602.084 815.497C604.66 817.733 606.509 819.167 607.633 819.799C610.514 821.418 612.944 821.585 612.735 822.627C612.237 825.105 601.678 823.238 597.062 823.238C593.985 823.238 592.586 820.824 592.866 815.998C589.271 808.022 586.182 799.801 583.598 791.334L579.427 791.224C576.595 785.104 577.275 779.908 581.469 775.636Z" fill="white" stroke="#4A4A4A" stroke-linejoin="round"/>
<path fill-rule="evenodd" clip-rule="evenodd" d="M569.767 791.53H580.374C575.699 783.617 581.315 775.677 582.343 775.677C583.028 775.677 578.836 774.392 569.767 771.823L567.151 766.927C546.987 768.257 536.612 768.923 536.026 768.923C535.146 768.923 532.461 794.715 542.285 796.908C548.834 798.37 553.282 797.557 555.63 794.469L569.767 791.53Z" fill="#5C8B83"/>
<path d="M546.77 776.322L557.771 778.855" stroke="white"/>
<path fill-rule="evenodd" clip-rule="evenodd" d="M561.975 780.076C566.219 781.657 568.335 783.864 570.596 793.266C572.103 799.534 573.814 807.236 575.73 816.372C577.695 818.362 579.382 821.195 580.791 824.868C582.26 828.697 579.115 829.697 577.713 826.32C578.014 829.686 575.031 828.914 573.622 828.914C570.545 828.914 568.388 825.674 567.15 819.193C563.555 811.062 560.466 802.68 557.882 794.047L553.763 794.871C550.453 787.751 551.426 782.462 556.683 779.006C558.793 779.191 560.557 779.548 561.975 780.076Z" fill="white" stroke="#4A4A4A" stroke-linejoin="round"/>
<path d="M595.656 816.073C595.688 818.049 596.507 819.038 598.114 819.038" stroke="#4A4A4A" stroke-linecap="round"/>
<path d="M576.15 828.634C575.889 828.307 575.573 827.538 575.203 826.33" stroke="#4A4A4A" stroke-linecap="round"/>
<path d="M573.682 828.634L573.095 826.469" stroke="#4A4A4A" stroke-linecap="round"/>
<path d="M571.414 828.22V826.33" stroke="#4A4A4A" stroke-linecap="round"/>
<path fill-rule="evenodd" clip-rule="evenodd" d="M546.101 733.207C542.096 733.926 539.425 734.629 538.088 735.316C534.316 737.252 532.53 740.341 531.711 744.17C531.068 747.174 531.154 751.761 533.669 755.067C533.98 758.776 534.43 765.632 535.02 775.636L569.768 771.822C567.914 760.026 566.604 752.132 565.836 748.141L575.316 748.934L576.156 738.849C570.833 737.208 566.546 735.743 563.296 734.452C561.671 733.807 555.939 733.392 546.101 733.207Z" fill="#FFCC00"/>
<path d="M565.837 748.142L567.138 740.745" stroke="#626366"/>
<path fill-rule="evenodd" clip-rule="evenodd" d="M576.585 739.964L581.409 740.718L593.247 718.354C593.247 716.357 593.247 714.508 593.247 712.806C593.247 711.348 593.463 709.681 593.896 707.807C594.024 707.25 594.52 706.855 595.091 706.855C595.637 706.855 596.096 707.268 596.155 707.813L596.741 713.254L600.669 705.235C600.912 704.739 601.51 704.534 602.005 704.777C602.012 704.781 602.019 704.784 602.026 704.788C602.553 705.063 602.812 705.673 602.646 706.244L601.119 711.469L604.407 706.199C604.743 705.661 605.423 705.453 606.002 705.712C606.561 705.962 606.815 706.616 606.572 707.179L603.953 713.254L608.025 709.175C608.432 708.767 609.087 708.75 609.515 709.136C609.943 709.522 609.995 710.176 609.633 710.626L604.993 716.393L609.518 713.705C609.944 713.452 610.493 713.577 610.769 713.989C611.053 714.413 610.985 714.981 610.609 715.325C606.633 718.969 603.47 721.474 601.119 722.84C598.524 728.215 590.915 749.742 586.41 750.889C583.407 751.654 579.247 751.317 573.929 749.879L576.585 739.964Z" fill="white" stroke="#4A4A4A" stroke-linejoin="round"/>
<path d="M550.4 735.316C551.894 739.717 554.049 741.717 556.866 741.318C559.684 740.918 560.914 739.223 560.558 736.233" stroke="#626366"/>
<path d="M540.563 715.447L546.101 717.371" stroke="#4A4A4A" stroke-linecap="round"/>
<path fill-rule="evenodd" clip-rule="evenodd" d="M546.306 733.151C542.395 729.392 542.571 724.626 542.172 721.785C539.68 721.365 537.995 717.109 539.335 713.871C540.228 711.712 541.527 711.323 543.233 712.704C542.927 706.386 546.42 703.228 553.713 703.228C564.653 703.228 567.375 709.516 566.014 717.731C564.653 725.945 566.735 725.191 566.014 730.129C565.293 735.068 558.3 739.658 550.282 735.833" fill="white"/>
<path d="M546.306 733.151C542.395 729.392 542.571 724.626 542.172 721.785C539.68 721.365 537.995 717.109 539.335 713.871C540.228 711.712 541.527 711.323 543.233 712.704C542.927 706.386 546.42 703.228 553.713 703.228C564.653 703.228 567.375 709.516 566.014 717.731C564.653 725.945 566.735 725.191 566.014 730.129C565.293 735.068 558.3 739.658 550.282 735.833" stroke="#4A4A4A" stroke-linecap="round" stroke-linejoin="round"/>
<path fill-rule="evenodd" clip-rule="evenodd" d="M543.339 714.295C544.699 716.18 544.297 721.591 545.417 721.887C546.537 722.184 545.898 713.402 546.641 712.932C547.383 712.462 549.787 711.268 550.767 708.341C553.704 711.05 557.785 714.057 567.072 712.932C567.534 708.688 565.988 704.92 562.436 701.63C557.107 696.694 548.015 697.452 543.928 702.208C539.531 702.554 537.923 707.145 539.103 715.98C540.545 713.53 541.956 712.968 543.339 714.295Z" fill="#4A4A4A"/>
<path d="M565.276 713.546C562.197 712.316 560.029 710.302 558.772 707.502" stroke="white"/>
<path d="M559.349 713.779C556.444 712.184 554.538 709.921 553.632 706.99" stroke="white"/>
<path d="M559.832 721.895C560.075 723.738 560.546 724.96 561.247 725.56C561.947 726.16 561.7 726.755 560.505 727.344" stroke="#4A4A4A" stroke-linecap="round"/>
<path d="M562.316 718.604C563.558 717.859 564.645 717.854 565.578 718.587" stroke="#4A4A4A" stroke-linecap="round"/>
<path d="M551.992 718.789C553.306 717.932 554.519 717.932 555.63 718.789" stroke="#4A4A4A" stroke-linecap="round"/>
<path d="M542.285 718.115L540.526 716.704" stroke="#4A4A4A" stroke-linecap="round"/>
<path fill-rule="evenodd" clip-rule="evenodd" d="M561.635 730.2C559.52 730.293 557.919 730.112 556.832 729.658C557.227 731.3 557.931 732.121 558.945 732.121C559.959 732.121 560.856 731.48 561.635 730.2Z" fill="#FF9B6D"/>
<path d="M581.836 772.931C590.469 772.931 597.468 765.949 597.468 757.337C597.468 748.724 590.469 741.742 581.836 741.742C573.202 741.742 566.203 748.724 566.203 757.337C566.203 765.949 573.202 772.931 581.836 772.931Z" fill="#0ACC94"/>
<path fill-rule="evenodd" clip-rule="evenodd" d="M549.016 754.412L550.739 758.283L575.27 769.877C577.41 768.783 579.172 768.046 580.555 767.666C581.69 767.354 582.812 766.989 583.921 766.573C584.343 766.415 584.817 766.587 585.04 766.979C585.264 767.372 585.162 767.87 584.802 768.142L582.74 769.702H592.234C588.516 774.115 585.069 776.322 581.893 776.322C578.717 776.322 576.199 775.97 574.338 775.266C559.023 772.431 549.673 769.898 546.289 767.666C542.905 765.434 540.384 763.019 538.728 760.42" fill="white"/>
<path d="M549.016 754.412L550.739 758.283L575.27 769.877C577.41 768.783 579.172 768.046 580.555 767.666C581.69 767.354 582.812 766.989 583.921 766.573C584.343 766.415 584.817 766.587 585.04 766.979C585.264 767.372 585.162 767.87 584.802 768.142L582.74 769.702H592.234C588.516 774.115 585.069 776.322 581.893 776.322C578.717 776.322 576.199 775.97 574.338 775.266C559.023 772.431 549.673 769.898 546.289 767.666C542.905 765.434 540.384 763.019 538.728 760.42" stroke="#4A4A4A" stroke-linejoin="round"/>
<path d="M540.526 738.342C543.05 741.221 545.476 745.006 547.802 749.698L549.99 753.866L538.728 760.421L535.02 755.593" stroke="#626366"/>
<path fill-rule="evenodd" clip-rule="evenodd" d="M557.773 797.612C550.291 791.577 545.637 788.559 543.811 788.559C541.986 788.559 542.973 790.529 546.772 794.468C535.319 795.829 530.879 796.877 533.452 797.612C536.025 798.347 538.533 798.515 540.975 798.115" fill="white"/>
<path d="M557.773 797.612C550.291 791.577 545.637 788.559 543.811 788.559C541.986 788.559 542.973 790.529 546.772 794.468C535.319 795.829 530.879 796.877 533.452 797.612C536.025 798.347 538.533 798.515 540.975 798.115" stroke="#4A4A4A" stroke-linejoin="round"/>
<path d="M596.742 713.254L599.216 718.115" stroke="#4A4A4A" stroke-linecap="round"/>
</svg>
