<svg width="661" height="851" viewBox="0 0 661 851" fill="none" xmlns="http://www.w3.org/2000/svg">
<path d="M661 766.82V0H0V765.294C224.211 872.416 534.675 811.455 661 766.82Z" fill="#FFF6CC"/>
<mask id="mask0_230_126" style="mask-type:alpha" maskUnits="userSpaceOnUse" x="7" y="584" width="237" height="234">
<path d="M228.988 687.635C233.57 748.79 294.719 848.283 126.823 808.106C9.07763 779.931 12.4315 765.378 7.84986 704.224C3.26824 643.071 49.0577 589.782 110.123 585.201C171.189 580.62 224.407 626.481 228.988 687.635Z" fill="#C4C4C4"/>
</mask>
<g mask="url(#mask0_230_126)">
<path fill-rule="evenodd" clip-rule="evenodd" d="M175.864 662.242C173.634 679.12 172.169 688.923 171.468 691.65C167.852 705.704 159.11 701.552 158.525 694.799C158.136 690.297 161.515 678.844 168.662 660.44C167.815 657.367 167.384 654.684 167.369 652.391C167.356 650.446 167.323 648.662 167.271 647.038C167.256 646.574 167.632 646.195 168.113 646.191C168.118 646.191 168.124 646.191 168.13 646.191C168.656 646.197 169.12 646.542 169.266 647.033L170.584 651.499L172.504 642.108C172.599 641.644 173.038 641.328 173.529 641.373C173.994 641.415 174.342 641.814 174.309 642.263C174.309 642.268 174.308 642.274 174.308 642.28L173.547 650.157L175.644 641.714C175.761 641.243 176.246 640.955 176.739 641.062C177.236 641.171 177.572 641.632 177.504 642.118L176.327 650.707L178.582 643.326C178.744 642.795 179.308 642.488 179.867 642.624C180.41 642.756 180.75 643.286 180.625 643.808C180.624 643.813 180.624 643.818 180.623 643.823L178.481 652.221L180.856 647.771C181.13 647.255 181.778 647.045 182.333 647.293C182.88 647.537 183.133 648.157 182.901 648.684C180.999 653.007 179.821 655.864 179.366 657.255C178.879 658.746 177.712 660.408 175.864 662.242Z" fill="white" stroke="#4B4745" stroke-width="0.75" stroke-linejoin="round"/>
<path d="M170.389 650.834C170.712 652.089 171.158 653.159 171.728 654.043C172.585 655.37 175.482 655.958 176.106 658.106" stroke="#4B4745" stroke-width="0.75"/>
<path d="M178.733 652.472C178.763 652.065 176.901 649.784 172.719 650.065" stroke="#4B4745" stroke-width="0.75"/>
<path fill-rule="evenodd" clip-rule="evenodd" d="M53.6309 662.599C58.1725 678.87 60.9854 688.292 62.0693 690.865C67.6551 704.122 76.0649 698.581 75.7617 691.826C75.5595 687.323 70.5642 676.591 60.776 659.63C61.2335 656.46 61.317 653.743 61.0264 651.48C60.78 649.56 60.5752 647.796 60.4116 646.187C60.365 645.727 59.928 645.415 59.4358 645.49C59.4296 645.491 59.4234 645.492 59.4171 645.493C58.8791 645.587 58.449 646.003 58.3658 646.512L57.6104 651.133L54.3876 642.193C54.2281 641.75 53.7347 641.512 53.2375 641.638C52.7667 641.757 52.4613 642.207 52.5559 642.644C52.557 642.649 52.5582 642.655 52.5595 642.66L54.3928 650.301L51.1135 642.324C50.9306 641.879 50.3959 641.675 49.9046 641.863C49.4084 642.053 49.1269 642.563 49.2601 643.03L51.615 651.304L48.3165 644.4C48.0797 643.904 47.4607 643.694 46.9039 643.921C46.3652 644.141 46.0881 644.72 46.285 645.214C46.2868 645.218 46.2887 645.223 46.2908 645.228L49.6089 653.153L46.5794 649.159C46.2283 648.696 45.5358 648.597 45.0003 648.932C44.4718 649.263 44.2952 649.916 44.6035 650.398C47.1314 654.345 48.7214 656.966 49.3739 658.263C50.073 659.652 51.492 661.097 53.6309 662.599Z" fill="white" stroke="#4B4745" stroke-width="0.75" stroke-linejoin="round"/>
<path d="M57.5103 650.387C57.3522 651.67 57.0445 652.791 56.5873 653.75C55.9015 655.189 53.0679 656.235 52.7241 658.441" stroke="#4B4745" stroke-width="0.75"/>
<path d="M49.3522 653.257C49.2684 652.869 50.8168 650.371 55.0084 649.975" stroke="#4B4745" stroke-width="0.75"/>
<path fill-rule="evenodd" clip-rule="evenodd" d="M39.147 686.154C55.6729 690.828 61.4693 700.508 56.5363 715.195C62.5461 707.31 73.5009 702.988 89.4003 702.23C71.7926 697.46 60.7138 693.763 56.1643 691.137C51.6146 688.511 45.9422 686.85 39.147 686.154Z" fill="#1D70D3"/>
<path fill-rule="evenodd" clip-rule="evenodd" d="M95.544 684.494L101.394 691.091L101.151 698.407C88.3203 703.979 76.7191 703.653 66.3473 697.429C55.9756 691.204 46.8933 689.184 39.1004 691.368C40.1483 687.06 38.3681 684.656 33.7598 684.154C41.9982 683.352 50.4401 685.221 59.0858 689.761C67.7314 694.301 79.8843 692.545 95.544 684.494Z" fill="white" stroke="#1D70D3" stroke-width="0.75" stroke-linecap="round" stroke-linejoin="round"/>
<path d="M112.064 689.465C104.108 694.719 96.374 696.876 88.862 695.936" stroke="#1D70D3" stroke-width="0.75"/>
<path fill-rule="evenodd" clip-rule="evenodd" d="M91.3744 665.345L88.1407 661.161L82.2629 651.528L85.8134 645.693C85.1041 645.017 83.9834 644.994 83.3102 645.642C83.2537 645.697 83.2014 645.755 83.1537 645.817L81.8152 647.549L81.1321 641.904C81.0762 641.441 80.7 641.059 80.2196 640.977C79.8071 640.907 79.4288 641.168 79.3749 641.56C79.3721 641.581 79.3701 641.603 79.3691 641.624L79.1794 646.123L78.5101 644.479C78.0699 643.399 76.8144 642.823 75.7057 643.194C75.4059 643.294 75.1366 643.459 74.9175 643.675C73.504 645.073 73.1319 647.181 73.9702 649.041L83.6583 670.544L91.3744 665.345Z" fill="white" stroke="#4B4745" stroke-width="0.75" stroke-linejoin="round"/>
<path d="M82.0251 647.501L78.3336 649.87" stroke="#4B4745" stroke-width="0.75" stroke-linecap="round"/>
<path fill-rule="evenodd" clip-rule="evenodd" d="M118.959 665.506L121.352 659.942L125.188 649.376L120.834 644.215C121.456 643.436 122.579 643.234 123.343 643.762C123.407 643.806 123.467 643.855 123.524 643.908L125.102 645.395L125.028 639.739C125.022 639.275 125.348 638.839 125.82 638.681C126.225 638.546 126.641 638.741 126.748 639.118C126.754 639.138 126.758 639.159 126.762 639.18L127.559 643.569L128.01 641.847C128.307 640.714 129.491 639.947 130.656 640.133C130.97 640.183 131.263 640.301 131.513 640.479C133.108 641.615 133.716 643.638 133.041 645.565L125.706 666.5L118.959 665.506Z" fill="white" stroke="#4B4745" stroke-width="0.75" stroke-linejoin="round"/>
<path d="M124.801 645.375L128.813 647.106" stroke="#4B4745" stroke-width="0.75" stroke-linecap="round"/>
<path fill-rule="evenodd" clip-rule="evenodd" d="M111.071 657.821L112.783 666.53L101.744 676.393C96.5702 674.486 93.2951 672.737 91.9189 671.148C90.5428 669.558 91.7144 665.461 95.434 658.855C99.0416 656.982 101.952 655.972 104.164 655.825C106.377 655.679 108.679 656.344 111.071 657.821Z" fill="white"/>
<path fill-rule="evenodd" clip-rule="evenodd" d="M111.44 656.193C111.44 656.193 116.245 660.995 113.474 661.219C111.626 661.369 108.817 660.234 105.047 657.815C107.226 659.647 107.293 660.647 105.247 660.813C103.201 660.979 101.038 660.737 98.7581 660.089C99.251 663.071 98.7912 664.97 97.3791 665.787C95.967 666.603 95.7277 668.147 96.6616 670.418C94.6878 668.289 93.5005 668.102 93.0999 669.858C89.7033 667.642 89.2391 664.364 89.1413 662.896C89.0163 661.024 89.538 659.751 90.7063 659.079C89.7216 656.253 91.1071 654.36 94.8625 653.399C100.496 651.958 112.205 653.882 113.941 655.273C115.675 656.664 111.44 656.193 111.44 656.193Z" fill="#4A4B50"/>
<path fill-rule="evenodd" clip-rule="evenodd" d="M95.1752 671.648L92.1997 668.051L83.4097 652.282C78.9723 653.956 76.0276 655.48 74.5757 656.855C78.6498 666.3 81.5772 672.666 83.3579 675.954C85.1387 679.242 87.8401 682.972 91.4625 687.143L95.5947 707.047C98.266 708.46 100.329 707.978 101.784 705.602C103.239 703.225 104.481 698.306 105.512 690.846L122.128 681.03C124.134 676.308 125.955 672.601 127.592 669.91C129.228 667.219 130.929 661.427 132.696 652.534L124.708 650.152L118.654 665.905L116.35 669.93C110.181 674.193 105.988 676.415 103.77 676.595C102.176 676.724 100.292 676.524 98.0299 674.764C97.4394 674.305 96.4879 673.266 95.1752 671.648Z" fill="#FFCC00"/>
<path fill-rule="evenodd" clip-rule="evenodd" d="M111.671 661.366C112.257 664.642 112.829 666.868 113.389 668.046C114.229 669.813 115.666 674.934 110.113 676.594C106.41 677.7 102.349 677.118 97.9286 674.846" fill="white"/>
<path d="M111.671 661.366C112.257 664.642 112.829 666.868 113.389 668.046C114.229 669.813 115.666 674.934 110.113 676.594C106.41 677.7 102.349 677.118 97.9286 674.846" stroke="#4B4745" stroke-width="0.75" stroke-linecap="round" stroke-linejoin="round"/>
<path fill-rule="evenodd" clip-rule="evenodd" d="M111.348 671.344L108.26 672.313C108.819 672.98 109.493 673.282 110.282 673.218C111.072 673.154 111.427 672.529 111.348 671.344Z" fill="#4B4745"/>
<path d="M108.558 666.255C108.833 666.989 109.474 667.568 110.482 667.993C111.49 668.417 111.359 668.991 110.089 669.714" stroke="#4B4745" stroke-width="0.75" stroke-linecap="round" stroke-linejoin="round"/>
<path d="M108.761 664.966C109.602 663.764 110.54 663.516 111.576 664.221" stroke="#4A4A4A" stroke-width="0.75" stroke-linecap="round"/>
<path d="M101.745 666.776C102.529 665.582 103.47 665.34 104.566 666.052" stroke="#4A4A4A" stroke-width="0.75" stroke-linecap="round"/>
<path fill-rule="evenodd" clip-rule="evenodd" d="M125.296 715.281C124.246 723.648 120.977 727.689 115.489 727.404C107.257 726.977 100.818 715.406 100.779 714.854C100.753 714.486 101.397 712.966 102.712 710.296L125.296 715.281Z" fill="white"/>
<path fill-rule="evenodd" clip-rule="evenodd" d="M143.589 771.433C146.058 808.095 147.603 831.029 148.224 840.239C148.844 849.448 150.532 874.506 153.287 915.409L137.837 916.654L122.207 803.014L118.963 803.274C114.062 837.008 110.441 858.539 108.102 867.867C105.762 877.196 101.054 894.636 93.979 920.189L77.9132 921.482C84.1409 876.793 88.0361 849.069 89.5989 838.311C90.9234 829.194 89.1206 813.33 90.3145 786.164C90.4578 782.906 91.6911 776.963 94.0148 768.34L143.589 771.433Z" fill="#323443"/>
<path d="M100.23 769.843C96.1879 777.941 94.5708 787.796 95.3786 799.408C96.5904 816.826 94.3295 841.789 92.867 850.562C91.8919 856.411 88.2409 880.33 81.914 922.32" stroke="white" stroke-width="0.75" stroke-linecap="round" stroke-linejoin="round"/>
<path d="M120.824 802.421C123.428 802.048 124.975 805.28 125.466 812.12C125.956 818.957 130.761 854.131 139.881 917.64" stroke="white" stroke-width="0.75" stroke-linecap="round" stroke-linejoin="round"/>
<path fill-rule="evenodd" clip-rule="evenodd" d="M93.0199 709.125L77.4644 694.638L64.0545 662.382L52.4002 670.333C58.9937 692.412 63.1795 705.04 64.9576 708.216C66.0062 710.089 69.2757 713.684 74.7662 719.001C77.3121 721.466 82.2053 725.997 89.4457 732.593C90.2011 750.365 91.5641 762.905 93.5347 770.216C110.248 775.834 126.512 776.057 142.325 770.881L142.366 731.856C154.355 721.362 162.696 713.725 167.388 708.944C172.079 704.163 175.573 690.574 177.871 668.179L166.965 665.63L154.971 696.119L133.905 711.596L123.911 716.052C123.291 721.815 121.071 725.223 117.252 726.277C113.433 727.331 109.064 724.066 104.144 716.482L93.0199 709.125Z" fill="#6B74C1"/>
<path fill-rule="evenodd" clip-rule="evenodd" d="M127.054 704.704C131.83 703.646 135.126 704.569 136.943 707.471C138.759 710.373 142.454 716.349 148.027 725.4C140.944 727.198 136.712 730.221 135.33 734.469C131.911 726.18 130.102 720.621 129.902 717.792C129.703 714.963 128.214 713.959 125.436 714.78L127.054 704.704Z" fill="#5C8B83"/>
<path fill-rule="evenodd" clip-rule="evenodd" d="M112.481 732.202C111.025 735.839 110.581 738.652 111.147 740.643C111.714 742.635 112.752 742.057 114.259 738.909C113.684 743.538 114.604 745.265 117.018 744.092C119.432 742.918 119.499 739.309 117.219 733.262C120.058 732.107 122.856 729.593 125.614 725.718C128.371 721.843 128.59 718.01 126.27 714.219L123.232 720.289C119.991 725.786 116.454 727.463 112.621 725.319C108.789 723.174 105.531 718.945 102.849 712.632C100.46 715.148 99.6633 716.975 100.459 718.113C101.557 719.685 109.674 731.212 112.481 732.202Z" fill="#D37F1D"/>
<path d="M117.728 733.477C116.294 732.515 115.112 732.25 114.182 732.685" stroke="#4B4745" stroke-width="0.75" stroke-linecap="round"/>
<path d="M103.435 718.496L109.325 726.519" stroke="#4B4745" stroke-width="0.75" stroke-linecap="round"/>
<path d="M124.975 716.394C125.236 720.309 123.073 724.106 118.483 727.784" stroke="#4B4745" stroke-width="0.75" stroke-linecap="round"/>
<path fill-rule="evenodd" clip-rule="evenodd" d="M101.662 714.402C102.472 711.236 103.023 708.871 103.316 707.307C101.757 707.434 99.8045 702.597 99.9057 699.717C99.9731 697.797 101.862 697.086 105.571 697.583L105.194 691.917L107.145 688.239L113.73 686.426L126.45 686.049L128.839 693.081C128.133 696.86 127.747 700.67 127.682 704.511C127.583 710.271 126.032 713.206 125.486 715.013C124.94 716.82 125.195 720.008 118.471 719.967C113.989 719.939 110.456 717.412 107.873 712.386" fill="white"/>
<path d="M101.662 714.402C102.472 711.236 103.023 708.871 103.316 707.307C101.757 707.434 99.8045 702.597 99.9057 699.717C99.9731 697.797 101.862 697.086 105.571 697.583L105.194 691.917L107.145 688.239L113.73 686.426L126.45 686.049L128.839 693.081C128.133 696.86 127.747 700.67 127.682 704.511C127.583 710.271 126.032 713.206 125.486 715.013C124.94 716.82 125.195 720.008 118.471 719.967C113.989 719.939 110.456 717.412 107.873 712.386" stroke="#4B4745" stroke-width="0.75" stroke-linecap="round"/>
<path d="M122.812 697.76C123.729 696.892 124.695 696.734 125.71 697.286" stroke="#4A4A4A" stroke-width="0.75" stroke-linecap="round"/>
<path d="M115.214 698.822C114.088 698.114 113.07 698.315 112.159 699.426" stroke="#4A4A4A" stroke-width="0.75" stroke-linecap="round"/>
<path d="M121.094 696.237C120.287 698.319 120.081 699.928 120.474 701.063C121.064 702.765 122.544 706.014 120.821 706.153C119.672 706.245 118.914 705.975 118.546 705.344" stroke="#4B4745" stroke-width="0.75" stroke-linecap="round"/>
<path fill-rule="evenodd" clip-rule="evenodd" d="M101.544 705.24C96.836 703.869 93.8475 704.723 92.5787 707.802C90.6759 712.42 93.3908 719.861 93.766 725.435C94.0161 729.15 95.3653 732.875 97.8133 736.61C97.5507 732.124 98.8059 729.339 101.579 728.254C104.352 727.169 106.474 726.998 107.945 727.74C105.992 721.978 104.959 718.253 104.846 716.567C104.732 714.881 104.75 711.815 104.899 707.367" fill="#5C8B83"/>
<path d="M103.906 732.356C103.906 732.356 100.944 740.173 97.8318 736.232" stroke="white" stroke-width="0.75" stroke-linecap="round" stroke-linejoin="round"/>
<path fill-rule="evenodd" clip-rule="evenodd" d="M105.003 698.795C103.875 696.823 101.536 696.404 99.9251 699.205C98.3137 702.006 101.107 704.47 101.411 705.715C101.715 706.959 103.832 707.839 104.951 706.589" fill="white"/>
<path d="M105.003 698.795C103.875 696.823 101.536 696.404 99.9251 699.205C98.3137 702.006 101.107 704.47 101.411 705.715C101.715 706.959 103.832 707.839 104.951 706.589" stroke="#4B4745" stroke-width="0.75" stroke-linecap="round"/>
<path d="M119.43 720.459C119.144 721.538 118.718 722.246 118.152 722.582" stroke="#4B4745" stroke-width="0.75" stroke-linecap="round"/>
<path fill-rule="evenodd" clip-rule="evenodd" d="M104.935 700.6C105.534 703.251 105.862 705.007 105.919 705.87C106.006 707.163 105.325 712.167 107.311 714.942C109.297 717.718 112.86 720.641 118.053 720.643C123.246 720.644 124.467 719.433 125.241 717.078C125.757 715.509 126.269 712.959 126.777 709.428C125.965 710.679 125.407 711.159 125.105 710.865C124.65 710.425 125.074 708.547 122.217 707.886C119.36 707.225 115.537 706.942 113.666 707.942C112.418 708.608 111.573 709.382 111.131 710.262C111.029 707.221 110.587 705.485 109.804 705.055C108.629 704.41 107.072 704.978 106.842 701.526C106.688 699.226 106.612 697.044 106.612 694.98C108.747 694.516 110.926 693.344 113.149 691.464C112.426 693.191 112.477 693.95 113.301 693.741C114.125 693.533 116.216 692.392 119.572 690.318C117.59 692.869 117.534 693.845 119.404 693.247C121.275 692.649 123.565 691.371 126.276 689.412C127.442 691.597 128.178 692.77 128.484 692.931C128.413 693.259 128.249 694.251 127.991 695.906C128.929 695.132 130.014 693.163 131.245 689.999C133.092 685.253 132.796 683.627 130.785 683.098C131.803 680.21 129.472 679.301 123.794 680.371C115.275 681.976 107.956 677.72 104.442 683.739C100.424 683.219 99.7842 688.209 102.523 698.707C103.161 698.99 103.626 699.245 103.917 699.473C104.208 699.702 104.547 700.077 104.935 700.6Z" fill="#4B4745"/>
<path fill-rule="evenodd" clip-rule="evenodd" d="M122.157 709.903L116.191 709.262C116.7 711.536 117.642 712.712 119.016 712.79C120.391 712.868 121.438 711.906 122.157 709.903Z" fill="white"/>
<path fill-rule="evenodd" clip-rule="evenodd" d="M104.306 721.263C101.683 723.199 100.027 725.967 99.3382 729.567C98.719 730.251 98.2016 731.562 98.2079 732.852C98.2177 734.848 99.3462 737.774 101.161 738.618C103.152 739.543 104.601 736.474 105.508 729.41L104.306 721.263Z" fill="#4B4745"/>
<path fill-rule="evenodd" clip-rule="evenodd" d="M100.254 730.07C100.556 729.7 100.36 721.527 105.882 721.767C111.404 722.007 106.778 731.701 106.169 734.151C105.561 736.601 106.199 739.726 102.046 739.168C97.8923 738.608 99.9526 730.441 100.254 730.07Z" fill="white"/>
<path d="M108.466 725.353L102.729 724.185" stroke="#D6DCFF" stroke-width="0.75"/>
<path d="M108.158 728.755L102.421 727.588" stroke="#D6DCFF" stroke-width="0.75"/>
<path d="M106.73 732.24L100.993 731.073" stroke="#D6DCFF" stroke-width="0.75"/>
<path d="M105.865 735.684L100.128 734.517" stroke="#D6DCFF" stroke-width="0.75"/>
<path fill-rule="evenodd" clip-rule="evenodd" d="M148.326 722.587C146.136 722.301 143.686 723.678 140.977 726.718C136.913 731.279 136.525 731.483 135.93 733.667C136.341 735.791 137.584 738.895 138.487 738.823C139.089 738.775 142.369 733.363 148.326 722.587Z" fill="#4B4745"/>
<path fill-rule="evenodd" clip-rule="evenodd" d="M139.363 731.91C142.634 728.05 145.422 721.175 149.024 722.777C150.816 723.574 150.149 726.201 149.441 728.684C148.733 731.168 146.4 733.089 145.585 733.827C143.962 735.296 142.81 739.046 139.883 739.277C136.956 739.51 136.093 735.769 139.363 731.91Z" fill="white"/>
<path d="M149.213 728.27L144.158 725.352" stroke="#D6DCFF" stroke-width="0.75"/>
<path d="M147.856 731.16L142.801 728.243" stroke="#D6DCFF" stroke-width="0.75"/>
<path d="M145.487 733.766L140.432 730.849" stroke="#D6DCFF" stroke-width="0.75"/>
<path d="M143.003 736.921L138.428 734.104" stroke="#D6DCFF" stroke-width="0.75"/>
<path d="M114.057 740.736L114.842 735.067" stroke="#4B4745" stroke-width="0.75" stroke-linecap="round"/>
</g>
<path fill-rule="evenodd" clip-rule="evenodd" d="M443.985 691.997L444.497 695.866C443.089 694.701 441.816 694.547 440.678 695.404C438.971 696.689 439.986 700.422 442.144 701.687C443.582 702.531 444.746 702.985 445.633 703.05C446.917 708.964 448.255 712.952 449.649 715.015C451.043 717.078 453.732 719.202 457.716 721.388L470.57 722.331L471.233 713.292C473.3 709.743 474.429 706.661 474.621 704.044C476.808 703.563 480.841 701.542 480.554 696.691C479.593 694.325 477.942 694.204 475.6 696.327L476.989 683.383L463.569 676.491L443.985 691.997Z" fill="white"/>
<path d="M444.04 691.278C444.976 700.926 446.32 707.652 448.071 711.457C449.304 714.138 450.935 716.508 452.933 718.196M468.988 716.25C470.646 714.406 471.898 712.326 472.75 710.648C474.013 708.162 475.227 701.797 476.391 691.555" stroke="#4A4A4A"/>
<path d="M467.951 678.451C475.257 678.987 481.613 673.514 482.148 666.226C482.682 658.938 477.193 652.595 469.887 652.059C462.581 651.523 456.225 656.997 455.691 664.285C455.156 671.573 460.645 677.915 467.951 678.451Z" fill="#4B4745"/>
<path d="M475.787 696.302C477.44 694.536 478.842 694.344 479.993 695.727C481.72 697.801 478.703 704.368 474.65 704.071" stroke="#4A4A4A" stroke-linecap="round"/>
<path fill-rule="evenodd" clip-rule="evenodd" d="M444.214 694.481C454.907 692.375 461.945 688.083 465.329 681.605C468.533 686.983 472.186 690.757 476.288 692.928C477.625 689.278 478.149 685.314 477.861 681.033C477.429 674.613 473.123 669.86 467.747 668.575C462.382 663.696 453.268 665.612 446.811 675.06C442.507 681.358 441.641 687.832 444.214 694.481Z" fill="#4B4745"/>
<path d="M444.345 695.898C442.924 694.473 441.492 694.368 440.048 695.583C437.881 697.405 442.419 703.321 445.635 703.013" stroke="#4A4A4A" stroke-linecap="round"/>
<path d="M444.883 698.971L441.56 697.585" stroke="#4A4A4A" stroke-linecap="round"/>
<path d="M475.365 699.552L477.691 698.3" stroke="#4A4A4A" stroke-linecap="round"/>
<path fill-rule="evenodd" clip-rule="evenodd" d="M507.718 780.145C508.339 787.528 507.046 793.654 503.839 798.525C499.029 805.83 467.411 818.091 457.61 819.366C447.809 820.642 430.822 814.882 430.967 812.905C431.112 810.927 446.901 812.589 448.504 811.174C443.283 804.565 443.121 800.673 447.586 803.2C452.052 805.726 453.4 808.617 458.372 808.982L490.969 794.28L490.456 780.809L507.718 780.145Z" fill="white" stroke="#4A4A4A" stroke-linejoin="round"/>
<path d="M442.559 687.86C451.042 683.103 456.898 678.196 460.129 673.14" stroke="white"/>
<path fill-rule="evenodd" clip-rule="evenodd" d="M470.185 727.593C484.338 733.677 493.466 738.612 497.571 742.399C501.676 746.185 505.77 759.243 509.851 781.572L489.027 781.45L487.17 771.402L485.864 789.213L488.274 808.383L426.777 818.219L431.868 780.844L427.301 775.517L417.835 789.592L403.021 778.06C409.791 756.237 414.814 746.913 420.641 741.948C426.467 736.984 436.13 732.152 449.63 727.454C448.506 731.062 448.757 734.111 450.384 736.602C454.654 743.138 467.609 747.24 471.628 736.767C472.819 733.663 472.338 730.605 470.185 727.593Z" fill="#D37F1D"/>
<path d="M443.228 691.699C452.432 687.598 458.762 683.324 462.219 678.877" stroke="white"/>
<path d="M471.234 713.31C470.694 720.672 470.345 725.433 470.187 727.593C470.028 729.753 470.58 731.845 471.842 733.87" stroke="#4A4A4A" stroke-linecap="round"/>
<path d="M458.477 691.024C459.015 693.125 459.187 695.504 458.992 698.163C458.7 702.151 457.31 706.925 457.766 707.799C458.069 708.382 459.232 708.467 461.254 708.055" stroke="#4A4A4A" stroke-linecap="round"/>
<path d="M454.032 667.451C461.436 664.972 466.336 665.089 468.731 667.803C473.147 668.896 476.06 671.901 477.471 676.819" stroke="white"/>
<path d="M468.042 703.097C471.695 703.365 474.873 700.628 475.14 696.984C475.408 693.34 472.663 690.168 469.01 689.901C465.357 689.633 462.179 692.369 461.912 696.013C461.645 699.657 464.389 702.829 468.042 703.097Z" stroke="#1D70D3"/>
<path d="M450.964 702.792C454.616 703.06 457.795 700.323 458.062 696.679C458.329 693.035 455.585 689.864 451.932 689.596C448.279 689.328 445.101 692.065 444.833 695.709C444.566 699.353 447.311 702.524 450.964 702.792Z" stroke="#1D70D3"/>
<path d="M457.829 694.412C459.213 692.783 460.615 692.761 462.034 694.346" stroke="#1D70D3" stroke-linecap="round"/>
<path d="M430.084 755.197C426.59 762.09 425.22 767.198 425.972 770.52C426.724 773.841 428.69 777.283 431.868 780.845L426.412 818.193" stroke="#4A4A4A" stroke-linecap="round"/>
<path d="M465.88 695.613C467.71 694.032 469.428 693.983 471.033 695.468" stroke="#4A4A4A" stroke-linecap="round"/>
<path d="M456.768 712.41C458.149 713.278 460.046 713.15 462.461 712.026" stroke="#4A4A4A" stroke-linecap="round"/>
<path d="M453.719 695.246C452.067 693.82 450.379 693.899 448.656 695.482" stroke="#4A4A4A" stroke-linecap="round"/>
<path fill-rule="evenodd" clip-rule="evenodd" d="M396.815 732.62C398.269 756.55 399.414 770.417 400.247 774.22C404.54 793.819 420.458 786.202 422.462 776.352C423.798 769.786 419.542 753.895 409.694 728.68C411.624 724.089 412.769 720.138 413.129 716.827C413.434 714.02 413.75 711.441 414.077 709.089C414.171 708.417 413.567 707.94 412.727 708.023C412.716 708.024 412.706 708.025 412.695 708.026C411.774 708.133 410.91 708.717 410.584 709.454L407.626 716.14L405.628 702.953C405.529 702.3 404.804 701.926 403.937 702.083C403.117 702.23 402.447 702.87 402.44 703.512C402.44 703.52 402.44 703.528 402.441 703.536L402.63 714.756L400.181 702.969C400.045 702.311 399.239 701.985 398.359 702.232C397.471 702.482 396.818 703.21 396.864 703.898L397.679 716.068L394.801 705.841C394.594 705.106 393.652 704.768 392.65 705.068C391.68 705.359 391.009 706.187 391.15 706.917C391.152 706.924 391.153 706.931 391.155 706.938L393.686 718.653L390.173 712.676C389.766 711.983 388.661 711.801 387.654 712.262C386.66 712.715 386.127 713.657 386.457 714.374C389.16 720.255 390.81 724.157 391.405 726.079C392.042 728.139 393.845 730.319 396.815 732.62Z" fill="white" stroke="#4B4745" stroke-linejoin="round"/>
<path d="M406.511 713.241C405.832 715.011 404.979 716.547 403.952 717.85C402.412 719.803 397.718 721.081 396.44 724.12" stroke="#4A4A4A"/>
<path d="M393.426 715.823C393.425 715.391 396.616 712.704 403.168 712.455" stroke="#4A4A4A"/>
<path fill-rule="evenodd" clip-rule="evenodd" d="M485.141 795.195C489.26 797.052 497.086 799.027 498.852 811.173C500.029 819.27 501.34 827.698 502.785 836.457C505.19 838.876 506.93 840.441 508.004 841.154C510.759 842.98 513.171 843.324 512.886 844.347C512.208 846.782 501.813 844.148 497.21 843.81C494.141 843.585 492.923 841.075 493.555 836.283C490.553 828.065 488.074 819.64 486.116 811.007L481.965 810.592C479.588 804.281 480.646 799.149 485.141 795.195Z" fill="white" stroke="#4A4A4A" stroke-linejoin="round"/>
<path fill-rule="evenodd" clip-rule="evenodd" d="M472.308 810.19L482.887 810.966C478.803 802.732 484.985 795.224 486.01 795.3C486.693 795.35 482.607 793.762 473.749 790.536L471.499 785.462C451.292 785.313 440.896 785.218 440.311 785.175C439.434 785.111 434.869 810.637 444.506 813.543C450.93 815.48 455.426 814.995 457.994 812.087L472.308 810.19Z" fill="#5C8B83"/>
<path d="M450.485 793.34L461.271 796.672" stroke="white"/>
<path fill-rule="evenodd" clip-rule="evenodd" d="M465.375 798.197C469.491 800.084 471.44 802.44 473.007 811.982C474.052 818.344 475.196 826.15 476.437 835.402C478.251 837.531 479.727 840.479 480.863 844.246C482.048 848.172 478.839 848.939 477.687 845.468C477.742 848.847 474.822 847.859 473.418 847.756C470.349 847.531 468.434 844.142 467.674 837.588C464.684 829.215 462.216 820.63 460.271 811.831L456.103 812.352C453.322 805.008 454.68 799.805 460.176 796.742C462.267 797.081 464 797.566 465.375 798.197Z" fill="white" stroke="#4A4A4A" stroke-linejoin="round"/>
<path d="M496.332 836.561C496.219 838.535 496.964 839.581 498.567 839.698" stroke="#4A4A4A" stroke-linecap="round"/>
<path d="M475.96 847.662C475.723 847.316 475.464 846.527 475.184 845.295" stroke="#4A4A4A" stroke-linecap="round"/>
<path d="M473.497 847.482L473.07 845.279" stroke="#4A4A4A" stroke-linecap="round"/>
<path d="M471.266 846.903L471.404 845.017" stroke="#4A4A4A" stroke-linecap="round"/>
<path fill-rule="evenodd" clip-rule="evenodd" d="M452.973 750.292C448.926 750.716 446.211 751.222 444.827 751.809C440.923 753.464 438.917 756.414 437.819 760.173C436.958 763.122 436.708 767.703 438.975 771.184C439.013 774.906 438.961 781.777 438.818 791.796L473.751 790.535C472.765 778.635 472.036 770.667 471.562 766.63L480.959 768.114L482.535 758.118C477.345 756.092 473.177 754.317 470.03 752.792C468.457 752.029 462.771 751.196 452.973 750.292Z" fill="#FFCC00"/>
<path d="M471.563 766.631L473.401 759.349" stroke="#626366"/>
<path fill-rule="evenodd" clip-rule="evenodd" d="M482.88 759.262L487.636 760.366L501.079 738.929C501.225 736.937 501.36 735.092 501.484 733.396C501.591 731.94 501.929 730.294 502.497 728.457C502.666 727.911 503.189 727.553 503.759 727.595C504.304 727.635 504.732 728.08 504.75 728.628L504.936 734.098L509.44 726.387C509.719 725.91 510.331 725.75 510.806 726.029C510.813 726.033 510.82 726.037 510.827 726.041C511.332 726.354 511.546 726.981 511.338 727.538L509.434 732.638L513.098 727.623C513.473 727.11 514.166 726.953 514.724 727.253C515.263 727.543 515.469 728.214 515.186 728.758L512.129 734.625L516.489 730.855C516.925 730.478 517.579 730.509 517.977 730.925C518.376 731.342 518.38 731.998 517.986 732.42L512.937 737.832L517.646 735.483C518.09 735.261 518.628 735.426 518.873 735.857C519.125 736.3 519.016 736.862 518.616 737.178C514.384 740.521 511.046 742.788 508.602 743.978C505.621 749.148 496.456 770.062 491.88 770.876C488.829 771.419 484.704 770.779 479.506 768.956L482.88 759.262Z" fill="white" stroke="#4A4A4A" stroke-linejoin="round"/>
<path d="M457.106 752.71C458.273 757.208 460.276 759.361 463.116 759.169C465.955 758.976 467.306 757.376 467.169 754.368" stroke="#626366"/>
<path d="M448.749 732.175L454.131 734.499" stroke="#4A4A4A" stroke-linecap="round"/>
<path fill-rule="evenodd" clip-rule="evenodd" d="M453.181 750.251C449.555 746.216 450.08 741.476 449.89 738.613C447.435 738.012 446.065 733.644 447.639 730.513C448.687 728.425 450.012 728.132 451.612 729.634C451.769 723.311 455.484 720.417 462.757 720.95C473.667 721.751 475.923 728.221 473.964 736.314C472.005 744.407 474.137 743.807 473.057 748.679C471.977 753.552 464.667 757.618 456.95 753.217" fill="white"/>
<path d="M453.181 750.251C449.555 746.216 450.08 741.476 449.89 738.613C447.435 738.012 446.065 733.644 447.639 730.513C448.687 728.425 450.012 728.132 451.612 729.634C451.769 723.311 455.484 720.417 462.757 720.95C473.667 721.751 475.923 728.221 473.964 736.314C472.005 744.407 474.137 743.807 473.057 748.679C471.977 753.552 464.667 757.618 456.95 753.217" stroke="#4A4A4A" stroke-linecap="round" stroke-linejoin="round"/>
<path fill-rule="evenodd" clip-rule="evenodd" d="M451.601 731.229C452.819 733.208 452.023 738.575 453.119 738.953C454.214 739.331 454.219 730.525 454.994 730.111C455.768 729.697 458.254 728.682 459.445 725.834C462.176 728.751 466.026 732.048 475.37 731.606C476.141 727.407 474.876 723.536 471.573 719.995C466.62 714.682 457.497 714.773 453.073 719.217C448.663 719.241 446.723 723.702 447.253 732.6C448.87 730.261 450.319 729.804 451.601 731.229Z" fill="#4A4A4A"/>
<path d="M473.535 732.087C470.554 730.635 468.539 728.467 467.49 725.583" stroke="white"/>
<path d="M467.607 731.885C464.826 730.083 463.09 727.686 462.401 724.696" stroke="white"/>
<path d="M467.494 740.015C467.601 741.871 467.982 743.124 468.637 743.774C469.291 744.424 469.001 744.999 467.767 745.499" stroke="#4A4A4A" stroke-linecap="round"/>
<path d="M470.212 736.914C471.506 736.263 472.59 736.337 473.467 737.136" stroke="#4A4A4A" stroke-linecap="round"/>
<path d="M459.902 736.344C461.276 735.585 462.485 735.674 463.53 736.61" stroke="#4A4A4A" stroke-linecap="round"/>
<path d="M450.271 734.961L448.62 733.426" stroke="#4A4A4A" stroke-linecap="round"/>
<path fill-rule="evenodd" clip-rule="evenodd" d="M468.686 748.429C466.569 748.367 464.985 748.07 463.934 747.538C464.208 749.204 464.851 750.074 465.862 750.148C466.873 750.222 467.814 749.649 468.686 748.429Z" fill="#FF9B6D"/>
<path d="M485.705 792.524C494.315 793.156 501.806 786.705 502.437 778.115C503.067 769.526 496.597 762.051 487.987 761.419C479.376 760.787 471.885 767.238 471.255 775.828C470.625 784.417 477.094 791.892 485.705 792.524Z" fill="#0ACC94"/>
<path fill-rule="evenodd" clip-rule="evenodd" d="M454.328 771.654L455.763 775.64L479.38 788.998C481.595 788.064 483.406 787.457 484.813 787.179C485.968 786.951 487.113 786.67 488.25 786.336C488.682 786.209 489.143 786.415 489.337 786.822C489.531 787.23 489.393 787.72 489.014 787.965L486.843 789.37L496.312 790.064C492.281 794.194 488.682 796.142 485.514 795.91C482.347 795.678 479.861 795.142 478.057 794.305C462.99 790.357 453.85 787.146 450.639 784.672C447.427 782.198 445.09 779.606 443.628 776.893" fill="white"/>
<path d="M454.328 771.654L455.763 775.64L479.38 788.998C481.595 788.064 483.406 787.457 484.813 787.179C485.968 786.951 487.113 786.67 488.25 786.336C488.682 786.209 489.143 786.415 489.337 786.822C489.531 787.23 489.393 787.72 489.014 787.965L486.843 789.37L496.312 790.064C492.281 794.194 488.682 796.142 485.514 795.91C482.347 795.678 479.861 795.142 478.057 794.305C462.99 790.357 453.85 787.146 450.639 784.672C447.427 782.198 445.09 779.606 443.628 776.893" stroke="#4A4A4A" stroke-linejoin="round"/>
<path d="M447.036 755.005C449.343 758.061 451.486 762.014 453.463 766.863L455.34 771.18L443.628 776.894L440.283 771.807" stroke="#626366"/>
<path fill-rule="evenodd" clip-rule="evenodd" d="M459.901 815.379C452.88 808.812 448.459 805.462 446.639 805.329C444.819 805.195 445.659 807.232 449.159 811.438C437.638 811.957 433.133 812.678 435.645 813.599C438.157 814.521 440.646 814.871 443.112 814.651" fill="white"/>
<path d="M459.901 815.379C452.88 808.812 448.459 805.462 446.639 805.329C444.819 805.195 445.659 807.232 449.159 811.438C437.638 811.957 433.133 812.678 435.645 813.599C438.157 814.521 440.646 814.871 443.112 814.651" stroke="#4A4A4A" stroke-linejoin="round"/>
<path d="M504.937 734.098L507.049 739.126" stroke="#4A4A4A" stroke-linecap="round"/>
</svg>
